<?xml version="1.0" standalone="no"?>
<!DOCTYPE svg PUBLIC "-//W3C//DTD SVG 1.1//EN" "http://www.w3.org/Graphics/SVG/1.1/DTD/svg11.dtd" >
<svg xmlns="http://www.w3.org/2000/svg" xmlns:xlink="http://www.w3.org/1999/xlink" version="1.1">
<metadata></metadata>
<defs>
<font id="latin_modern_mono10_italic" horiz-adv-x="1075" >
<font-face units-per-em="2048" ascent="1593" descent="-455" />
<missing-glyph horiz-adv-x="500" />
<glyph horiz-adv-x="0" />
<glyph horiz-adv-x="682" />
<glyph unicode=" " />
<glyph unicode="!" d="M461 92q0 46 35 79.5t79 33.5q36 0 64.5 -24t28.5 -68q0 -46 -36 -79.5t-79 -33.5q-37 0 -64.5 24.5t-27.5 67.5zM565 434q6 33 8 39l154 698q6 28 20 49t28 31t30 15.5t24 6.5t13 1q43 0 68.5 -28t25.5 -62q0 -10 -8 -43l-197 -707q-11 -39 -28 -48t-56 -9q-16 0 -26 1 t-25 6t-23 17.5t-8 32.5z" />
<glyph unicode="&#x22;" d="M475 729q0 11 4 27l78 413q17 105 102 105q42 0 64 -26t22 -56q0 -10 -10 -45l-133 -420q-5 -15 -8 -22.5t-10 -16.5t-18 -12.5t-27 -3.5q-28 0 -44 14t-18 28zM838 729q0 11 4 27l78 415q21 103 102 103q42 0 64 -26t22 -56q0 -10 -10 -41l-133 -424q-5 -16 -8 -22.5 t-10 -16t-18 -13t-28 -3.5q-28 0 -43.5 14t-17.5 28z" />
<glyph unicode="#" d="M174 406q0 71 96 71h113l113 299h-115q-96 0 -96 72t94 72h172l102 272q18 40 40 52q14 7 32 7q30 0 51 -21.5t21 -49.5q0 -11 -13 -45l-79 -215h204l103 272l2 6q3 5 4 7t3.5 7.5t4.5 8l6 7.5t7.5 7.5t8.5 6t10 5t11.5 3t13.5 1.5q30 0 51 -21.5t21 -49.5q0 -14 -12 -45 l-80 -215h57q94 0 94 -72t-96 -72h-110l-113 -299h113q96 0 96 -71q0 -72 -94 -72h-170l-105 -273q-5 -17 -11 -28t-21.5 -22t-38.5 -11q-29 0 -50.5 20t-21.5 52q0 17 94 262h-205l-104 -273q-20 -61 -72 -61q-29 0 -50.5 20t-21.5 52q0 7 8 31.5t21 59t24.5 65.5t25 64 t16.5 42h-60q-94 0 -94 72zM537 477h204l113 299h-205z" />
<glyph unicode="$" d="M205 340q8 33 24.5 55.5t36.5 31.5t33 12t23 3q33 0 55 -26t12 -66q-13 -49 -51 -71q3 -73 48.5 -112.5t117.5 -49.5l119 475q-67 13 -118.5 36t-81.5 49t-48.5 58t-25.5 58.5t-7.5 56t2 45.5t6.5 31q20 77 79 147.5t155 122t207 64.5l18 77q5 23 11.5 38t26 30.5 t48.5 15.5q22 0 33 -7.5t12 -23.5t0 -25t-6 -28l-19 -75q86 -7 148.5 -37t92.5 -74t40 -100t-8 -115q-12 -52 -45.5 -76t-71.5 -24q-40 0 -58 26.5t-9 63.5q10 43 47 67q-2 37 -18.5 64.5t-42.5 43t-51.5 23.5t-53.5 11l-107 -426q81 -16 138 -49.5t85 -71.5t40 -84.5 t11 -83t-10 -70.5q-14 -56 -49 -111.5t-88.5 -106t-133.5 -88.5t-173 -52l-18 -78q-5 -23 -11.5 -38t-25.5 -30.5t-47 -15.5q-22 0 -34 7.5t-13 23.5t0 25t6 28l18 76q-166 17 -234 116t-34 234zM483 934q-19 -75 33.5 -129t142.5 -70l101 400q-101 -15 -179.5 -71.5 t-97.5 -129.5zM631 119q100 17 179 80.5t99 142.5t-26 141t-142 82z" />
<glyph unicode="%" d="M156 -98q0 17 20 53l918 1421q9 15 15 22.5t20 15t32 7.5q31 0 51.5 -21.5t20.5 -49.5q0 -20 -21 -52l-917 -1423q-11 -16 -16 -22t-19.5 -14.5t-32.5 -8.5q-29 0 -50 21.5t-21 50.5zM346 1061q0 76 31.5 159t90 142t124.5 59q63 0 100 -53t37 -133q0 -82 -33.5 -165.5 t-91 -139.5t-119.5 -56q-70 0 -104.5 56.5t-34.5 130.5zM463 1069q0 -68 26 -68q33 0 78 71.5t45 154.5q0 67 -24 67q-36 0 -80.5 -73t-44.5 -152zM659 16q0 83 33.5 166t91 138t119.5 55q57 0 97 -48.5t40 -138.5q0 -83 -33.5 -165.5t-90.5 -137.5t-119 -55q-57 0 -97.5 48 t-40.5 138zM774 23q0 -21 7 -43.5t20 -22.5q35 0 80 73.5t45 151.5q0 21 -7 43.5t-20 22.5q-35 0 -80 -73.5t-45 -151.5z" />
<glyph unicode="&#x26;" d="M98 358q0 81 45 188t115 183q-16 32 -16 100q0 103 52.5 206t144.5 171t194 68q88 0 155.5 -46.5t67.5 -131.5q0 -34 -11 -59.5t-28 -37.5t-32.5 -17t-30.5 -5q-33 0 -58.5 21t-25.5 61q0 41 28 69q-29 21 -69 21q-82 0 -161 -96.5t-85 -218.5q84 49 160 49 q66 0 97.5 -42.5t31.5 -90.5q0 -70 -52 -132.5t-131 -62.5q-86 0 -153 55q-48 -66 -72 -138t-24 -114q0 -107 97 -181.5t263 -74.5q121 0 215.5 37t149 91.5t90 125.5t47.5 130t12 114q0 93 -41 158q-81 -44 -108 -68t-27 -59q0 -16 8 -29t16 -18l9 -4q15 10 37 10 q28 0 47.5 -20t19.5 -48q0 -24 -18.5 -48.5t-61.5 -24.5q-80 0 -139 51t-59 131q0 43 16 80t46 65t53.5 44.5t58.5 35.5q46 27 67 41t54.5 43t53 59.5t43 80t42.5 114.5q8 29 28.5 43t43.5 14q25 0 46 -16.5t21 -50.5q0 -40 -48.5 -152t-131.5 -190q65 -93 65 -236 q0 -87 -21.5 -172.5t-72 -169t-124 -146.5t-187 -102t-252.5 -39q-118 0 -214.5 31.5t-158 85t-94.5 121.5t-33 143zM426 707q27 -27 61 -27q14 0 27 21.5t16 54.5q-56 -8 -104 -49z" />
<glyph unicode="'" d="M657 729q0 9 7 43l75 402q16 100 103 100q35 0 59.5 -23.5t24.5 -58.5q0 -10 -11 -47l-131 -416q-5 -16 -8 -23.5t-10 -17t-18.5 -13t-28.5 -3.5q-31 0 -46.5 18.5t-15.5 38.5z" />
<glyph unicode="(" d="M485 416q0 110 26 218.5t69.5 197t99.5 171t117 146t121 115.5t112 86t90 52.5t56 18.5q34 0 48.5 -19.5t14.5 -37.5q0 -16 -7.5 -27.5t-15 -16.5t-28.5 -17q-140 -81 -250 -192t-176.5 -230.5t-100.5 -239.5t-34 -233q0 -62 10 -119t23 -98t36 -81.5t39.5 -63.5 t43 -49.5t36 -35t29.5 -24.5q26 -17 26 -48q0 -10 -4 -21.5t-19.5 -23.5t-39.5 -12q-41 0 -109.5 68t-111.5 139q-101 170 -101 377z" />
<glyph unicode=")" d="M154 -111q0 23 11 34.5t38 27.5q141 81 251.5 193t176.5 231.5t99.5 239t33.5 231.5q0 292 -201 457q-20 17 -25.5 22.5t-10.5 15.5t-5 23q0 23 16.5 40t45.5 17q41 0 109.5 -68t111.5 -139q100 -168 100 -376q0 -125 -33.5 -247.5t-87.5 -220t-122 -185t-137.5 -150.5 t-133 -110t-110 -70t-66.5 -23q-29 0 -45 16.5t-16 40.5z" />
<glyph unicode="*" d="M248 422q0 50 63 82l258 121l-194 123q-12 7 -18 11.5t-10.5 14t-4.5 23.5q0 32 27 58t59 26q21 0 47 -19l184 -131l58 250q22 86 86 86q29 0 42 -16.5t13 -34.5q0 -11 -6 -29l-70 -256l256 133q35 17 47 17q31 0 42.5 -17.5t11.5 -36.5q0 -51 -66 -82l-254 -120 l191 -119q13 -8 19 -12.5t12 -14.5t6 -24q0 -31 -27 -57.5t-59 -26.5q-23 0 -48 18l-184 131l-57 -256q-9 -44 -36.5 -62t-51.5 -18q-25 0 -39.5 16t-14.5 36q1 9 9 38l67 246l-258 -133q-29 -16 -47 -16q-27 0 -40 17t-13 34z" />
<glyph unicode="+" d="M236 627q0 71 94 71h309l80 320q15 69 74 69q31 0 51 -21t20 -50q0 -12 -8 -41l-68 -277h271q94 0 94 -71q0 -72 -94 -72h-307l-78 -315q-20 -74 -76 -74q-30 0 -51 22t-21 50q0 8 9 41l69 276h-274q-94 0 -94 72z" />
<glyph unicode="," d="M313 -221q0 42 52 59q138 37 206 164q-6 -2 -20 -2q-56 0 -84.5 35t-28.5 74q0 53 42 100t108 47q54 0 96.5 -39t42.5 -119q0 -62 -27 -123t-69 -106t-89.5 -81t-91 -54.5t-71.5 -18.5q-31 0 -48.5 23t-17.5 41z" />
<glyph unicode="-" d="M272 627q0 71 95 71h655q94 0 94 -71q0 -72 -94 -72h-655q-95 0 -95 72z" />
<glyph unicode="." d="M440 111q0 62 46 103.5t100 41.5t84 -34.5t30 -76.5q0 -55 -44 -100t-103 -45q-45 0 -79 29.5t-34 81.5z" />
<glyph unicode="/" d="M94 -98q0 7 0.5 11.5t3.5 10.5t4.5 8.5t7.5 11t9 13.5l1042 1429l4 4q4 5 5 6.5t5 5.5t7 6t8 5t9.5 4.5t10.5 2.5t13 1q31 0 51 -21.5t20 -49.5q0 -22 -24 -56l-1039 -1425q-30 -39 -65 -39q-30 0 -51 22t-21 50z" />
<glyph unicode="0" d="M233 395q0 153 55.5 313t142 284t200.5 203t225 79q133 0 215 -116t82 -302q0 -127 -36 -257.5t-98.5 -240t-141 -196.5t-169 -136t-176.5 -49q-96 0 -165.5 60.5t-101.5 153.5t-32 204zM381 418q0 -87 18.5 -156t60.5 -114.5t103 -45.5q103 0 209.5 118.5t174 293.5 t67.5 334q0 137 -52 219t-139 82q-100 0 -203 -105t-171 -277t-68 -349z" />
<glyph unicode="1" d="M244 57q0 19 6.5 33t14.5 20.5t22 10t22 4t21 0.5h196l211 846q-111 -78 -215 -78q-67 0 -67 57q0 24 14 44.5t41 23.5q21 1 34 3t39.5 8.5t51 20.5t54.5 35.5t63.5 58t66.5 83.5q14 22 26.5 31.5t33.5 9.5q26 0 41.5 -14t18.5 -25t3 -19q0 -4 -6 -34l-264 -1051h170 q15 0 25 -1t25.5 -6t23.5 -17.5t8 -32.5q0 -24 -8 -39t-23.5 -20.5t-25.5 -7t-27 -1.5h-514q-15 0 -25 1t-25.5 6t-23.5 17.5t-8 32.5z" />
<glyph unicode="2" d="M117 35q0 33 41 120t102 154q84 88 157 135t175 91q95 39 156 68t120.5 65.5t92.5 71.5t53 80.5t20 99.5q0 106 -73 167.5t-181 61.5q-29 0 -63 -6t-80 -25t-87 -48.5t-79.5 -82t-60.5 -119.5q-6 -20 -20 -30t-24 -11.5t-26 -1.5q-37 0 -53.5 16.5t-16.5 41.5 q0 33 21.5 80.5t66 102t103.5 101t144 77t177 30.5q170 0 282 -99.5t112 -256.5q0 -58 -16.5 -110t-41.5 -92.5t-67 -79.5t-82 -67t-97 -58t-100.5 -50t-105.5 -45q-65 -28 -100.5 -45t-98.5 -61.5t-107 -98.5q59 -5 99.5 -14t142.5 -43q125 -39 184 -39q75 0 142.5 62 t99.5 167q7 27 23.5 38t46.5 11t50.5 -14t20.5 -43q0 -23 -15.5 -64t-48.5 -92.5t-76.5 -96.5t-109 -75.5t-137.5 -30.5q-98 0 -243 60q-135 49 -193 49q-65 0 -88 -66q-7 -20 -21 -30t-23.5 -11.5t-25.5 -1.5q-71 0 -71 58z" />
<glyph unicode="3" d="M158 242q0 24 4 46t14.5 45.5t32.5 37.5t53 14q42 0 64 -25.5t22 -56.5q0 -45 -39 -78q-3 -2 -4.5 -5t-1.5 -5v-2q0 -10 9 -26t28.5 -36.5t60 -34.5t93.5 -14q47 0 99.5 9.5t108 32.5t100 55t73 83t28.5 111q0 32 -9.5 62.5t-31 62t-66 51t-106.5 19.5h-82q-16 0 -26.5 1 t-26.5 6t-24.5 18t-8.5 34q0 19 6.5 32t14.5 19.5t21.5 10t21 4t20.5 0.5h78q83 0 155.5 26.5t118 68t71.5 88t26 89.5q0 70 -58.5 117t-160.5 47q-41 0 -87 -8.5t-95.5 -27t-89 -54t-56.5 -82.5q-10 -31 -24 -43t-50 -12t-52.5 16.5t-16.5 40.5q0 31 18 68.5t57 77.5t93 73 t134.5 54.5t172.5 21.5q163 0 259.5 -83.5t96.5 -205.5q0 -97 -69 -191.5t-197 -156.5q20 -18 33.5 -33t35.5 -46t33.5 -73.5t11.5 -93.5q0 -83 -36 -153t-94 -117t-131.5 -80.5t-147.5 -48.5t-143 -15q-145 0 -239.5 71.5t-94.5 193.5z" />
<glyph unicode="4" d="M47 63q0 17 9.5 32.5t18.5 22.5l9 7q29 16 63 39t93.5 72t116.5 107t126 148t128 192t117 241t99 293q8 24 28.5 40.5t45.5 16.5q27 0 47.5 -19t20.5 -49q0 -5 -7.5 -39t-29.5 -103.5t-54 -150.5t-89 -189.5t-127 -209.5q-120 -174 -314 -352q78 0 168 -23 q20 -5 25.5 -6.5t10.5 -3t11.5 -4t34.5 -10.5t72 -21q29 123 51 209q24 93 39 119.5t55 26.5q31 0 49.5 -19.5t18.5 -46.5q0 -6 -6.5 -34t-16.5 -69t-14 -61q-5 -19 -14.5 -56.5t-16 -62.5t-6.5 -28q0 -9 29 -9q53 0 114 23q20 10 37 10q27 0 45.5 -20t18.5 -43 q0 -28 -30.5 -48.5t-74 -29.5t-73 -12.5t-44.5 -3.5q-31 0 -55 4l-82 -328q-18 -70 -76 -70q-27 0 -47 19t-20 49q0 10 8 41l78 317q-133 41 -152 45q-80 21 -161 21q-135 0 -172 -21q-26 -16 -41 -16q-27 0 -45.5 20.5t-18.5 42.5z" />
<glyph unicode="5" d="M174 244q0 65 27 105t80 40q35 0 59.5 -23t24.5 -59q0 -54 -48 -84q9 -40 37 -67t64 -37t59 -13.5t43 -3.5q100 0 196 50t158 138t62 187q0 77 -44.5 136t-141.5 59q-172 0 -297 -109q-17 -15 -26.5 -19.5t-31.5 -4.5q-35 0 -50 18t-15 39q0 12 8 41l137 553 q5 22 12.5 35t20.5 18.5t22.5 6.5t30.5 1h551q84 0 84 -57q0 -19 -6.5 -33t-14.5 -20.5t-22 -10t-22 -4t-21 -0.5h-506l-94 -381q115 52 244 52q150 0 236.5 -93.5t86.5 -228.5q0 -131 -80 -247t-209 -183.5t-270 -67.5q-150 0 -247 74.5t-97 192.5z" />
<glyph unicode="6" d="M225 360q0 43 6.5 98.5t26.5 151t71.5 202t127.5 196.5q99 117 232.5 191.5t273.5 74.5q69 0 119 -17t74.5 -45t35 -56t10.5 -58q0 -58 -27.5 -94.5t-76.5 -36.5q-26 0 -44.5 10t-26.5 24.5t-11.5 26t-3.5 19.5q0 50 37 77q-30 25 -91 25q-79 0 -162.5 -38.5 t-152.5 -100.5t-124 -141.5t-83 -161.5q54 41 136 72.5t176 31.5q74 0 133.5 -23.5t95 -59t60 -80.5t33.5 -83.5t9 -72.5q0 -134 -76 -254t-198.5 -190.5t-253.5 -70.5q-65 0 -121 20.5t-103 63.5t-74.5 119.5t-27.5 179.5zM367 336q0 -26 3 -51.5t14.5 -60.5t30.5 -60.5 t54.5 -43.5t83.5 -18q94 0 183 54t145.5 144.5t56.5 188.5q0 13 -2.5 31t-15 48.5t-32.5 55t-60 42.5t-93 18q-115 0 -215 -65t-135 -162q-2 -9 -10 -59t-8 -62z" />
<glyph unicode="7" d="M211 883q0 14 14 43l162 301q15 29 27 38t45 9q67 0 71 -62q126 62 244 62q55 0 87.5 -22.5t70.5 -75.5q24 -31 34.5 -38.5t26.5 -7.5q47 0 112.5 26t117.5 85q19 22 29 27.5t38 5.5q40 0 56 -17.5t16 -39.5q0 -23 -23 -46q-41 -53 -67 -86.5t-81.5 -111t-96 -141 t-96.5 -161t-98 -187t-85 -202t-72 -223.5q-4 -17 -7.5 -27.5t-12 -25t-23 -22t-34.5 -7.5q-25 0 -46.5 16.5t-21.5 51.5q0 18 18.5 86.5t64.5 192t105 243.5q42 86 91 170.5t82.5 137t89.5 135.5q-27 -4 -60 -4q-53 0 -86 21.5t-76 74.5q-20 23 -31 29t-30 6 q-41 0 -91.5 -14t-107 -42.5t-112.5 -81.5t-97 -122q-17 -25 -23 -33t-19 -13.5t-35 -5.5q-36 0 -53 17t-17 41z" />
<glyph unicode="8" d="M170 281q0 73 33 139.5t87.5 115.5t119.5 84.5t135 55.5q-77 24 -137 81t-60 138q0 63 40 130t106.5 122.5t162.5 91t197 35.5q158 0 252 -76.5t94 -191.5q0 -64 -31.5 -121.5t-83 -98t-106.5 -68t-111 -42.5q91 -30 153 -97t62 -159q0 -74 -44 -152.5t-116.5 -143 t-176.5 -106t-214 -41.5q-159 0 -260.5 84.5t-101.5 219.5zM315 307q0 -89 68 -147t182 -58q94 0 181.5 43.5t140.5 115.5t53 149q0 80 -64 141t-186 61q-150 0 -262.5 -95t-112.5 -210zM492 907q0 -77 67.5 -123.5t163.5 -46.5q126 0 229 74t103 168q0 79 -66 124.5 t-164 45.5q-133 0 -233 -75t-100 -167z" />
<glyph unicode="9" d="M186 156q0 60 28.5 94.5t76.5 34.5q40 0 62 -23.5t22 -58.5q0 -46 -33 -74q39 -27 113 -27q147 0 289 129.5t208 313.5q-54 -40 -135.5 -72.5t-175.5 -32.5q-73 0 -132.5 23t-95.5 57.5t-60.5 79t-34 84.5t-9.5 76q0 104 47 200t122.5 164t173 109t196.5 41q64 0 118 -20 t99.5 -62.5t71.5 -118t26 -176.5q0 -44 -6.5 -101.5t-26 -151t-67.5 -198.5t-119 -194q-96 -122 -224.5 -198.5t-266.5 -76.5q-15 0 -28 0.5t-42 4t-52.5 10t-52 19.5t-47.5 31.5t-32 48t-13 65.5zM451 762q0 -14 2.5 -32t14.5 -48.5t32 -54.5t60 -42t93 -18 q158 0 264.5 101.5t106.5 238.5q0 43 -7 81t-24.5 76.5t-55 61.5t-91.5 23q-94 0 -185.5 -52.5t-150.5 -143t-59 -191.5z" />
<glyph unicode=":" d="M440 111q0 62 46 103.5t100 41.5t84 -34.5t30 -76.5q0 -55 -44 -100t-103 -45q-45 0 -79 29.5t-34 81.5zM596 737q0 57 45 101.5t102 44.5q47 0 80 -31.5t33 -79.5q0 -58 -44 -101.5t-103 -43.5q-50 0 -81.5 32t-31.5 78z" />
<glyph unicode=";" d="M313 -221q0 36 43 57q3 1 4 2q120 53 179 162q-28 4 -48.5 16.5t-30.5 26t-15.5 30t-6 24t-0.5 12.5q0 56 42.5 101.5t105.5 45.5q45 0 78.5 -29.5t33.5 -105.5q0 -68 -27 -134t-66.5 -113.5t-85 -84.5t-83.5 -55.5t-59 -18.5q-28 0 -46 22.5t-18 41.5zM596 737 q0 57 45 101.5t102 44.5q47 0 80 -31.5t33 -79.5q0 -58 -44 -101.5t-103 -43.5q-50 0 -81.5 32t-31.5 78z" />
<glyph unicode="&#x3c;" d="M272 627q0 44 50 71l784 424q34 17 49 17q26 0 49 -18t23 -54q0 -45 -51 -72l-701 -379l492 -364q41 -27 41 -66q0 -30 -21.5 -50.5t-50.5 -20.5q-26 0 -55 20l-572 428q-37 28 -37 64z" />
<glyph unicode="=" d="M197 471q0 72 90 72h737q92 0 92 -72t-104 -72h-711q-19 0 -31.5 1.5t-32 7.5t-30 22t-10.5 41zM272 782q0 72 105 72h710q19 0 31.5 -1.5t32.5 -7.5t30.5 -22t10.5 -41q0 -20 -7.5 -34.5t-16 -21.5t-23.5 -10.5t-22.5 -4t-20.5 -0.5h-737q-93 0 -93 71z" />
<glyph unicode="&#x3e;" d="M162 186q0 45 51 72l700 379l-491 364q-41 27 -41 66q0 30 22 51t50 21q25 0 55 -21l571 -428q37 -28 37 -63q0 -46 -49 -72l-784 -424q-32 -16 -50 -16q-27 0 -49 17.5t-22 53.5z" />
<glyph unicode="?" d="M360 965q0 43 31.5 94.5t88.5 100.5t151.5 81.5t206.5 32.5q146 0 228.5 -72.5t82.5 -173.5q0 -72 -47 -145t-148 -129l-217 -121q-71 -39 -91.5 -57.5t-20.5 -49.5q0 -12 6 -17.5t11 -6t15 -0.5q45 0 83 22t51 60q7 19 20.5 28.5t23 11t25.5 1.5q70 0 70 -58 q0 -63 -79 -126.5t-200 -63.5q-37 0 -66 11.5t-45.5 28.5t-27.5 38.5t-14.5 39.5t-3.5 33q0 55 33 109.5t91 85.5l285 156q11 6 25 16t37 30.5t38 48.5t15 56q0 56 -52.5 87.5t-129.5 31.5q-79 0 -166 -31t-135 -92q10 -16 10 -43q0 -43 -30.5 -71.5t-70.5 -28.5 q-37 0 -60.5 25t-23.5 57zM461 92q0 46 35 79.5t79 33.5q36 0 64.5 -24t28.5 -68q0 -46 -36 -79.5t-79 -33.5q-37 0 -64.5 24.5t-27.5 67.5z" />
<glyph unicode="@" d="M225 457q0 152 62 301.5t160.5 259.5t226 178t252.5 68q53 0 96.5 -15t70.5 -37t47.5 -54.5t30 -60.5t15.5 -62.5t7 -53.5t1 -39q0 -89 -31 -237t-86 -252q-45 -86 -133 -161t-186 -75q-93 0 -159.5 74t-66.5 215q0 129 58 252.5t151.5 199.5t190.5 76q86 0 143 -57 q-2 21 -4.5 37t-12 41.5t-24.5 42t-44 29t-68 12.5q-100 0 -205.5 -58t-188 -150.5t-135.5 -217.5t-53 -250q0 -155 82 -252.5t219 -97.5q126 0 242 88q21 14 29.5 17t35.5 3q78 0 78 -57q0 -51 -141 -117q-121 -59 -246 -59q-176 0 -295 127t-119 342zM647 512 q0 -70 29 -120t84 -50q63 0 128.5 58t109.5 152t44 189q0 21 -4.5 46t-15.5 54.5t-35.5 48.5t-58.5 19q-61 0 -126.5 -57.5t-110 -151t-44.5 -188.5z" />
<glyph unicode="A" d="M70 57q0 2 0.5 5.5t2.5 12.5t6 16.5t12 15.5t18 12q10 6 100 6l522 1083q12 24 25.5 39t32 21t31 7t36.5 1q26 0 38.5 -1.5t27.5 -7.5t20.5 -21.5t5.5 -41.5l-18 -1079q26 0 40 -1t32 -6t26 -17.5t8 -32.5q0 -19 -6.5 -33t-14.5 -20.5t-22.5 -10t-23 -4t-23.5 -0.5h-209 q-18 0 -28.5 1t-26 6t-23.5 17.5t-8 32.5q0 50 39 64q10 4 94 4l4 213h-331l-103 -213q25 0 38 -1t31 -6t26 -17.5t8 -32.5q0 -24 -8.5 -39t-25 -20.5t-27.5 -7t-29 -1.5h-209q-17 0 -27.5 1t-27 6t-25 17.5t-8.5 32.5zM518 463h270l27 641l-2 2z" />
<glyph unicode="B" d="M61 57q0 19 6.5 33t14.5 20.5t22 10t22 4t21 0.5h70l250 1001h-41q-82 0 -82 58q0 24 8 39t23.5 20.5t25.5 6.5t27 1h477q138 0 210.5 -72t72.5 -175q0 -65 -27.5 -125t-72.5 -103t-96 -74t-103 -47q80 -20 137 -79.5t57 -159.5q0 -70 -35 -144t-93.5 -134.5t-143 -99 t-176.5 -38.5h-492q-15 0 -25 1t-25.5 6t-23.5 17.5t-8 32.5zM360 125h261q135 0 228 85t93 198q0 20 -3 39.5t-14.5 46t-30.5 46.5t-54 34t-82 14h-281zM508 713h211q76 0 140 26.5t103 67t60.5 85t21.5 85.5q0 11 -1 22.5t-10.5 36.5t-26.5 43t-53.5 32.5t-86.5 14.5h-256 z" />
<glyph unicode="C" d="M213 434q0 152 57.5 305.5t150 270.5t215 190.5t245.5 73.5q144 0 247 -100q5 6 43 59q19 25 31 33t35 8q31 0 46 -18t15 -39q0 -11 -6 -29l-75 -305q-10 -39 -27 -50.5t-47 -11.5q-13 0 -25.5 2t-29.5 16.5t-17 41.5q0 2 2 16.5t2 38.5q0 97 -50.5 155t-137.5 58 q-92 0 -188.5 -63t-172 -162t-124 -230t-48.5 -258q0 -89 25.5 -162.5t83 -122.5t137.5 -49q24 0 54 5.5t73.5 23t81.5 45t75 78t58 115.5q6 20 20 30t24 11.5t26 1.5q69 0 69 -58q0 -34 -21.5 -81t-65.5 -99t-101 -96t-138 -72.5t-167 -28.5q-115 0 -201.5 62.5t-130 165.5 t-43.5 229z" />
<glyph unicode="D" d="M53 57q0 19 6.5 33t14.5 20.5t22 10t22 4t21 0.5h60l250 1001q-31 0 -46.5 1t-33.5 6.5t-25.5 17.5t-7.5 33q0 24 8 39t23.5 20.5t25.5 6.5t27 1h438q71 0 128 -26.5t92 -68.5t58.5 -98.5t32.5 -111.5t9 -112q0 -148 -53 -299.5t-139 -269t-203 -191.5t-236 -74h-410 q-84 0 -84 57zM342 125h197q98 0 191 62.5t158 159.5t104.5 217.5t39.5 234.5q0 24 -2.5 50.5t-10 67t-24.5 74.5t-42.5 66t-68 50.5t-96.5 18.5h-196z" />
<glyph unicode="E" d="M68 57q0 19 6.5 33t14.5 20.5t22 10t22 4t21 0.5h75l250 1001h-47q-82 0 -82 58q0 24 8 39t23.5 20.5t25.5 6.5t27 1h766q84 0 84 -57q0 -7 -6 -31l-43 -172q-8 -34 -24.5 -45.5t-47.5 -11.5q-71 0 -71 57q0 3 5 25.5t13.5 58.5t11.5 51h-499l-103 -415h266 q20 80 32.5 98t53.5 18q72 0 72 -57q0 -1 -6 -37l-51 -203q-9 -36 -25.5 -48.5t-48.5 -12.5q-42 0 -57 17.5t-15 39.5q0 14 13 60h-267l-114 -461h545l34 135q13 56 26 73t54 17q42 0 57 -17.5t15 -39.5q0 -10 -30.5 -132t-35.5 -130q-11 -21 -27 -26t-48 -5h-811 q-84 0 -84 57z" />
<glyph unicode="F" d="M72 57q0 19 6.5 33t14.5 20.5t22 10t22 4t21 0.5h82l249 1001h-53q-82 0 -82 58q0 24 8 39t23.5 20.5t25.5 6.5t27 1h783q84 0 84 -57q0 -3 -7 -31l-43 -172q-8 -35 -24.5 -46t-46.5 -11q-72 0 -72 57q0 3 5.5 26t13.5 57.5t12 51.5h-510l-109 -438h277q20 79 33 98 t55 19q33 0 51 -15t18 -42q0 -16 -20 -89q-9 -46 -23 -92q-21 -84 -33 -102.5t-55 -18.5q-71 0 -71 58q0 10 14 59h-276l-111 -438h90q84 0 84 -57q0 -19 -7 -33t-15 -20.5t-22.5 -10t-22 -4t-19.5 -0.5h-315q-84 0 -84 57z" />
<glyph unicode="G" d="M207 420q0 151 55 306.5t142 275.5t203.5 196t232.5 76q138 0 223 -94q7 9 20.5 28.5t20.5 28.5q12 15 17.5 20.5t16.5 11t27 5.5q31 0 46.5 -18t15.5 -39q0 -11 -6 -29l-76 -305q-10 -39 -27 -50.5t-47 -11.5q-13 0 -25.5 2t-29.5 16.5t-17 41.5q7 45 7 65t-2.5 42 t-13 52t-27 53t-47.5 39.5t-72 16.5q-81 0 -170.5 -64t-161 -165t-118 -236t-46.5 -266q0 -84 21 -153.5t69.5 -116t116.5 -46.5q96 0 184.5 90t141.5 236h-70q-15 0 -25 1t-25.5 6t-23.5 17.5t-8 32.5q0 19 6.5 33t14.5 20.5t22 10t22 4t21 0.5h244q15 0 25 -1t25.5 -6 t23.5 -17.5t8 -32.5t-6 -33t-14 -20t-25.5 -10.5t-29 -4t-36.5 -0.5l-92 -371q-8 -34 -24.5 -45.5t-47.5 -11.5q-70 0 -70 58q0 8 1 16q-117 -97 -252 -97q-153 0 -245.5 124.5t-92.5 318.5z" />
<glyph unicode="H" d="M59 57q0 24 8 39t23.5 20.5t25.5 7t27 1.5h66l250 1001h-35q-84 0 -84 58q0 19 6.5 33t14.5 20.5t22 9.5t21.5 3.5t21.5 0.5h244q15 0 25 -1t25.5 -6t23.5 -17.5t8 -32.5q0 -19 -6.5 -33t-14.5 -20.5t-22 -10t-22 -4t-21 -0.5h-64l-102 -413h432l102 413q-32 0 -48 1 t-34.5 6.5t-26 17.5t-7.5 33q0 19 6.5 33t14.5 20.5t22 9.5t21.5 3.5t21.5 0.5h243q15 0 25 -1t25.5 -6t23.5 -17.5t8 -32.5q0 -19 -6.5 -33t-14.5 -20.5t-22 -10t-22 -4t-21 -0.5h-63l-250 -1001h35q84 0 84 -57q0 -19 -7 -33t-15 -20.5t-22.5 -10t-22 -4t-19.5 -0.5h-244 q-15 0 -25 1t-25.5 6t-23.5 17.5t-8 32.5q0 24 8 39t23.5 20.5t25.5 7t27 1.5h63l117 463h-432l-117 -463h35q84 0 84 -57q0 -19 -7 -33t-15 -20.5t-22.5 -10t-22 -4t-19.5 -0.5h-244q-15 0 -25 1t-25.5 6t-23.5 17.5t-8 32.5z" />
<glyph unicode="I" d="M176 57q0 19 6.5 33t14.5 20.5t22 10t22 4t21 0.5h236l250 1001h-207q-82 0 -82 58q0 24 8 39t23.5 20.5t25.5 6.5t27 1h585q84 0 84 -57q0 -19 -7 -33t-15 -20.5t-22.5 -10t-22 -4t-19.5 -0.5h-235l-250 -1001h207q15 0 25 -1t25.5 -6t23.5 -17.5t8 -32.5 q0 -19 -6.5 -33t-14.5 -20.5t-22 -10t-22 -4t-21 -0.5h-584q-84 0 -84 57z" />
<glyph unicode="J" d="M193 174q0 60 30 92.5t74 32.5q39 0 61.5 -24t22.5 -58q0 -47 -33 -74q49 -41 150 -41q88 0 166 49.5t100 135.5l209 839h-152q-82 0 -82 58q0 24 8 39t23.5 20.5t25.5 6.5t27 1h373q84 0 84 -57q0 -19 -7 -33t-15 -20.5t-22.5 -10t-22 -4t-19.5 -0.5h-76l-217 -874 q-27 -110 -142 -192.5t-263 -82.5q-138 0 -220.5 54t-82.5 143z" />
<glyph unicode="K" d="M68 57q0 19 6.5 33t14.5 20.5t22 10t22 4t21 0.5h59l250 1001q-31 0 -46.5 1t-33.5 6.5t-25.5 17.5t-7.5 33q0 24 8 39t23.5 20.5t25.5 6.5t27 1h207q84 0 84 -57q0 -19 -7 -33t-15 -20.5t-22.5 -10t-22 -4t-19.5 -0.5h-59l-136 -542l570 542q-39 0 -54.5 18.5 t-15.5 39.5q0 19 6.5 33t14.5 20.5t22 9.5t21.5 3.5t21.5 0.5h180q84 0 84 -57q0 -19 -7 -33t-15 -20.5t-22.5 -10t-22 -4t-19.5 -0.5h-47l-411 -393l190 -608q20 0 31.5 -1t28 -6t24.5 -17.5t8 -32.5q0 -19 -6.5 -33t-14.5 -20.5t-22 -10t-22 -4t-21 -0.5h-153 q-84 0 -84 57q0 32 17 48t33.5 18t47.5 2l-160 512l-248 -238l-69 -274q26 0 38 -0.5t29.5 -3t25 -8.5t13.5 -17t6 -28q0 -19 -6.5 -33t-14.5 -20.5t-22 -10t-22 -4t-21 -0.5h-204q-84 0 -84 57z" />
<glyph unicode="L" d="M80 57q0 24 8 39t23.5 20.5t25.5 7t27 1.5h90l250 1001h-60q-84 0 -84 58q0 19 6.5 33t14.5 20.5t22 9.5t21.5 3.5t21.5 0.5h332q15 0 25 -1t25.5 -6t23.5 -17.5t8 -32.5q0 -24 -8 -39t-23.5 -20.5t-25.5 -7t-27 -1.5h-129l-250 -1001h492l35 135q15 58 27.5 74t52.5 16 q71 0 71 -57q0 -7 -31 -131.5t-34 -130.5q-11 -21 -28 -26t-48 -5h-772q-15 0 -25 1t-25.5 6t-23.5 17.5t-8 32.5z" />
<glyph unicode="M" d="M49 57q0 19 6.5 33t14.5 20.5t22 10t22 4t21 0.5h39l250 1001q-20 0 -32 1t-28.5 6t-25 18t-8.5 33q0 19 7 33t15 20t22.5 9.5t21.5 4t20 0.5h57q98 0 125 -7.5t33 -43.5q1 -3 12.5 -130t23 -285t11.5 -220h2q41 87 143 260l213 365q13 22 28.5 35.5t33.5 18.5t29.5 6 t29.5 1h98q84 0 84 -57q0 -19 -6.5 -33t-14.5 -20.5t-22 -10t-22 -4t-21 -0.5h-39l-249 -1001q20 0 31.5 -1t28 -6t24.5 -17.5t8 -32.5q0 -24 -8 -39t-23.5 -20.5t-25.5 -7t-27 -1.5h-168q-15 0 -25 1t-25.5 6t-23.5 17.5t-8 32.5q0 19 6.5 33t14.5 20.5t22 10t22 4t21 0.5 h37l241 967h-2q-67 -131 -102 -189l-246 -422q-16 -27 -39.5 -43t-39.5 -18l-15 -2q-18 0 -29.5 5.5t-18.5 12.5t-11 27.5t-6 36t-5 51.5l-16 184q-20 272 -20 330v33h-2l-244 -973q20 0 31.5 -1t28 -6t24.5 -17.5t8 -32.5q0 -24 -8 -39t-23.5 -20.5t-25.5 -7t-27 -1.5h-168 q-15 0 -25 1t-25.5 6t-23.5 17.5t-8 32.5z" />
<glyph unicode="N" d="M72 57q0 24 8 39t23.5 20.5t25.5 7t27 1.5h65l250 1001h-35q-84 0 -84 58q0 19 6.5 33t14.5 20.5t22 9.5t21.5 3.5t21.5 0.5h82q109 0 133.5 -10t30.5 -65l123 -1018h2l240 968q-26 0 -39 0.5t-31 3.5t-26 9t-14.5 17t-6.5 28q0 19 6.5 33t14.5 20.5t22 9.5t21.5 3.5 t21.5 0.5h217q15 0 25 -1t25.5 -6t23.5 -17.5t8 -32.5q0 -19 -6.5 -33t-14.5 -20.5t-22 -10t-22 -4t-21 -0.5h-64l-264 -1063q-6 -23 -13 -36.5t-19.5 -19t-22.5 -6.5t-31 -1h-20q-30 0 -48.5 4.5t-27 17.5t-11 22t-5.5 32l-123 1018h-2l-242 -969h35q84 0 84 -57 q0 -19 -7 -33t-15 -20.5t-22.5 -10t-22 -4t-19.5 -0.5h-217q-15 0 -25 1t-25.5 6t-23.5 17.5t-8 32.5z" />
<glyph unicode="O" d="M188 174q0 122 74 420.5t123 417.5q46 113 98.5 167t134.5 74.5t238 20.5q79 0 129.5 -4t95.5 -15.5t68.5 -33t37 -57t13.5 -87.5q0 -119 -75 -422t-130 -432q-34 -80 -69 -127t-90.5 -74.5t-123.5 -36t-180 -8.5q-80 0 -132 4t-95.5 16t-67.5 34t-36.5 57t-12.5 86z M342 244q0 -79 47 -110.5t174 -31.5q57 0 98.5 5t74.5 18.5t55 31t42.5 50t35.5 66.5t34 89q31 95 88.5 323t57.5 325q0 85 -47.5 112t-178.5 27q-67 0 -111.5 -6.5t-79.5 -22t-60 -47t-45 -73.5t-42 -111q-33 -95 -88 -322.5t-55 -322.5z" />
<glyph unicode="P" d="M68 57q0 19 6.5 33t14.5 20.5t22 10t22 4t21 0.5h75l250 1001h-47q-82 0 -82 58q0 24 8 39t23.5 20.5t25.5 6.5t27 1h475q79 0 140.5 -26t97 -68t53 -90.5t17.5 -99.5q0 -81 -39.5 -164.5t-104.5 -150t-158.5 -108.5t-193.5 -42h-254l-94 -377h47q15 0 25 -1t25.5 -6 t23.5 -17.5t8 -32.5q0 -19 -6.5 -33t-14.5 -20.5t-22 -10t-22 -4t-21 -0.5h-264q-84 0 -84 57zM500 627h215q149 0 251.5 96t102.5 207q0 82 -57.5 139t-171.5 57h-217z" />
<glyph unicode="Q" d="M188 174q0 122 74 420.5t123 417.5q46 113 98.5 167t134.5 74.5t238 20.5q79 0 129.5 -4t95.5 -15.5t68.5 -33t37 -57t13.5 -87.5q0 -153 -123 -606q-36 -132 -68.5 -218.5t-67 -134.5t-63.5 -70t-73 -40q3 -10 20.5 -71t32 -114.5t14.5 -58.5q0 -49 -75 -49h-19 q-21 0 -30.5 1t-19.5 7.5t-15 20.5l-66 236q-35 -3 -115 -3t-132 4t-95.5 16t-67.5 34t-36.5 57t-12.5 86zM342 246q0 -28 1.5 -42t12 -37t30.5 -34.5t60.5 -21t98.5 -9.5h67l-51 199q0 49 76 49h22q22 0 30 -1t13.5 -5t8.5 -14q9 -27 55 -191q17 9 27.5 17t29.5 32t35 59.5 t39 101t47 155.5q103 369 103 504q0 81 -45.5 111t-178.5 30q-67 0 -113 -8t-78.5 -23t-57 -46t-41.5 -65.5t-39 -93.5q-32 -84 -92 -324.5t-60 -342.5z" />
<glyph unicode="R" d="M59 57q0 24 8 39t23.5 20.5t25.5 7t27 1.5h66l250 1001h-35q-84 0 -84 58q0 19 6.5 33t14.5 20.5t22 9.5t21.5 3.5t21.5 0.5h377q147 0 234 -76.5t87 -195.5q0 -104 -72 -204t-190 -157q78 -78 78 -172q0 -23 -27 -139q-32 -117 -32 -166q0 -22 4.5 -30.5t17.5 -8.5 q24 0 43.5 29t32.5 76q7 23 20 34.5t23 13t29 1.5q69 0 69 -57q0 -19 -14 -53.5t-39 -73.5t-69.5 -67t-96.5 -28q-18 0 -36.5 3.5t-41.5 15t-40.5 30t-29.5 52.5t-12 78q0 57 27 149q1 3 11 40.5t15 62.5t5 38q0 49 -37 83t-127 34h-172l-111 -438h35q84 0 84 -57 q0 -19 -7 -33t-15 -20.5t-22.5 -10t-22 -4t-19.5 -0.5h-244q-15 0 -25 1t-25.5 6t-23.5 17.5t-8 32.5zM494 688h147q141 0 239.5 81.5t98.5 180.5q0 73 -56.5 124.5t-172.5 51.5h-148z" />
<glyph unicode="S" d="M115 35q0 7 21 93t42 168l21 83q14 37 67 37q41 0 56.5 -18t15.5 -40l-4 -18q-8 -46 -8 -64q0 -48 23 -83.5t63.5 -54.5t85.5 -27.5t98 -8.5q130 0 230 92t100 201q0 26 -6 47.5t-13.5 36.5t-24 28t-28 20.5t-35 15.5t-35.5 11.5t-39 10.5l-137 35q-35 8 -60.5 15.5 t-69 29t-72 49t-50.5 76.5t-22 109q0 100 62.5 191.5t169 147.5t227.5 56q172 0 270 -98q13 26 35 59q10 20 22.5 29.5t36.5 9.5q31 0 46.5 -18t15.5 -39q0 -8 -7 -29l-73 -295q-8 -34 -24.5 -45.5t-47.5 -11.5q-72 0 -72 59q0 5 2 22.5t2 36.5q0 195 -211 195 q-126 0 -222.5 -81.5t-96.5 -176.5q0 -32 12 -57t27.5 -40t44 -27.5t49.5 -18t55 -13.5l205 -51q85 -27 143 -100t58 -176q0 -75 -36 -151.5t-97 -138.5t-150.5 -101.5t-187.5 -39.5q-208 0 -324 97q-4 -7 -19.5 -34t-15.5 -28q-23 -35 -57 -35q-30 0 -45.5 19t-15.5 39z " />
<glyph unicode="T" d="M293 57q0 24 8 39t23.5 20.5t25.5 7t27 1.5h121l250 1001h-271l-33 -135q-9 -33 -24.5 -45t-46.5 -12q-72 0 -72 57q0 11 6 31l41 166q6 23 13 36.5t19 19t22 6.5t32 1h803q84 0 84 -57q0 -7 -6 -31l-43 -172q-8 -34 -24.5 -45.5t-47.5 -11.5q-72 0 -72 57q0 3 5.5 26 t13.5 57.5t12 51.5h-268l-250 -1001h90q84 0 84 -57q0 -19 -7 -33t-15 -20.5t-22.5 -10t-22 -4t-19.5 -0.5h-354q-15 0 -25 1t-25.5 6t-23.5 17.5t-8 32.5z" />
<glyph unicode="U" d="M244 309q0 59 16 125l172 692h-45q-82 0 -82 58q0 24 8 39t23.5 20.5t25.5 6.5t27 1h266q84 0 84 -57q0 -19 -7 -33t-15 -20.5t-22.5 -10t-22 -4t-19.5 -0.5h-75l-181 -725q-12 -55 -12 -94q0 -93 45 -149t119 -56q101 0 202.5 95.5t135.5 234.5l172 694h-45 q-82 0 -82 58q0 24 8 39t23.5 20.5t25.5 6.5t27 1h266q84 0 84 -57q0 -19 -7 -33t-15 -20.5t-22.5 -10t-22 -4t-19.5 -0.5h-76l-180 -727q-41 -167 -179.5 -294.5t-297.5 -127.5q-133 0 -218 94.5t-85 237.5z" />
<glyph unicode="V" d="M334 1184q0 24 8 39t23.5 20.5t25.5 6.5t27 1h211q84 0 84 -57q0 -19 -7 -33t-15 -20.5t-22.5 -10t-22 -4t-19.5 -0.5h-47q2 -20 2 -63v-664q0 -176 -9 -247l2 -2q15 35 39.5 85.5t57 116t41.5 84.5l344 690q-23 0 -36 1t-30 6t-25 18t-8 33q0 24 8 39t23.5 20.5 t25.5 6.5t27 1h211q84 0 84 -57q0 -19 -7 -33t-15 -20.5t-22.5 -10t-22 -4t-19.5 -0.5h-47l-545 -1075q-13 -25 -25.5 -39t-30.5 -20t-30 -7t-38 -1q-35 0 -53.5 3t-28 16.5t-11 27t-2.5 47.5v141l-6 840v67q-32 0 -49.5 2t-34 15.5t-16.5 40.5z" />
<glyph unicode="W" d="M260 35l4 26l117 1065q-26 2 -41 14.5t-18 22.5t-3 21q0 19 6.5 33t14.5 20.5t22.5 9.5t22 3.5t21.5 0.5h161q15 0 25 -1t25.5 -6t23.5 -17.5t8 -32.5q0 -19 -6.5 -33t-14.5 -20.5t-22 -10t-22 -4t-21 -0.5h-65l-82 -716q-22 -181 -37 -254h2q35 108 197 442 q52 106 70 127q32 26 77 27q16 0 25.5 -1.5t22.5 -7t19.5 -21t6.5 -40.5l-8 -293q-12 -194 -21 -233h2l115 309l254 661h-37q-84 0 -84 58q0 19 6.5 33t14.5 20.5t22 9.5t21.5 3.5t21.5 0.5h162q15 0 25 -1t25.5 -6t23.5 -17.5t8 -32.5q0 -24 -8 -39t-24.5 -20.5t-28.5 -7 t-34 -1.5l-415 -1071q-24 -71 -99 -71q-26 0 -41.5 5.5t-21.5 20t-7 25.5t-1 37l8 290q3 173 10 238l-2 2q-20 -62 -108 -242l-107 -229q-49 -100 -70 -123.5t-73 -23.5q-68 0 -68 51z" />
<glyph unicode="X" d="M70 57q0 19 6.5 33t14.5 20.5t22 10t22 4t21 0.5h59l408 541l-131 460h-35q-82 0 -82 58q0 19 6.5 33t14.5 20.5t22 9.5t21.5 3.5t21.5 0.5h213q15 0 25 -1t25.5 -6t23.5 -17.5t8 -32.5t-6.5 -33.5t-14.5 -20t-24.5 -10t-27.5 -4t-34 -0.5l84 -299l221 299q-80 0 -80 58 q0 24 9 39t25.5 20.5t26.5 6.5t26 1h213q15 0 25 -1t25 -6t23 -17.5t8 -32.5q0 -24 -8 -39t-23.5 -20.5t-25.5 -7t-27 -1.5h-61l-346 -460l154 -541q26 0 38.5 -0.5t31 -3t26 -8.5t14 -17t6.5 -28q0 -19 -6.5 -33t-14.5 -20.5t-22 -10t-22 -4t-21 -0.5h-213q-15 0 -25 1 t-25.5 6t-23.5 17.5t-8 32.5q0 24 7.5 39t25.5 21t32 7t44 1l-105 397l-286 -397q80 0 80 -57q0 -19 -6.5 -33t-14.5 -20.5t-22 -10t-22 -4t-21 -0.5h-211q-84 0 -84 57z" />
<glyph unicode="Y" d="M334 1184q0 19 6.5 33t14.5 20.5t22 9.5t21.5 3.5t21.5 0.5h213q15 0 25 -1t25.5 -6t23.5 -17.5t8 -32.5t-6.5 -33.5t-14.5 -20t-25.5 -10t-29 -4t-35.5 -0.5q66 -312 79.5 -379.5t16.5 -103.5q33 67 129 201l205 282q-80 0 -80 58q0 19 6.5 33t14.5 20.5t22 9.5 t21.5 3.5t21.5 0.5h213q15 0 25 -1t25.5 -6t23.5 -17.5t8 -32.5q0 -19 -6.5 -33t-14.5 -20.5t-22 -10t-22 -4t-21 -0.5h-57l-459 -626l-94 -375h37q84 0 84 -57q0 -19 -7 -33t-15 -20.5t-22.5 -10t-22 -4t-19.5 -0.5h-244q-15 0 -25 1t-25.5 6t-23.5 17.5t-8 32.5q0 24 8 39 t23.5 20.5t25.5 7t27 1.5h66l94 375l-146 626q-24 0 -36.5 0.5t-29.5 3.5t-25.5 9t-14.5 17t-6 28z" />
<glyph unicode="Z" d="M111 45q0 19 8 36.5t13.5 24.5t19.5 23l923 997h-528l-33 -135q-9 -33 -24.5 -45t-47.5 -12q-71 0 -71 57q0 11 6 31l41 166q6 23 13 36.5t19 19t22 6.5t32 1h702q22 0 34 -1.5t25 -12t13 -31.5q0 -43 -37 -80l-928 -1001h561l35 141q14 57 27.5 73.5t54.5 16.5 q72 0 72 -57q0 -8 -32 -133.5t-36 -134.5q-11 -21 -27 -26t-48 -5h-738q-13 0 -20.5 0.5t-18.5 2.5t-17 6.5t-10.5 13.5t-4.5 22z" />
<glyph unicode="[" d="M426 -113q0 5 6 35l361 1440q4 17 10.5 28.5t12.5 17.5t18 9t20 3.5t25 0.5h370q84 0 84 -57q0 -19 -7 -33t-15 -20.5t-22.5 -10t-22 -4t-19.5 -0.5h-325l-336 -1341h297q84 0 84 -57q0 -19 -7 -33t-15 -20.5t-22.5 -10t-22 -4t-19.5 -0.5h-371q-84 0 -84 57z" />
<glyph unicode="\" d="M457 1350q0 31 21 51t50 20q59 0 74 -78l322 -1400l8 -41q0 -29 -20.5 -50.5t-51.5 -21.5q-20 0 -34.5 7t-22 20.5t-11 23.5t-6.5 25l-321 1401q-8 33 -8 43z" />
<glyph unicode="]" d="M55 -113q0 19 6.5 33t14.5 20.5t22 10t22 4t21 0.5h326l334 1341h-295q-84 0 -84 58q0 19 6.5 33t14.5 20.5t22 9.5t21.5 3.5t21.5 0.5h371q84 0 84 -57q0 -8 -7 -29l-360 -1444q-5 -22 -12.5 -35t-20.5 -18.5t-22.5 -6.5t-30.5 -1h-371q-84 0 -84 57z" />
<glyph unicode="^" d="M558 1016q-14 30 15 65q17 20 45 31l400 162q29 10 49 0l268 -162q23 -21 12.5 -51.5t-46 -52.5t-62.5 -7l-254 134l-364 -134q-49 -18 -63 15z" />
<glyph unicode="_" d="M47 -270q0 71 96 71h654q96 0 96 -71q0 -72 -96 -72h-654q-96 0 -96 72z" />
<glyph unicode="`" d="M623 1206q14 31 43 49.5t57 18.5q12 0 35 -10l243 -123q15 -7 21.5 -12.5t10.5 -18t-7 -29.5q-11 -24 -38.5 -53t-63.5 -29q-5 0 -31 11l-248 120q-49 24 -22 76z" />
<glyph unicode="a" d="M258 303q0 140 62.5 278t165.5 226t210 88q99 0 172 -82q6 17 25.5 34t46.5 17t47.5 -18.5t20.5 -48.5q0 -6 -9 -41l-133 -535q-8 -32 -8 -49q0 -59 43 -59q19 0 37 32t27.5 63t15.5 58q7 28 11.5 40t13 25t21.5 17t34 4q24 0 40.5 -7.5t22.5 -18.5t7.5 -18t1.5 -13 q0 -17 -21 -84.5t-47 -112.5q-65 -110 -166 -110q-39 0 -71 13t-51.5 32.5t-30 34.5t-15.5 28q-19 -19 -43.5 -38.5t-79.5 -44.5t-108 -25q-105 0 -173.5 85.5t-68.5 229.5zM397 295q0 -21 4 -47.5t14 -59t33 -54t54 -21.5q61 0 130 68t117 180t48 225q0 77 -26 130.5 t-79 53.5q-61 0 -130 -69.5t-117 -182t-48 -223.5z" />
<glyph unicode="b" d="M264 1184q0 19 7 33t15 20t22.5 9.5t21.5 4t20 0.5h191q84 0 84 -57l-7 -35l-86 -342q108 78 213 78q120 0 196.5 -91.5t76.5 -236.5q0 -140 -67 -275t-176.5 -219.5t-225.5 -84.5q-114 0 -192 88t-78 239q0 68 16 134l170 677h-117q-84 0 -84 58zM418 309 q0 -45 11 -86.5t43.5 -75.5t80.5 -34q70 0 145.5 65t127 173t51.5 220q0 90 -37 144.5t-97 54.5q-71 0 -146.5 -66t-127 -175t-51.5 -220z" />
<glyph unicode="c" d="M281 334q0 139 75 270t196.5 211t250.5 80q109 0 177.5 -56t68.5 -139q0 -55 -29.5 -90t-75.5 -35q-35 0 -59.5 21.5t-24.5 60.5q0 51 35 76q-32 37 -96 37q-87 0 -174.5 -62t-145 -165t-57.5 -211q0 -62 19 -106.5t42.5 -65.5t58.5 -32.5t52 -13t39 -1.5q104 0 178 17.5 t100.5 34t55.5 42.5q24 18 45 18q25 0 48 -23.5t23 -49.5q0 -31 -39.5 -62.5t-75 -47.5t-61.5 -24q-93 -30 -266 -30q-46 0 -76.5 2.5t-84 22t-91.5 57.5q-108 103 -108 264z" />
<glyph unicode="d" d="M258 303q0 140 62.5 278t165.5 226t210 88q99 0 172 -82l78 313h-90q-84 0 -84 58q0 19 6.5 33t14.5 20.5t22 9.5t21.5 3.5t21.5 0.5h166q84 0 84 -57q0 -5 -6 -35l-236 -938q-8 -32 -8 -49q0 -59 43 -59q19 0 37 32t27.5 63t15.5 58q7 28 11.5 40t13 25t21.5 17t34 4 q24 0 40.5 -7.5t22.5 -18.5t7.5 -18t1.5 -13q0 -17 -21 -84.5t-47 -112.5q-65 -110 -166 -110q-39 0 -71 13t-51.5 32.5t-30 34.5t-15.5 28q-19 -19 -43.5 -38.5t-79.5 -44.5t-108 -25q-105 0 -173.5 85.5t-68.5 229.5zM397 295q0 -21 4 -47.5t14 -59t33 -54t54 -21.5 q61 0 130 68t117 180t48 225q0 77 -26 130.5t-79 53.5q-61 0 -130 -69.5t-117 -182t-48 -223.5z" />
<glyph unicode="e" d="M283 338q0 144 76.5 274t196.5 206.5t247 76.5q112 0 183 -60.5t71 -152.5q0 -17 -2.5 -35.5t-13 -48t-28 -55.5t-52 -54.5t-80.5 -48.5q-118 -53 -349 -53h-67q-29 0 -35 -7.5t-6 -45.5q0 -45 10 -81.5t24 -59t36 -39t39.5 -24t40.5 -12t34 -5t25 -0.5q104 0 178 17.5 t100.5 34t55.5 42.5q24 18 45 18q25 0 48 -23.5t23 -49.5q0 -31 -39.5 -62.5t-75 -47.5t-61.5 -24q-93 -30 -266 -30q-40 0 -63 2t-60.5 9.5t-71.5 28.5t-67 54q-96 93 -96 256zM463 512h61q391 0 391 170q0 40 -32 64t-84 24q-91 0 -187.5 -71t-148.5 -187z" />
<glyph unicode="f" d="M92 -317q0 45 30 78.5t73 33.5q32 0 58 -20t26 -62q0 -29 -13 -49q24 -6 51 -6q35 0 65.5 33.5t54 96.5t41 135.5t34.5 168.5l117 666h-119q-15 0 -25 1t-25.5 6t-23.5 17.5t-8 32.5q0 24 8 39t23.5 20.5t25.5 7t27 1.5h137q8 39 12 62.5t5 29t3 17t7 34.5q5 28 8.5 44.5 t13 45t20.5 46t30.5 39t43.5 34t60 21t80 8.5q119 0 178 -42t59 -108q0 -51 -30 -82t-72 -31q-35 0 -59.5 23.5t-24.5 58.5q0 16 4 29.5t4 15.5q0 5 -25 8t-38 3q-55 0 -73.5 -20.5t-29.5 -67.5q-6 -21 -32 -168h159q84 0 84 -58q0 -19 -7 -33t-15 -20t-22.5 -9.5t-21.5 -4 t-20 -0.5h-178l-129 -733q-28 -161 -70 -273q-9 -27 -28 -60t-50.5 -71t-79 -63t-100.5 -25q-100 0 -161.5 40.5t-61.5 109.5z" />
<glyph unicode="g" d="M139 -336q0 46 30.5 77.5t72.5 31.5q37 0 60.5 -25t23.5 -57q0 -17 -4 -29q35 -4 90 -4q53 0 98.5 11.5t76 31.5t54 40.5t38 43.5t21 36t9.5 23l57 232q-109 -76 -213 -76q-116 0 -194 88.5t-78 237.5q0 139 67 271.5t176 215t224 82.5q121 0 198 -96q6 28 27.5 46.5 t48.5 18.5t47.5 -18.5t20.5 -48.5q0 -6 -9 -41l-227 -916q-9 -35 -27.5 -72.5t-55.5 -81t-84.5 -76.5t-120.5 -55t-158 -22q-28 0 -44 0.5t-48 3t-52.5 7t-46.5 14t-41 23t-26 35t-11 48.5zM422 322q0 -84 34.5 -140.5t98.5 -56.5q72 0 148 66t126 171.5t50 210.5 q0 46 -12 88t-44 75.5t-80 33.5q-72 0 -146.5 -64.5t-124.5 -170t-50 -213.5z" />
<glyph unicode="h" d="M180 55q0 12 8 41l258 1030h-92q-84 0 -84 58q0 19 6.5 33t14.5 20.5t22 9.5t21.5 3.5t21.5 0.5h166q84 0 84 -57q0 -5 -6 -35l-86 -344q36 30 95.5 55t133.5 25q100 0 162 -56.5t62 -164.5q0 -104 -115 -430q-18 -44 -21.5 -57t-3.5 -31q0 -22 5.5 -32.5t23.5 -10.5 q35 0 71.5 47t59.5 127q9 35 22.5 50t51.5 15q24 0 40.5 -7.5t22.5 -18.5t7.5 -18t1.5 -13q0 -20 -17.5 -66t-49.5 -102t-90 -97.5t-126 -41.5q-72 0 -118 48.5t-46 123.5q0 37 23 100q116 316 116 416q0 44 -17.5 69t-66.5 25q-38 0 -73 -14.5t-63.5 -36t-56.5 -60.5 t-48.5 -73.5t-43 -90.5t-37 -96t-33.5 -105.5t-29 -103.5t-27 -104q-6 -24 -10.5 -37.5t-13.5 -29.5t-23.5 -23.5t-34.5 -7.5q-27 0 -47.5 18.5t-20.5 48.5z" />
<glyph unicode="i" d="M293 588q0 28 22.5 77t61 101.5t103.5 90.5t138 38q84 0 141.5 -50.5t57.5 -129.5q0 -26 -6 -46t-31 -83l-49 -123l-65 -164q-45 -121 -45 -131q0 -29 17.5 -42t43.5 -13q49 0 101 50t77 136q5 17 10 26t20.5 18t41.5 9q24 0 40.5 -7.5t22.5 -18.5t7.5 -18t1.5 -13 q0 -21 -13.5 -57t-41.5 -79.5t-65.5 -81.5t-92 -63.5t-113.5 -25.5q-84 0 -141.5 50t-57.5 130q0 36 17 82l170 422q10 30 10 43q0 26 -17 40.5t-45 14.5q-18 0 -39 -8.5t-47 -27.5t-51.5 -58.5t-42.5 -93.5q-9 -27 -23 -39.5t-49 -12.5q-28 0 -44.5 12t-20.5 23.5t-4 22.5z M729 1130q0 37 30 68t70 31q35 0 59.5 -23t24.5 -61q0 -43 -31 -70.5t-67 -27.5q-40 0 -63 25.5t-23 57.5z" />
<glyph unicode="j" d="M186 -336q0 46 30.5 77.5t72.5 31.5q37 0 60.5 -25t23.5 -57q0 -8 -2 -15.5t-2 -9.5q0 -8 34 -8q50 0 96.5 28.5t77 71t50.5 83t28 73.5l185 743q8 31 8 43q0 35 -21.5 52.5t-54.5 17.5q-56 0 -119.5 -48.5t-103.5 -139.5q-12 -29 -25.5 -40.5t-48.5 -11.5 q-28 0 -44.5 12t-20.5 23.5t-4 22.5q0 19 16 54.5t49 79t76 82.5t104 65t125 26q91 0 152 -54.5t61 -140.5q0 -28 -8 -61l-184 -741q-12 -46 -34 -94.5t-58 -97.5t-80 -87t-103.5 -62t-124.5 -24q-17 0 -32 1t-42 4.5t-48.5 12.5t-43 22.5t-33.5 37t-12 53.5zM924 1130 q0 37 30 68t70 31q35 0 59.5 -23t24.5 -61q0 -43 -31 -70.5t-67 -27.5q-40 0 -63 25.5t-23 57.5z" />
<glyph unicode="k" d="M199 55q0 12 8 41l258 1030h-117q-84 0 -84 58q0 19 7 33t15 20t22.5 9.5t21.5 4t20 0.5h191q84 0 84 -57l-7 -35l-155 -618q69 38 186 168q175 186 320 186q68 0 102.5 -44.5t34.5 -117.5q0 -26 -3.5 -49.5t-13.5 -54.5t-34 -49.5t-60 -18.5q-35 0 -59.5 23t-24.5 59 q0 53 47 84q9 9 9 43q-25 -1 -44.5 -6t-63.5 -32.5t-95 -78.5q-1 -1 -25 -26t-50.5 -52.5t-53 -54t-35.5 -33.5q211 -58 211 -217q0 -30 -5 -51.5t-5 -36.5q0 -28 13 -44.5t25 -20.5t25 -4q26 0 49 21.5t38.5 55.5t23 55t12.5 42q6 23 11.5 34.5t21 21t41.5 9.5 q24 0 40.5 -7.5t22.5 -18.5t7.5 -18t1.5 -13q0 -11 -8.5 -42t-29.5 -77t-50.5 -87.5t-78 -71t-104.5 -29.5q-81 0 -142 53t-61 143q0 27 5.5 48.5t5.5 35.5q0 27 -20 48.5t-46.5 33t-64 20t-63 11t-52.5 4.5l-82 -328q-18 -69 -76 -69q-27 0 -47 18.5t-20 48.5z" />
<glyph unicode="l" d="M401 1184q0 19 7 33t15 20t22.5 9.5t21.5 4t20 0.5h263q84 0 84 -57l-7 -35l-233 -930q-8 -29 -8 -41q0 -24 15 -41t37.5 -23.5t36.5 -8.5t23 -2q90 0 142 186q7 27 20.5 40t48.5 13q24 0 40.5 -7.5t22.5 -18.5t7.5 -18t1.5 -13q0 -13 -9 -45t-31.5 -77.5t-53.5 -86 t-81.5 -69.5t-109.5 -29q-58 0 -113 18.5t-97 65.5t-42 114q0 25 9 62l219 878h-187q-84 0 -84 58z" />
<glyph unicode="m" d="M104 45q0 7 16.5 72.5t42 157t46.5 153.5l18 59l82 332q4 17 8.5 28t18.5 23.5t35 12.5q6 0 13.5 -2t17 -7.5t17 -18t9.5 -30.5q84 70 178 70q40 0 71 -13.5t49 -35.5t27.5 -39.5t14.5 -34.5q104 123 231 123q71 0 120.5 -50t49.5 -149q0 -47 -15 -113.5t-28.5 -109 t-40.5 -121.5q-29 -80 -39 -116t-10 -70q0 -18 4.5 -27.5t7.5 -10.5t11 -3q25 -3 39 -18.5t14 -38.5t-14 -45.5t-49 -22.5q-8 0 -17 1t-31 9.5t-38.5 23t-29.5 46.5t-13 76q0 76 38 180q53 151 74 227t21 125q0 39 -12 60.5t-44 21.5q-28 0 -56.5 -17t-52 -42.5t-47.5 -68 t-42 -81t-38 -94.5t-33 -95.5t-29 -97t-23 -86.5t-19 -75q-23 -88 -35 -106.5t-53 -18.5q-71 0 -71 57q0 15 37 155t69 236q55 199 55 252q0 39 -11.5 60.5t-43.5 21.5q-28 0 -56.5 -17t-52 -42.5t-47.5 -68t-42 -81t-38 -94.5t-33 -95.5t-29 -97t-23 -86.5t-19 -75 q-23 -88 -35 -106.5t-53 -18.5q-72 0 -72 57z" />
<glyph unicode="n" d="M164 588q0 18 19.5 86t41.5 110q60 111 162 111q46 0 90.5 -26t65.5 -87q113 113 248 113q94 0 148 -57.5t54 -155.5q0 -103 -106 -414q-35 -103 -35 -123q0 -32 18 -32q33 0 63.5 48t53.5 126q6 23 11.5 34.5t21 21t41.5 9.5q24 0 40.5 -7.5t22.5 -18.5t7.5 -18t1.5 -13 q0 -12 -9 -44.5t-30.5 -78t-51 -86t-76.5 -69.5t-100 -29q-68 0 -110.5 46.5t-42.5 119.5q0 42 22 110q117 325 117 420q0 48 -16.5 67t-49.5 19q-118 0 -217 -184q-74 -144 -153 -461q-21 -84 -36.5 -110.5t-55.5 -26.5q-27 0 -47.5 18.5t-20.5 48.5q0 12 8 41l144 572 q6 24 6 49q0 51 -27 51q-23 0 -44.5 -56.5t-29.5 -99.5q-12 -49 -25.5 -65.5t-54.5 -16.5q-28 0 -44.5 12t-20.5 23.5t-4 22.5z" />
<glyph unicode="o" d="M260 322q0 104 42 209t109 184.5t156 129.5t178 50q122 0 205.5 -89t83.5 -245q0 -109 -42.5 -215t-110.5 -184t-156 -126t-176 -48q-128 0 -208.5 95t-80.5 239zM401 317q0 -86 39 -145t113 -59q46 0 95.5 25t92.5 70t78 101t55.5 123.5t20.5 132.5q0 49 -13.5 93 t-49.5 78t-89 34q-57 0 -118.5 -39t-110.5 -101t-81 -146t-32 -167z" />
<glyph unicode="p" d="M23 -397q0 19 7 33t15 20t22.5 9.5t21.5 4t20 0.5h73l250 1000q6 24 6 39q0 10 -1.5 21t-12.5 25.5t-29 14.5q-42 0 -82 -158q-7 -24 -9 -31.5t-8.5 -21t-13.5 -17.5t-19 -8t-30 -4q-28 0 -44.5 12t-20.5 23.5t-4 22.5q0 22 20.5 87t46.5 109q61 111 166 111q16 0 32 -3 t42.5 -12t51 -33.5t40.5 -60.5q122 109 234 109q108 0 174.5 -88.5t66.5 -224.5q0 -105 -37.5 -213.5t-98 -191.5t-141 -136t-161.5 -53q-47 0 -90.5 20.5t-62 38t-21.5 23.5l-98 -400h92q15 0 25 -1t25.5 -6t23.5 -17.5t8 -32.5q0 -19 -6.5 -33t-14.5 -20.5t-22 -10t-22 -4 t-21 -0.5h-310q-83 0 -83 58zM498 295q0 -21 4 -47.5t14 -59t32.5 -54t53.5 -21.5q61 0 130 68t117 180t48 225q0 77 -25.5 130.5t-78.5 53.5q-61 0 -130 -69.5t-117 -182t-48 -223.5z" />
<glyph unicode="q" d="M279 315q0 107 41 213.5t106 186.5t150 130t169 50q122 0 211 -109q16 38 22 51.5t17 31t21.5 22t25.5 4.5q24 0 41 -16.5t17 -40.5q0 -12 -8 -41l-281 -1127h115q84 0 84 -57q0 -19 -6.5 -33t-14.5 -20.5t-22 -10t-22 -4t-21 -0.5h-406q-84 0 -84 58q0 19 7 33t15 20 t22.5 9.5t21.5 4t20 0.5h146l98 396q-109 -78 -215 -78q-114 0 -192 88t-78 239zM418 309q0 -45 11 -86.5t43.5 -75.5t80.5 -34q70 0 145.5 65t127 173t51.5 220q0 90 -37 144.5t-97 54.5q-71 0 -146.5 -66t-127 -175t-51.5 -220z" />
<glyph unicode="r" d="M193 588q0 6 6.5 35t24.5 76.5t43.5 90t71.5 74t101 31.5q66 0 115.5 -34t71.5 -85q111 119 264 119q78 0 143.5 -22t108.5 -70t43 -115q0 -68 -33.5 -97.5t-71.5 -29.5q-35 0 -59.5 23t-24.5 59q0 23 8 41t13 23t16 14q-45 49 -147 49q-70 0 -122.5 -45.5t-98.5 -124.5 q-84 -153 -164 -475q-21 -84 -36.5 -110.5t-55.5 -26.5q-27 0 -47.5 18.5t-20.5 48.5q0 10 8 41l139 561q9 35 9 48q0 37 -19.5 51t-40.5 14q-20 0 -36 -14t-28 -43t-18.5 -51t-15.5 -60q-6 -21 -9.5 -31t-11.5 -21.5t-22 -15.5t-35 -4q-28 0 -44.5 12t-20.5 23.5t-4 22.5z " />
<glyph unicode="s" d="M203 186q0 69 33.5 97t68.5 28q42 0 64 -26t22 -56q0 -40 -33 -73q55 -43 195 -43q132 0 217 45q48 25 73 65.5t25 71.5q0 19 -8.5 34.5t-26.5 26.5t-32.5 19t-41.5 14.5t-38.5 9t-36.5 7.5q-90 17 -118 23t-59 18t-58 32q-74 58 -74 144q0 29 9.5 61.5t35.5 71t66 68.5 t107 50.5t152 20.5q142 0 216.5 -48t74.5 -130q0 -57 -30 -86t-66 -29q-15 0 -30.5 4.5t-32.5 24t-17 51.5q0 36 21 57q-45 31 -140 31q-98 0 -159 -33q-44 -23 -63 -56.5t-19 -55.5q0 -21 12 -36.5t41 -26t57.5 -17t79.5 -15.5q28 -5 47.5 -8.5t54 -13t58.5 -20t53 -29 t47 -40.5t30.5 -53.5t12.5 -68.5q0 -66 -40.5 -132.5t-106.5 -107.5q-115 -69 -297 -69q-23 0 -41 0.5t-56.5 4.5t-68 11t-65 21.5t-59 35t-40 53t-16.5 72.5z" />
<glyph unicode="t" d="M319 815q0 68 87 68h190l76 307q16 74 78 74q28 0 47.5 -19.5t19.5 -48.5q0 -10 -8 -39l-68 -274h160q84 0 84 -58q0 -19 -6.5 -33t-14.5 -20.5t-22 -9.5t-21.5 -3.5t-21.5 -0.5h-190l-131 -529q-9 -35 -9 -47q0 -38 22 -53.5t52 -15.5q65 0 127 53t96 129q14 33 27 45 t47 12q24 0 40.5 -7.5t22.5 -18.5t7.5 -18t1.5 -13q0 -24 -27.5 -72.5t-73 -102t-119 -93t-151.5 -39.5q-96 0 -155.5 56.5t-59.5 137.5l137 576h-160q-84 0 -84 57z" />
<glyph unicode="u" d="M164 588q0 15 10 48.5t32.5 78t52.5 84.5t77.5 68t101.5 28q66 0 112 -44.5t46 -125.5q0 -43 -25 -113q-62 -168 -83 -250t-21 -133q0 -116 86 -116q37 0 70 21t58.5 59t44.5 73t34.5 82t21 66t11.5 43l88 354q21 72 75 72q25 0 46.5 -16.5t21.5 -51.5q0 -12 -8 -43 l-137 -555q-9 -35 -9 -47q0 -57 35 -57q40 0 80 163q6 23 9.5 32.5t11.5 22t21 17t34 4.5q24 0 40.5 -7.5t22.5 -18.5t7.5 -18t1.5 -13q0 -8 -7.5 -39.5t-24.5 -79.5t-36 -82q-60 -106 -162 -106q-54 0 -92.5 26t-58.5 62q-91 -88 -203 -88q-95 0 -159 61.5t-64 181.5 q0 68 24.5 160.5t85.5 261.5q21 61 21 80q0 37 -23 37q-34 0 -68 -45.5t-59 -134.5q-7 -31 -21 -45.5t-53 -14.5q-28 0 -44.5 12t-20.5 23.5t-4 22.5z" />
<glyph unicode="v" d="M164 588q0 20 12 55.5t38 79t60.5 82t85 64.5t105.5 26q78 0 129 -50.5t51 -125.5q0 -37 -22 -98q-60 -159 -83.5 -237.5t-23.5 -129.5q0 -141 143 -141q60 0 113 61t85 146t55.5 178t33.5 154.5t10 78.5q0 36 -8 57l-8 33q0 30 23 52t51 22q84 0 84 -158q0 -23 -6 -70.5 t-21.5 -118t-37.5 -145t-58 -149.5t-79.5 -133.5t-106 -95.5t-132.5 -37q-123 0 -202.5 69t-79.5 197q0 67 24.5 152t87.5 253q17 47 17 62q0 49 -43 49q-36 0 -80.5 -42t-75.5 -146q-8 -28 -23.5 -40t-48.5 -12q-28 0 -44.5 12t-20.5 23.5t-4 22.5z" />
<glyph unicode="w" d="M197 242q0 96 41 196q10 31 47 133q28 83 28 123q0 21 -3 34.5t-9.5 19t-11.5 7.5t-13 3q-25 3 -39 17t-16 23t-2 17q0 3 0.5 7.5t4.5 16t10.5 20.5t19.5 16.5t31 7.5q10 0 22 -1.5t35.5 -11.5t41.5 -27t32 -53t14 -85q0 -46 -7.5 -78t-27.5 -84l-53 -150 q-29 -77 -29 -143q0 -137 127 -137q39 0 74 37.5t59 97.5t35 94t19 66l102 413q14 62 62 62q24 0 40.5 -17.5t16.5 -40.5q0 -3 -5 -22.5t-12 -47t-10 -42.5l-35 -138q-10 -38 -16 -61.5t-13 -55.5t-16 -67q-26 -93 -26 -147q0 -131 116 -131q54 0 92.5 54.5t73.5 162.5 q82 271 82 366q0 53 -18 90q-8 16 -8 35q0 30 22.5 52t50.5 22q80 0 80 -139q0 -92 -47 -274.5t-78 -262.5q-42 -104 -101.5 -167.5t-150.5 -63.5q-31 0 -62 6.5t-73 34t-67 73.5q-74 -114 -189 -114q-29 0 -58.5 6t-63.5 23.5t-59.5 44.5t-42.5 73.5t-17 106.5z" />
<glyph unicode="x" d="M164 588q0 33 26 83.5t70 101t114 86.5t146 36q120 0 191 -88q42 38 97.5 63t113.5 25q87 0 146.5 -54.5t59.5 -144.5q0 -36 -9 -63t-20.5 -40.5t-28 -21t-26.5 -9t-20 -1.5q-35 0 -59.5 23t-24.5 59q0 55 43 84q-11 43 -63 43q-58 0 -109 -51q-20 -23 -28.5 -44.5 t-22.5 -74.5l-55 -221q-31 -127 -31 -150q0 -53 27.5 -84.5t76.5 -31.5q60 0 121.5 49.5t89.5 134.5q7 19 11.5 28t20 18t40.5 9q24 0 40.5 -7.5t22.5 -18.5t7.5 -18t1.5 -13q0 -24 -15.5 -61.5t-47 -80t-73 -79.5t-101 -61.5t-122.5 -24.5q-113 0 -192 88q-45 -46 -102 -67 t-105 -21q-98 0 -153.5 60t-55.5 138q0 69 32 102.5t74 33.5q37 0 60.5 -25t23.5 -57q0 -8 -2 -19t-13.5 -30.5t-29.5 -32.5q6 -21 24 -33t42 -12q39 0 86 32.5t65 104.5l88 358q7 21 7 45q0 51 -28 84t-77 33q-58 0 -120.5 -48.5t-92.5 -137.5q-5 -18 -10 -27.5t-20.5 -18 t-41.5 -8.5q-28 0 -44.5 12t-20.5 23.5t-4 22.5z" />
<glyph unicode="y" d="M164 588q0 17 11 51.5t35 78.5t57 83.5t82.5 66.5t105.5 27q69 0 119.5 -46t50.5 -128q0 -43 -45 -162q-48 -130 -66 -199t-18 -120q0 -127 108 -127q38 0 72 18t60 44.5t50.5 73t41.5 86.5t35.5 102.5t29.5 105t27 108.5l38 150q4 17 8 27t12.5 25t23 22.5t34.5 7.5 q25 0 46.5 -16.5t21.5 -51.5q0 -12 -8 -43l-199 -799q-18 -71 -58 -145.5t-97.5 -141.5t-137.5 -110t-166 -43q-93 0 -153 55t-60 144q0 35 9.5 61.5t22 39t29 20t26 9t18.5 1.5q35 0 59.5 -22.5t24.5 -59.5q0 -5 -1 -14t-12 -30.5t-30 -35.5q17 -43 69 -43 q104 0 198.5 111.5t127.5 267.5l-6 -4q-7 -4 -15 -7.5t-19.5 -9t-25 -10.5t-29.5 -9t-34.5 -6.5t-36.5 -2.5q-46 0 -88 14t-78.5 42t-58 79.5t-21.5 118.5t23 151t82 244q26 66 26 88q0 45 -34 45q-42 0 -81 -50t-63 -130q-5 -17 -8 -24t-11 -17.5t-21.5 -14.5t-33.5 -4 q-28 0 -44.5 12t-20.5 23.5t-4 22.5z" />
<glyph unicode="z" d="M197 45q0 26 55 101t131 151q82 82 203 184q179 160 217 199q-36 14 -72 37q-64 37 -102 37q-42 0 -84 -35.5t-60 -91.5q-5 -18 -9.5 -27t-19.5 -18t-40 -9q-30 0 -51 14.5t-21 43.5q0 27 20.5 69.5t56 87t93 76t121.5 31.5q32 0 63 -10.5t46.5 -19.5t48.5 -31 q5 -3 20 -12.5t20.5 -13t16 -8.5t18 -7t15.5 -2q20 0 53 51q20 35 32.5 44t45.5 9q69 0 69 -57q0 -23 -32 -73t-117.5 -141.5t-208.5 -197.5q-170 -144 -233 -211q60 -10 118 -41q42 -25 65.5 -35t49.5 -10q58 0 121.5 52t95.5 155q5 17 10 26t20.5 18t41.5 9q37 0 53 -17 t16 -40q0 -26 -16 -67.5t-48 -89.5t-74 -89.5t-102 -69.5t-124 -28q-46 0 -81.5 15.5t-78.5 45.5q-62 43 -98 43q-28 0 -64.5 -17t-60.5 -52q-13 -20 -26 -27.5t-42 -7.5q-39 0 -55 17.5t-16 39.5z" />
<glyph unicode="{" d="M272 621q0 67 68 67q62 1 110 7t98 21.5t83 47t45 78.5l86 348q17 71 68 120t121.5 71.5t132.5 31t130 8.5q16 0 26.5 -1t26.5 -6t24.5 -17.5t8.5 -32.5q0 -68 -77 -68q-82 -1 -143.5 -13t-93 -26t-52 -36.5t-26 -35t-9.5 -30.5l-86 -348q-17 -68 -63.5 -115t-104.5 -74 q22 -17 35.5 -31t28 -45t14.5 -67q0 -35 -27 -127q-10 -47 -28 -115q-6 -35 -25 -98q-20 -87 -20 -100q0 -27 31 -45t78 -24.5t73 -8.5t45 -2q16 0 26 -1t26 -6t24 -17.5t8 -32.5q0 -24 -8.5 -39t-25 -20.5t-27.5 -7t-29 -1.5q-22 0 -42 0.5t-59.5 5t-71.5 11.5t-69.5 22.5 t-63 36t-42.5 53.5t-17 74q0 35 27 127q6 28 29 114q8 45 24 99q3 12 9 37.5t10 42t4 20.5q0 30 -31.5 50t-79 27.5t-75 10t-46.5 2.5q-78 0 -78 58z" />
<glyph unicode="|" d="M442 -98q0 8 9 41l352 1411q17 67 74 67q31 0 51 -21.5t20 -49.5q0 -14 -8 -43l-350 -1403q-16 -74 -76 -74q-30 0 -51 22t-21 50z" />
<glyph unicode="}" d="M88 -113q0 27 16.5 47.5t40.5 20.5q35 1 51 1.5t58.5 4t69.5 10t61 17t57 28.5t35 41q3 7 43 164l55 221q10 37 24 66t51 64t93 59q-5 3 -11 8t-18.5 18.5t-22.5 29t-17.5 39.5t-7.5 50q0 34 22 115q7 32 29 115l28 114q21 81 21 94q0 23 -22 39.5t-49.5 24t-64.5 12.5 t-56 5.5t-35 0.5q-84 0 -84 58q0 19 7 33t15 20t23 9.5t22.5 4t20.5 0.5q22 0 38.5 -0.5t57.5 -4.5t72 -10.5t70.5 -21.5t65.5 -36t44 -54t18 -75q0 -25 -24 -119l-58 -230q-20 -78 -20 -92q0 -30 30.5 -50t78 -27.5t77.5 -10t56 -2.5q67 0 67 -57q0 -32 -17.5 -50 t-39.5 -18q-165 -4 -242 -37q-63 -30 -80.5 -59t-44.5 -139q-13 -49 -22.5 -86.5t-13.5 -53t-7 -26.5q-26 -108 -38.5 -142.5t-37.5 -62.5q-121 -127 -399 -127q-16 0 -26.5 1t-26.5 6t-24.5 17.5t-8.5 32.5z" />
<glyph unicode="~" d="M322 569q0 31 34 54q159 127 256 127q35 0 63 -14.5t42.5 -30t34.5 -43.5q19 -25 34 -25q10 0 22.5 3.5t27 11t27.5 14.5t29 17.5t25 16.5t23 16t16 11q33 23 50 23q27 0 45 -21.5t18 -44.5q0 -13 -7 -25.5t-28 -29t-31 -23.5t-43 -29q-4 -3 -6.5 -4.5t-5.5 -3.5 q-100 -65 -172 -65q-34 0 -61.5 14t-41.5 28.5t-34 41.5q-22 28 -37 28q-51 0 -162 -86q-24 -17 -33.5 -21.5t-23.5 -4.5q-25 0 -43 19.5t-18 45.5z" />
<glyph unicode="&#xa0;" />
<glyph unicode="&#xa1;" d="M340 -385q0 19 8 43l197 702q11 40 27.5 50t56.5 10q16 0 26.5 -1.5t25.5 -6t22.5 -17.5t7.5 -33q-7 -34 -9 -40l-153 -699q-8 -39 -32.5 -63.5t-44.5 -30.5t-38 -6q-44 0 -69 28.5t-25 63.5zM608 684q0 42 34.5 77.5t80.5 35.5q35 0 63.5 -23.5t28.5 -68.5 q0 -44 -34.5 -78.5t-80.5 -34.5q-38 0 -65 27t-27 65z" />
<glyph unicode="&#xa2;" d="M281 334q0 130 66 253.5t175 205.5t230 98l28 119q6 26 30 44.5t50 18.5t39.5 -18.5t7.5 -44.5l-30 -123q79 -17 125.5 -68t46.5 -119q0 -55 -29.5 -90t-75.5 -35q-35 0 -59.5 21.5t-24.5 60.5q0 51 35 76q-18 21 -49 31l-162 -649q85 3 147.5 20t86.5 32.5t49 39.5 q24 18 45 18q25 0 48 -23.5t23 -49.5q0 -31 -39.5 -62.5t-75 -47.5t-61.5 -24q-96 -30 -256 -30l-28 -115q-6 -26 -29 -44.5t-49 -18.5q-27 0 -41 18t-8 45l30 125q-79 14 -137 72q-108 103 -108 264zM422 332q0 -176 137 -211l158 635q-117 -39 -206 -162.5t-89 -261.5z " />
<glyph unicode="&#xa3;" d="M104 90q0 61 55.5 110.5t137.5 49.5q48 0 78 -10q28 50 51 153l43 170h-49q-82 0 -82 58q0 24 8 39t23.5 20.5t25.5 6.5t27 1h78l65 264q32 127 128.5 221.5t207.5 94.5q77 0 131.5 -55t54.5 -173q0 -192 -112 -192q-38 0 -61 24t-23 58q0 58 55 88q2 10 2 35 q0 32 -4.5 52t-14 27.5t-15.5 9t-17 1.5q-55 0 -112.5 -65t-79.5 -150l-60 -240h86q84 0 84 -57q0 -19 -7 -33t-15 -20.5t-22.5 -10t-22 -4t-19.5 -0.5h-115l-73 -284q-9 -35 -37 -91q120 -69 188 -69q49 0 83 41t50 96q11 33 27.5 42t44.5 9q72 0 72 -57q0 -17 -11 -47.5 t-35.5 -67.5t-57 -70t-81 -55t-102.5 -22q-53 0 -111.5 19.5t-152.5 72.5q-41 -40 -89 -62.5t-71.5 -26t-42.5 -3.5q-50 0 -80.5 30t-30.5 72z" />
<glyph unicode="&#xa4;" d="M267.5 331q-3.5 15 9.5 33t19 24t21 20l78 61q-28 69 -6 158q19 79 84 157l-51 68q-38 46 12 88q28 22 63 25t56 -13q7 -5 22 -26l29 -37q81 43 166 43q87 0 148 -45l45 35q84 67 137 28q50 -35 -25 -100l-4 -4l-78 -62q28 -69 6 -157q-20 -83 -81 -156l49 -63 q10 -16 14.5 -27.5t0 -31t-25.5 -36.5q-27 -21 -62 -23.5t-56 11.5q-9 6 -23 29l-29 37q-82 -45 -168 -45t-147 45l-45 -35q-85 -68 -137 -29q-18 13 -21.5 28zM532 627q-17 -66 19 -114t102 -48q67 0 126.5 48t76.5 114t-19 113.5t-102 47.5q-67 0 -126.5 -47.5 t-76.5 -113.5z" />
<glyph unicode="&#xa5;" d="M260 467q7 30 33.5 51t56.5 21h234l-41 176h-150q-30 0 -45 20.5t-8 50.5q8 29 34.5 50.5t55.5 21.5h78l-62 268q-24 0 -36.5 0.5t-29.5 3.5t-25.5 9t-14.5 17t-6 28q0 19 6.5 33t14.5 20.5t22 9.5t21.5 3.5t21.5 0.5h213q15 0 25 -1t25.5 -6t23.5 -17.5t8 -32.5 t-6.5 -33.5t-14.5 -20t-25.5 -10t-29 -4t-35.5 -0.5l58 -268h178l194 268q-80 0 -80 58q0 19 6.5 33t14.5 20.5t22 9.5t21.5 3.5t21.5 0.5h213q15 0 25 -1t25.5 -6t23.5 -17.5t8 -32.5q0 -19 -6.5 -33t-14.5 -20.5t-22 -10t-22 -4t-21 -0.5h-57l-197 -268h80q29 0 45 -21.5 t8 -50.5q-7 -30 -33.5 -50.5t-56.5 -20.5h-147l-129 -176h233q30 0 45.5 -21t8.5 -51q-7 -29 -34.5 -50.5t-56.5 -21.5h-251l-68 -270h37q84 0 84 -57q0 -19 -7 -33t-15 -20.5t-22.5 -10t-22 -4t-19.5 -0.5h-244q-15 0 -25 1t-25.5 6t-23.5 17.5t-8 32.5q0 24 8 39 t23.5 20.5t25.5 7t27 1.5h66l67 270h-252q-29 0 -45 21.5t-8 50.5zM690 715q5 -24 10 -72q11 22 41 72h-51z" />
<glyph unicode="&#xa6;" d="M442 -98q0 8 9 41l129 522q7 27 34 45t58 18q30 0 47 -18t10 -45l-139 -561q-16 -74 -76 -74q-30 0 -51 22t-21 50zM651 745l152 609q17 67 74 67q31 0 51 -21.5t20 -49.5q0 -14 -8 -43l-139 -562q-7 -27 -34 -45t-58 -18q-30 0 -47.5 18t-10.5 45z" />
<glyph unicode="&#xa7;" d="M145 10q9 37 42.5 63.5t70.5 26.5t57 -26.5t11 -63.5q-6 -28 -33 -55q31 -61 219 -61q66 0 125 16t106 52.5t60 88.5q4 14 4.5 26.5t-3.5 23.5t-8.5 20.5t-14.5 18.5t-17.5 15.5t-22 14.5t-23 12.5t-26.5 12t-26 10.5t-27 10l-193 72q-119 44 -182.5 133.5t-34.5 206.5 q17 64 62.5 119.5t107.5 87.5q-32 65 -12 139q34 134 172.5 217.5t298.5 83.5q102 0 183 -28t124.5 -88.5t22.5 -143.5q-9 -37 -42.5 -63.5t-70.5 -26.5t-56.5 26.5t-10.5 63.5q6 29 32 55q-31 61 -219 61q-66 0 -125 -16t-106 -52.5t-60 -88.5q-4 -14 -4.5 -26.5t3.5 -23.5 t8.5 -20.5t14.5 -18.5t17.5 -15.5t22 -14.5t23 -12.5t26.5 -12t26 -10.5t27 -10l193 -72q119 -44 182.5 -133.5t34.5 -206.5q-17 -64 -62.5 -119t-107.5 -90q31 -67 12 -137q-34 -134 -172.5 -217.5t-298.5 -83.5q-102 0 -183 28t-124.5 88.5t-22.5 143.5zM373 627 q-32 -132 153 -205l195 -72q76 -31 129 -67q38 11 69.5 42.5t41.5 71.5q32 132 -154 205l-195 72q-72 26 -129 65q-38 -9 -68.5 -41t-41.5 -71z" />
<glyph unicode="&#xa8;" d="M584 1130q0 34 27.5 62.5t64.5 28.5q32 0 53 -21t21 -55q1 -38 -28.5 -64t-62.5 -26q-36 0 -55.5 23t-19.5 52zM893 1130q0 34 27.5 62.5t64.5 28.5q32 0 53 -21t21 -55q1 -39 -28.5 -64.5t-61.5 -25.5q-36 0 -56 23t-20 52z" />
<glyph unicode="&#xa9;" d="M0 539q0 145 72.5 268.5t196.5 195.5t270 72q145 0 268.5 -72t195.5 -195.5t72 -268.5q0 -146 -72 -270t-195.5 -196.5t-268.5 -72.5q-146 0 -270 72.5t-196.5 196.5t-72.5 270zM78 539q0 -125 62 -231t168 -168t231 -62q189 0 323.5 135.5t134.5 325.5 q0 189 -134.5 323.5t-323.5 134.5q-190 0 -325.5 -134.5t-135.5 -323.5zM254 434q0 109 51 214.5t134 171t171 65.5q76 0 133 -54l6 8t4.5 6.5t3.5 5t4 5.5t5 6q17 23 35 23q17 0 25 -10t8 -21l-3 -14l-40 -164q-4 -15 -10.5 -22.5t-12.5 -9t-16 -1.5q-39 0 -39 31q0 1 1 9 t1 22q0 51 -27.5 81.5t-73.5 30.5q-66 0 -133 -55.5t-110 -145t-43 -180.5q0 -74 34.5 -126t98.5 -52q17 0 38.5 5.5t50 18.5t54 43.5t39.5 73.5q8 25 37 25q18 0 28.5 -8.5t10.5 -22.5q0 -23 -19 -56.5t-51.5 -67t-84.5 -56.5t-109 -23q-93 0 -147 70t-54 174z" />
<glyph unicode="&#xaa;" d="M420 532q4 19 27 32.5t49 13.5h372q26 0 42 -13.5t12 -32.5t-26 -31t-50 -12h-373q-27 0 -42 12t-11 31zM451 860q0 98 44 194.5t116 158t147 61.5q71 0 121 -57q4 12 18 24t33 12q18 0 32.5 -13t14.5 -34q0 -8 -6 -28l-94 -375q-5 -30 -5 -35q0 -41 29 -41q19 0 34 36 t23 71q8 36 17.5 48.5t38.5 12.5q49 0 49 -41q0 -14 -14 -60t-33 -77q-43 -78 -115 -78q-81 0 -119 76q-76 -76 -161 -76q-74 0 -122 60t-48 161zM549 854q0 -22 4.5 -47.5t22.5 -52.5t47 -27q67 0 136.5 105.5t69.5 224.5q0 55 -18 92t-55 37q-43 0 -91.5 -48.5t-82 -127 t-33.5 -156.5z" />
<glyph unicode="&#xab;" d="M229 627q2 7 4 13.5t5.5 12t6 9.5t7.5 8.5t7 6.5t7 6t6 5l523 381q26 18 39 18q18 0 28 -17t4 -48q-8 -37 -45 -61l-456 -334l315 -334q24 -28 16 -62q-6 -30 -23 -47.5t-36 -17.5q-13 0 -33 18l-364 385q-16 25 -11 58zM561 627q2 7 4 13.5t5.5 12t6 9.5t7.5 8.5t7 6.5 t7 6t6 5l522 381q26 18 39 18q19 0 29 -17t4 -48q-8 -37 -45 -61l-457 -334l316 -334q24 -28 16 -62q-6 -30 -23 -47.5t-36 -17.5q-13 0 -33 18l-365 385q-16 23 -10 58z" />
<glyph unicode="&#xac;" d="M270 782q8 29 33.5 50.5t54.5 21.5h783q30 0 45.5 -21t9.5 -51l-78 -311q-8 -29 -34.5 -50.5t-55.5 -21.5q-30 0 -45.5 21t-7.5 51l59 240h-710q-29 0 -45 21t-9 50z" />
<glyph unicode="&#xad;" d="M272 627q0 71 95 71h655q94 0 94 -71q0 -72 -94 -72h-655q-95 0 -95 72z" />
<glyph unicode="&#xae;" d="M0 539q0 145 72.5 268.5t196.5 195.5t270 72q145 0 268.5 -72t195.5 -195.5t72 -268.5q0 -146 -72 -270t-195.5 -196.5t-268.5 -72.5q-146 0 -270 72.5t-196.5 196.5t-72.5 270zM78 539q0 -125 62 -231t168 -168t231 -62q189 0 323.5 135.5t134.5 325.5 q0 189 -134.5 323.5t-323.5 134.5q-190 0 -325.5 -134.5t-135.5 -323.5zM270 240q0 16 9 24t16 9t20 1h35l133 537h-18q-45 0 -45 31q0 37 45 37h203q78 0 125 -41t47 -105q0 -56 -38.5 -109.5t-101.5 -82.5q41 -41 41 -92q0 -10 -14 -76q-18 -64 -18 -88q0 -21 12 -21 q28 0 41 55q4 13 11 19t12 7t16 1q37 0 37 -31q0 -28 -32.5 -73t-84.5 -45q-19 0 -36 5.5t-33.5 28.5t-16.5 62q0 31 14 80q17 68 17 76q0 61 -88 61h-93l-59 -236h18q45 0 45 -30q0 -35 -45 -35h-131q-43 0 -43 31zM502 578h80q75 0 127.5 43t52.5 96q0 39 -30.5 66.5 t-92.5 27.5h-78z" />
<glyph unicode="&#xaf;" d="M432 1130q0 25 8 41t23.5 22t26 7.5t28.5 1.5h610q15 0 25 -1t25.5 -6t23.5 -17.5t8 -32.5q0 -25 -8 -41t-23.5 -22t-26 -7.5t-28.5 -1.5h-610q-15 0 -25 1t-25.5 6t-23.5 17.5t-8 32.5z" />
<glyph unicode="&#xb0;" d="M477 952q31 124 140.5 211.5t232.5 87.5q124 0 190 -87t35 -212q-31 -123 -141 -211t-234 -88q-123 0 -188.5 88t-34.5 211zM621 952q-15 -65 18.5 -110t97.5 -45t121 45t74 110q15 65 -19 110.5t-98 45.5q-65 0 -122 -46t-72 -110z" />
<glyph unicode="&#xb1;" d="M96 72q0 71 94 71h312l61 246h-274q-94 0 -94 72q0 71 94 71h309l80 320q16 70 74 70q31 0 51 -21.5t20 -50.5q0 -12 -8 -41l-67 -277h270q94 0 94 -71q0 -72 -94 -72h-307l-62 -246h271q94 0 94 -71q0 -72 -94 -72h-730q-94 0 -94 72z" />
<glyph unicode="&#xb2;" d="M471 655q0 15 21 59.5t51 78.5q41 43 76.5 65t89.5 47q118 48 169.5 88.5t51.5 104.5q0 54 -36 84t-91 30q-19 0 -41.5 -6t-51 -19.5t-53.5 -43.5t-39 -72q-8 -20 -34 -20q-35 0 -35 28q0 21 18 52.5t48.5 64t81.5 55.5t108 23q85 0 140.5 -49.5t55.5 -128.5 q0 -49 -21.5 -89t-63 -70t-78.5 -49t-93 -42q-101 -42 -151 -103q58 -7 121 -28q60 -21 92 -21q37 0 70.5 31t50.5 84q6 25 35 25q34 0 34 -29q0 -11 -7.5 -31.5t-24 -46t-38 -48t-54 -37.5t-68.5 -15q-51 0 -123 28q-67 25 -96 25q-33 0 -43 -33q-8 -20 -35 -20 q-37 0 -37 28z" />
<glyph unicode="&#xb3;" d="M514 758q0 71 51 71q21 0 32 -12.5t11 -28.5q0 -22 -18 -38l-4 -7q0 -7 7.5 -18.5t31 -24t57.5 -12.5q42 0 86.5 14t81.5 49t37 83q0 36 -25 67t-82 31h-41q-43 0 -43 29q0 32 41 32h39q81 0 134 45t53 92q0 35 -29.5 58.5t-81.5 23.5q-47 0 -97 -21t-67 -65 q-5 -16 -11.5 -22t-25.5 -6q-35 0 -35 28q0 46 65 97t173 51q82 0 130 -41.5t48 -102.5q0 -48 -34 -95.5t-99 -78.5q57 -51 57 -122q0 -67 -46.5 -116t-107.5 -70t-122 -21q-72 0 -119 35.5t-47 95.5z" />
<glyph unicode="&#xb4;" d="M590 1081q0 25 13.5 37t41.5 23l305 123q27 10 39 10q28 0 48 -18.5t20 -49.5q0 -52 -62 -76l-307 -120q-33 -11 -37 -11q-25 0 -40 18t-18 34t-3 30z" />
<glyph unicode="&#xb5;" d="M63 -410l7 35l301 1200q9 39 31 53.5t44 14.5q31 0 49.5 -20.5t18.5 -47.5q0 -3 -4.5 -22t-11 -46.5t-9.5 -41.5l-28 -115l-45 -184q-33 -129 -33 -172q0 -131 117 -131q40 0 76 19t63 46t53 75t42.5 87t35.5 101.5t28.5 100t24.5 99.5l39 150q5 20 9 32t13 27.5t23.5 23 t34.5 7.5q28 0 49 -19.5t21 -48.5q0 -4 -5 -24.5t-12 -49t-10 -45.5l-86 -344q-41 -151 -41 -178q0 -59 41 -59q47 0 90 178q9 36 24 47.5t50 11.5q72 0 72 -57q0 -7 -7.5 -37t-25.5 -77.5t-39 -82.5q-63 -108 -166 -108q-14 0 -30.5 3t-42.5 12t-50.5 32t-40.5 57 q-111 -104 -237 -104q-102 0 -174 57q-116 -471 -123 -483q-24 -39 -66 -39q-31 0 -50.5 20.5t-19.5 46.5z" />
<glyph unicode="&#xb6;" d="M333 739q-23 88 3 209q31 127 116.5 236t203.5 173t239 64h428q17 0 26.5 -1.5t17.5 -11t3 -28.5q-4 -15 -11 -24t-17.5 -12t-18 -4t-20.5 -1h-89l-417 -1669q-6 -22 -9.5 -32t-15 -22.5t-27.5 -12.5q-25 0 -27 22.5t7 44.5l418 1669h-123l-418 -1669q-13 -48 -27 -59 q-11 -8 -24 -8q-37 0 -19 67l201 801q-88 4 -167.5 33.5t-144.5 88t-88 146.5z" />
<glyph unicode="&#xb7;" d="M565 608q0 62 46.5 104t99.5 42q54 0 84 -34.5t30 -76.5q0 -55 -44 -100t-103 -45q-45 0 -79 29t-34 81z" />
<glyph unicode="&#xb8;" d="M240 -367q0 20 6.5 33t15.5 20t30 10.5t36 4t49 0.5q307 0 307 109q0 16 -13 28t-32 17.5t-34 7.5t-27 2q-28 1 -44 15t-18 28l-2 14q0 11 27 111q7 32 21 45.5t52 13.5q70 0 70 -57q0 -22 -12 -58q47 -12 80 -33t48 -46.5t21 -46t6 -39.5q0 -14 -2 -28.5t-12.5 -41 t-27.5 -49.5t-52 -47t-82 -39q-109 -33 -346 -33q-34 0 -49.5 20t-15.5 39z" />
<glyph unicode="&#xb9;" d="M539 670q0 15 8.5 22.5t15 8.5t19.5 1h98l104 424q-54 -39 -106 -39q-35 0 -35 29q0 11 7.5 21.5t21.5 11.5q16 1 27.5 3.5t32.5 12t44.5 32t48.5 56.5q14 21 31 21q13 0 20.5 -7t9 -12.5t1.5 -9.5q0 -3 -1 -8.5t-1 -7.5l-133 -527h86q41 0 41 -28q0 -33 -43 -33h-256 q-41 0 -41 29z" />
<glyph unicode="&#xba;" d="M473 532q5 19 26.5 32.5t47.5 13.5h270q26 0 41 -13.5t10 -32.5q-4 -19 -25 -31t-48 -12h-271q-26 0 -40.5 12t-10.5 31zM506 872q0 98 48.5 191.5t128 152t163.5 58.5t142.5 -62.5t58.5 -171.5q0 -102 -49.5 -195.5t-128 -149.5t-160.5 -56q-90 0 -146.5 66t-56.5 167z M604 870q0 -61 27 -102t80 -41q83 0 161 100t78 215q0 56 -25.5 100t-80.5 44q-82 0 -161 -99.5t-79 -216.5z" />
<glyph unicode="&#xbb;" d="M143 231q9 38 45 62l455 334l-313 334l-4 4q-3 4 -3.5 4.5t-3 4.5t-3.5 6t-2.5 6t-2 7.5t-1 8t0.5 9.5t2 11q6 31 22.5 48t35.5 17q15 0 35 -18l358 -381q22 -26 14 -61q-6 -36 -35 -58l-528 -385q-26 -18 -41 -18q-18 0 -27.5 17t-3.5 48zM475 231q9 38 45 62l455 334 l-313 334l-4 4q-3 4 -3.5 4.5t-3 4.5t-3.5 6t-2.5 6t-2 7.5t-1 8t0.5 9.5t2 11q6 31 22 48t35 17q15 0 35 -18l359 -381q22 -26 14 -61q-6 -36 -35 -58l-528 -385q-26 -18 -41 -18q-18 0 -27.5 17t-3.5 48z" />
<glyph unicode="&#xbc;" d="M207 41q7 21 18 35l938 1169q26 37 72 37q29 0 45 -21.5t8 -50.5q-2 -15 -18 -34l-936 -1170q-29 -37 -72 -37q-31 0 -47 21.5t-8 50.5zM229 670q0 15 8.5 22.5t15 8.5t19.5 1h99l106 424q-56 -39 -108 -39q-35 0 -35 29q0 11 7 21.5t19 11.5q17 1 29 3.5t33.5 12t45 32 t48.5 56.5q14 21 31 21q13 0 20.5 -7t9 -12.5t1.5 -9.5q0 -3 -1.5 -8.5t-1.5 -7.5l-133 -527h86q11 0 17 -0.5t14.5 -7.5t7.5 -20q0 -33 -41 -33h-258q-10 0 -16.5 1t-15 8t-7.5 20zM522 33q0 8 5 15.5t9 11.5l5 3q23 13 49 31.5t74 65.5t89.5 103t85.5 148t72 197 q11 29 39 29q13 0 23 -9.5t10 -23.5q0 -9 -11 -50t-49 -128.5t-94 -167.5q-64 -93 -157 -176q39 0 86 -12q3 -1 76 -23l26 105q11 47 19 60t28 13q14 0 23.5 -9.5t9.5 -22.5q0 -1 -18 -82l-19 -74q0 -4 15 -4q27 0 57 10q9 6 18 6q13 0 23 -11t8 -22q0 -14 -15.5 -24.5 t-37 -14.5t-36.5 -6t-22 -2q-8 0 -16 1t-10 1l-41 -164q-9 -34 -39 -34q-13 0 -23 10t-10 24l4 21l39 158q-70 21 -76 22q-39 10 -82 10q-68 0 -86 -10q-12 -8 -20 -8q-13 0 -22 11t-9 22z" />
<glyph unicode="&#xbd;" d="M111 41q7 21 18 35l936 1169q29 37 74 37q29 0 45 -21.5t8 -50.5q-7 -20 -18 -34l-938 -1170q-26 -37 -72 -37q-29 0 -45 21.5t-8 50.5zM229 670q0 15 8.5 22.5t15 8.5t19.5 1h99l106 424q-56 -39 -108 -39q-35 0 -35 29q0 11 7 21.5t19 11.5q17 1 29 3.5t33.5 12t45 32 t48.5 56.5q14 21 31 21q13 0 20.5 -7t9 -12.5t1.5 -9.5q0 -3 -1.5 -8.5t-1.5 -7.5l-133 -527h86q11 0 17 -0.5t14.5 -7.5t7.5 -20q0 -33 -41 -33h-258q-10 0 -16.5 1t-15 8t-7.5 20zM535 18q0 16 21 60t52 78q28 30 58 52t50 32.5t58 27.5q118 48 169 88.5t50 104.5 q0 54 -36 84t-91 30q-19 0 -41 -6t-50 -19.5t-53.5 -43.5t-39.5 -72q-6 -20 -33 -20q-37 0 -37 28q0 21 18 52.5t48.5 64t81.5 55.5t108 23q86 0 141.5 -49.5t55.5 -128.5q0 -40 -15.5 -74.5t-38 -58.5t-59.5 -47.5t-67.5 -37.5t-73.5 -32q-100 -40 -154 -103q59 -6 123 -28 q60 -21 90 -21q37 0 70.5 31t50.5 84q6 25 35 25q15 0 26 -7.5t11 -21.5q-1 -15 -14 -43t-36 -59t-62 -53.5t-83 -22.5q-51 0 -123 28q-63 25 -96 25t-43 -33q-8 -20 -35 -20q-14 0 -22.5 5.5t-10 10t-3.5 12.5z" />
<glyph unicode="&#xbe;" d="M207 41q7 21 18 35l938 1169q26 37 72 37q29 0 45 -21.5t8 -50.5q-2 -15 -18 -34l-936 -1170q-29 -37 -72 -37q-31 0 -47 21.5t-8 50.5zM240 758q-2 28 9.5 49.5t41.5 21.5q21 0 32 -12.5t11 -28.5q-1 -22 -19 -38l-4 -7q0 -7 7 -18.5t30.5 -24t57.5 -12.5q42 0 86.5 14 t81.5 49t38 83q-2 38 -25.5 68t-80.5 30h-41q-43 0 -45 29q0 32 43 32h39q81 0 132.5 45t51.5 92q2 35 -27.5 58.5t-80.5 23.5q-47 0 -97 -21t-67 -65q-5 -16 -11.5 -22t-25.5 -6q-35 0 -35 28q0 46 65 97t173 51q82 0 130 -41.5t48 -102.5q0 -48 -34.5 -95.5t-98.5 -78.5 q57 -51 57 -122q0 -67 -46.5 -116t-107.5 -70t-122 -21q-72 0 -119 35.5t-47 95.5zM522 33q0 8 5 15.5t9 11.5l5 3q23 13 49 31.5t74 65.5t89.5 103t85.5 148t72 197q11 29 39 29q13 0 23 -9.5t10 -23.5q0 -9 -11 -50t-49 -128.5t-94 -167.5q-64 -93 -157 -176q39 0 86 -12 q3 -1 76 -23l26 105q11 47 19 60t28 13q14 0 23.5 -9.5t9.5 -22.5q0 -1 -18 -82l-19 -74q0 -4 15 -4q27 0 57 10q9 6 18 6q13 0 23 -11t8 -22q0 -14 -15.5 -24.5t-37 -14.5t-36.5 -6t-22 -2q-8 0 -16 1t-10 1l-41 -164q-9 -34 -39 -34q-13 0 -23 10t-10 24l4 21l39 158 q-70 21 -76 22q-39 10 -82 10q-68 0 -86 -10q-12 -8 -20 -8q-13 0 -22 11t-9 22z" />
<glyph unicode="&#xbf;" d="M125 -231q0 47 18.5 91t41 72.5t61.5 59t59 42.5t55 32l199 110q27 15 39 22t26.5 19t19.5 23.5t5 27.5q0 17 -7.5 22t-23.5 5q-4 0 -11 -0.5t-26.5 -5t-35.5 -12t-33.5 -24.5t-26.5 -40q-16 -41 -67 -41q-72 0 -72 57q0 62 79 126.5t198 64.5q36 0 65 -11t45.5 -27.5 t27.5 -38t15 -40t4 -35.5q0 -50 -27.5 -99t-70.5 -79l-215 -121q-61 -34 -88.5 -50.5t-62 -43t-47.5 -52t-13 -56.5q0 -54 51 -86.5t131 -32.5q87 0 172 33t129 90q-10 16 -10 43q0 42 30.5 71t69.5 29q35 0 59.5 -23t24.5 -59q0 -35 -19 -76t-59.5 -82.5t-95.5 -75 t-134.5 -54.5t-168.5 -21q-148 0 -229.5 74t-81.5 172zM608 684q0 42 34.5 77.5t80.5 35.5q35 0 63.5 -23.5t28.5 -68.5q0 -44 -34.5 -78.5t-80.5 -34.5q-38 0 -65 27t-27 65z" />
<glyph unicode="&#xc0;" d="M70 57q0 2 0.5 5.5t2.5 12.5t6 16.5t12 15.5t18 12q10 6 100 6l522 1083q12 24 25.5 39t32 21t31 7t36.5 1q26 0 38.5 -1.5t27.5 -7.5t20.5 -21.5t5.5 -41.5l-18 -1079q26 0 40 -1t32 -6t26 -17.5t8 -32.5q0 -19 -6.5 -33t-14.5 -20.5t-22.5 -10t-23 -4t-23.5 -0.5h-209 q-18 0 -28.5 1t-26 6t-23.5 17.5t-8 32.5q0 50 39 64q10 4 94 4l4 213h-331l-103 -213q25 0 38 -1t31 -6t26 -17.5t8 -32.5q0 -24 -8.5 -39t-25 -20.5t-27.5 -7t-29 -1.5h-209q-17 0 -27.5 1t-27 6t-25 17.5t-8.5 32.5zM518 463h270l27 641l-2 2zM717 1585q14 31 43 49.5 t57 18.5q9 0 35 -11l244 -122q15 -7 21.5 -12.5t10 -18t-7.5 -29.5q-11 -24 -38.5 -53t-63.5 -29q-5 0 -31 11l-248 120q-49 24 -22 76z" />
<glyph unicode="&#xc1;" d="M70 57q0 2 0.5 5.5t2.5 12.5t6 16.5t12 15.5t18 12q10 6 100 6l522 1083q12 24 25.5 39t32 21t31 7t36.5 1q26 0 38.5 -1.5t27.5 -7.5t20.5 -21.5t5.5 -41.5l-18 -1079q26 0 40 -1t32 -6t26 -17.5t8 -32.5q0 -19 -6.5 -33t-14.5 -20.5t-22.5 -10t-23 -4t-23.5 -0.5h-209 q-18 0 -28.5 1t-26 6t-23.5 17.5t-8 32.5q0 50 39 64q10 4 94 4l4 213h-331l-103 -213q25 0 38 -1t31 -6t26 -17.5t8 -32.5q0 -24 -8.5 -39t-25 -20.5t-27.5 -7t-29 -1.5h-209q-17 0 -27.5 1t-27 6t-25 17.5t-8.5 32.5zM518 463h270l27 641l-2 2zM684 1460q0 25 13.5 37 t41.5 23l305 122q29 11 39 11q28 0 48 -18.5t20 -49.5q0 -53 -61 -76l-308 -120q-33 -11 -37 -11q-25 0 -40 18t-18 34t-3 30z" />
<glyph unicode="&#xc2;" d="M70 57q0 2 0.5 5.5t2.5 12.5t6 16.5t12 15.5t18 12q10 6 100 6l522 1083q12 24 25.5 39t32 21t31 7t36.5 1q26 0 38.5 -1.5t27.5 -7.5t20.5 -21.5t5.5 -41.5l-18 -1079q26 0 40 -1t32 -6t26 -17.5t8 -32.5q0 -19 -6.5 -33t-14.5 -20.5t-22.5 -10t-23 -4t-23.5 -0.5h-209 q-18 0 -28.5 1t-26 6t-23.5 17.5t-8 32.5q0 50 39 64q10 4 94 4l4 213h-331l-103 -213q25 0 38 -1t31 -6t26 -17.5t8 -32.5q0 -24 -8.5 -39t-25 -20.5t-27.5 -7t-29 -1.5h-209q-17 0 -27.5 1t-27 6t-25 17.5t-8.5 32.5zM518 463h270l27 641l-2 2zM596 1385q-16 33 7 65 q14 19 38 27l256 88q16 7 39 0l227 -88q32 -17 33.5 -47t-27 -54.5t-61.5 -13.5l-215 68l-234 -68q-46 -13 -63 23z" />
<glyph unicode="&#xc3;" d="M70 57q0 2 0.5 5.5t2.5 12.5t6 16.5t12 15.5t18 12q10 6 100 6l522 1083q12 24 25.5 39t32 21t31 7t36.5 1q26 0 38.5 -1.5t27.5 -7.5t20.5 -21.5t5.5 -41.5l-18 -1079q26 0 40 -1t32 -6t26 -17.5t8 -32.5q0 -19 -6.5 -33t-14.5 -20.5t-22.5 -10t-23 -4t-23.5 -0.5h-209 q-18 0 -28.5 1t-26 6t-23.5 17.5t-8 32.5q0 50 39 64q10 4 94 4l4 213h-331l-103 -213q25 0 38 -1t31 -6t26 -17.5t8 -32.5q0 -24 -8.5 -39t-25 -20.5t-27.5 -7t-29 -1.5h-209q-17 0 -27.5 1t-27 6t-25 17.5t-8.5 32.5zM518 463h270l27 641l-2 2zM535 1423q0 31 34 54 q159 127 256 127q35 0 63 -14.5t42.5 -30t34.5 -43.5q19 -25 34 -25q10 0 22.5 3.5t27 11t27.5 14.5t29 17.5t25 16.5t23 16t16 11q33 23 50 23q27 0 45 -21.5t18 -44.5q0 -13 -7 -25.5t-28 -29t-31 -23.5t-43 -29q-8 -5 -12 -8q-100 -65 -172 -65q-34 0 -61.5 14 t-41.5 28.5t-34 41.5q-22 28 -37 28q-51 0 -162 -86q-24 -17 -33.5 -21.5t-23.5 -4.5q-25 0 -43 19.5t-18 45.5z" />
<glyph unicode="&#xc4;" d="M70 57q0 2 0.5 5.5t2.5 12.5t6 16.5t12 15.5t18 12q10 6 100 6l522 1083q12 24 25.5 39t32 21t31 7t36.5 1q26 0 38.5 -1.5t27.5 -7.5t20.5 -21.5t5.5 -41.5l-18 -1079q26 0 40 -1t32 -6t26 -17.5t8 -32.5q0 -19 -6.5 -33t-14.5 -20.5t-22.5 -10t-23 -4t-23.5 -0.5h-209 q-18 0 -28.5 1t-26 6t-23.5 17.5t-8 32.5q0 50 39 64q10 4 94 4l4 213h-331l-103 -213q25 0 38 -1t31 -6t26 -17.5t8 -32.5q0 -24 -8.5 -39t-25 -20.5t-27.5 -7t-29 -1.5h-209q-17 0 -27.5 1t-27 6t-25 17.5t-8.5 32.5zM518 463h270l27 641l-2 2zM629 1434q2 34 28.5 62 t63.5 28q32 0 54 -21t22 -55q0 -39 -29 -64.5t-61 -25.5q-35 0 -55.5 23t-22.5 53zM995 1434q2 34 28.5 62t63.5 28q32 0 54 -21t22 -55q0 -39 -29 -64.5t-61 -25.5q-35 0 -55.5 23t-22.5 53z" />
<glyph unicode="&#xc5;" d="M70 57q0 2 0.5 5.5t2.5 12.5t6 16.5t12 15.5t18 12q10 6 100 6l522 1083q12 24 25.5 39t32 21t31 7t36.5 1q26 0 38.5 -1.5t27.5 -7.5t20.5 -21.5t5.5 -41.5l-18 -1079q26 0 40 -1t32 -6t26 -17.5t8 -32.5q0 -19 -6.5 -33t-14.5 -20.5t-22.5 -10t-23 -4t-23.5 -0.5h-209 q-18 0 -28.5 1t-26 6t-23.5 17.5t-8 32.5q0 50 39 64q10 4 94 4l4 213h-331l-103 -213q25 0 38 -1t31 -6t26 -17.5t8 -32.5q0 -24 -8.5 -39t-25 -20.5t-27.5 -7t-29 -1.5h-209q-17 0 -27.5 1t-27 6t-25 17.5t-8.5 32.5zM518 463h270l27 641l-2 2zM680 1415q0 75 80.5 140 t185.5 65q73 0 124.5 -37t51.5 -102q0 -78 -80.5 -141.5t-185.5 -63.5q-78 0 -127 40.5t-49 98.5zM795 1432q0 -27 24.5 -45.5t63.5 -18.5q44 0 84.5 28.5t40.5 67.5q0 25 -18.5 40.5t-36 19.5t-33.5 4q-49 0 -87 -29.5t-38 -66.5z" />
<glyph unicode="&#xc6;" d="M61 57q0 20 6 33t13.5 20t26 10.5t31 4t40.5 0.5l451 1001q-19 0 -32.5 5.5t-20 13t-10.5 17t-4.5 14t-0.5 8.5q0 19 6.5 33t14.5 20.5t22 9.5t21.5 3.5t21.5 0.5h576q84 0 84 -57q0 -3 -7 -31l-43 -172q-14 -57 -59 -57q-24 0 -40.5 16.5t-16.5 40.5q0 3 5 25.5 t13.5 58.5t11.5 51h-233l-102 -415h219q84 0 84 -58q0 -19 -6.5 -33t-14.5 -20.5t-22 -9.5t-21.5 -3.5t-21.5 -0.5h-250l-115 -461h250l35 137q12 50 24 69t43 19q24 0 41 -17.5t17 -39.5q0 -10 -30.5 -132t-35.5 -130q-11 -21 -27.5 -26t-48.5 -5h-399q-84 0 -84 57 q0 32 17 48t33.5 18t47.5 2l62 250h-225l-113 -250q78 0 78 -57q0 -24 -8 -39t-23.5 -20.5t-25.5 -7t-27 -1.5h-146q-15 0 -25 1t-25.5 6t-23.5 17.5t-8 32.5zM463 500h201l157 626h-76z" />
<glyph unicode="&#xc7;" d="M213 434q0 152 57.5 305.5t150 270.5t215 190.5t245.5 73.5q144 0 247 -100q5 6 43 59q19 25 31 33t35 8q31 0 46 -18t15 -39q0 -11 -6 -29l-75 -305q-10 -39 -27 -50.5t-47 -11.5q-13 0 -25.5 2t-29.5 16.5t-17 41.5q0 2 2 16.5t2 38.5q0 97 -50.5 155t-137.5 58 q-92 0 -188.5 -63t-172 -162t-124 -230t-48.5 -258q0 -89 25.5 -162.5t83 -122.5t137.5 -49q24 0 54 5.5t73.5 23t81.5 45t75 78t58 115.5q6 20 20 30t24 11.5t26 1.5q69 0 69 -58q0 -37 -27 -89.5t-73.5 -107t-120.5 -101.5t-158 -66q-1 -2 -2 -6.5t-2 -6.5q47 -12 80 -33 t48.5 -46t21.5 -46t6 -40q0 -14 -2 -28.5t-12.5 -41t-27.5 -49.5t-52 -47t-82 -39q-109 -33 -346 -33q-34 0 -50 20t-16 39q0 20 6.5 33t15.5 20t30 10.5t36 4t49 0.5q308 0 308 109q0 16 -13 28t-32.5 17.5t-34.5 7.5t-27 2q-18 1 -31 7t-18.5 14t-9 16.5t-3.5 13.5l-1 6 q0 2 1.5 9.5t5 22.5t5.5 26q-157 13 -248.5 141.5t-91.5 312.5z" />
<glyph unicode="&#xc8;" d="M68 57q0 19 6.5 33t14.5 20.5t22 10t22 4t21 0.5h75l250 1001h-47q-82 0 -82 58q0 24 8 39t23.5 20.5t25.5 6.5t27 1h766q84 0 84 -57q0 -7 -6 -31l-43 -172q-8 -34 -24.5 -45.5t-47.5 -11.5q-71 0 -71 57q0 3 5 25.5t13.5 58.5t11.5 51h-499l-103 -415h266 q20 80 32.5 98t53.5 18q72 0 72 -57q0 -1 -6 -37l-51 -203q-9 -36 -25.5 -48.5t-48.5 -12.5q-42 0 -57 17.5t-15 39.5q0 14 13 60h-267l-114 -461h545l34 135q13 56 26 73t54 17q42 0 57 -17.5t15 -39.5q0 -10 -30.5 -132t-35.5 -130q-11 -21 -27 -26t-48 -5h-811 q-84 0 -84 57zM717 1585q14 31 43 49.5t57 18.5q9 0 35 -11l244 -122q15 -7 21.5 -12.5t10 -18t-7.5 -29.5q-11 -24 -38.5 -53t-63.5 -29q-5 0 -31 11l-248 120q-49 24 -22 76z" />
<glyph unicode="&#xc9;" d="M68 57q0 19 6.5 33t14.5 20.5t22 10t22 4t21 0.5h75l250 1001h-47q-82 0 -82 58q0 24 8 39t23.5 20.5t25.5 6.5t27 1h766q84 0 84 -57q0 -7 -6 -31l-43 -172q-8 -34 -24.5 -45.5t-47.5 -11.5q-71 0 -71 57q0 3 5 25.5t13.5 58.5t11.5 51h-499l-103 -415h266 q20 80 32.5 98t53.5 18q72 0 72 -57q0 -1 -6 -37l-51 -203q-9 -36 -25.5 -48.5t-48.5 -12.5q-42 0 -57 17.5t-15 39.5q0 14 13 60h-267l-114 -461h545l34 135q13 56 26 73t54 17q42 0 57 -17.5t15 -39.5q0 -10 -30.5 -132t-35.5 -130q-11 -21 -27 -26t-48 -5h-811 q-84 0 -84 57zM684 1460q0 25 13.5 37t41.5 23l305 122q29 11 39 11q28 0 48 -18.5t20 -49.5q0 -53 -61 -76l-308 -120q-33 -11 -37 -11q-25 0 -40 18t-18 34t-3 30z" />
<glyph unicode="&#xca;" d="M68 57q0 19 6.5 33t14.5 20.5t22 10t22 4t21 0.5h75l250 1001h-47q-82 0 -82 58q0 24 8 39t23.5 20.5t25.5 6.5t27 1h766q84 0 84 -57q0 -7 -6 -31l-43 -172q-8 -34 -24.5 -45.5t-47.5 -11.5q-71 0 -71 57q0 3 5 25.5t13.5 58.5t11.5 51h-499l-103 -415h266 q20 80 32.5 98t53.5 18q72 0 72 -57q0 -1 -6 -37l-51 -203q-9 -36 -25.5 -48.5t-48.5 -12.5q-42 0 -57 17.5t-15 39.5q0 14 13 60h-267l-114 -461h545l34 135q13 56 26 73t54 17q42 0 57 -17.5t15 -39.5q0 -10 -30.5 -132t-35.5 -130q-11 -21 -27 -26t-48 -5h-811 q-84 0 -84 57zM596 1385q-16 33 7 65q14 19 38 27l256 88q16 7 39 0l227 -88q32 -17 33.5 -47t-27 -54.5t-61.5 -13.5l-215 68l-234 -68q-46 -13 -63 23z" />
<glyph unicode="&#xcb;" d="M68 57q0 19 6.5 33t14.5 20.5t22 10t22 4t21 0.5h75l250 1001h-47q-82 0 -82 58q0 24 8 39t23.5 20.5t25.5 6.5t27 1h766q84 0 84 -57q0 -7 -6 -31l-43 -172q-8 -34 -24.5 -45.5t-47.5 -11.5q-71 0 -71 57q0 3 5 25.5t13.5 58.5t11.5 51h-499l-103 -415h266 q20 80 32.5 98t53.5 18q72 0 72 -57q0 -1 -6 -37l-51 -203q-9 -36 -25.5 -48.5t-48.5 -12.5q-42 0 -57 17.5t-15 39.5q0 14 13 60h-267l-114 -461h545l34 135q13 56 26 73t54 17q42 0 57 -17.5t15 -39.5q0 -10 -30.5 -132t-35.5 -130q-11 -21 -27 -26t-48 -5h-811 q-84 0 -84 57zM629 1434q2 34 28.5 62t63.5 28q32 0 54 -21t22 -55q0 -39 -29 -64.5t-61 -25.5q-35 0 -55.5 23t-22.5 53zM995 1434q2 34 28.5 62t63.5 28q32 0 54 -21t22 -55q0 -39 -29 -64.5t-61 -25.5q-35 0 -55.5 23t-22.5 53z" />
<glyph unicode="&#xcc;" d="M176 57q0 19 6.5 33t14.5 20.5t22 10t22 4t21 0.5h236l250 1001h-207q-82 0 -82 58q0 24 8 39t23.5 20.5t25.5 6.5t27 1h585q84 0 84 -57q0 -19 -7 -33t-15 -20.5t-22.5 -10t-22 -4t-19.5 -0.5h-235l-250 -1001h207q15 0 25 -1t25.5 -6t23.5 -17.5t8 -32.5 q0 -19 -6.5 -33t-14.5 -20.5t-22 -10t-22 -4t-21 -0.5h-584q-84 0 -84 57zM717 1585q14 31 43 49.5t57 18.5q9 0 35 -11l244 -122q15 -7 21.5 -12.5t10 -18t-7.5 -29.5q-11 -24 -38.5 -53t-63.5 -29q-5 0 -31 11l-248 120q-49 24 -22 76z" />
<glyph unicode="&#xcd;" d="M176 57q0 19 6.5 33t14.5 20.5t22 10t22 4t21 0.5h236l250 1001h-207q-82 0 -82 58q0 24 8 39t23.5 20.5t25.5 6.5t27 1h585q84 0 84 -57q0 -19 -7 -33t-15 -20.5t-22.5 -10t-22 -4t-19.5 -0.5h-235l-250 -1001h207q15 0 25 -1t25.5 -6t23.5 -17.5t8 -32.5 q0 -19 -6.5 -33t-14.5 -20.5t-22 -10t-22 -4t-21 -0.5h-584q-84 0 -84 57zM684 1460q0 25 13.5 37t41.5 23l305 122q29 11 39 11q28 0 48 -18.5t20 -49.5q0 -53 -61 -76l-308 -120q-33 -11 -37 -11q-25 0 -40 18t-18 34t-3 30z" />
<glyph unicode="&#xce;" d="M176 57q0 19 6.5 33t14.5 20.5t22 10t22 4t21 0.5h236l250 1001h-207q-82 0 -82 58q0 24 8 39t23.5 20.5t25.5 6.5t27 1h585q84 0 84 -57q0 -19 -7 -33t-15 -20.5t-22.5 -10t-22 -4t-19.5 -0.5h-235l-250 -1001h207q15 0 25 -1t25.5 -6t23.5 -17.5t8 -32.5 q0 -19 -6.5 -33t-14.5 -20.5t-22 -10t-22 -4t-21 -0.5h-584q-84 0 -84 57zM596 1385q-16 33 7 65q14 19 38 27l256 88q16 7 39 0l227 -88q32 -17 33.5 -47t-27 -54.5t-61.5 -13.5l-215 68l-234 -68q-46 -13 -63 23z" />
<glyph unicode="&#xcf;" d="M176 57q0 19 6.5 33t14.5 20.5t22 10t22 4t21 0.5h236l250 1001h-207q-82 0 -82 58q0 24 8 39t23.5 20.5t25.5 6.5t27 1h585q84 0 84 -57q0 -19 -7 -33t-15 -20.5t-22.5 -10t-22 -4t-19.5 -0.5h-235l-250 -1001h207q15 0 25 -1t25.5 -6t23.5 -17.5t8 -32.5 q0 -19 -6.5 -33t-14.5 -20.5t-22 -10t-22 -4t-21 -0.5h-584q-84 0 -84 57zM629 1434q2 34 28.5 62t63.5 28q32 0 54 -21t22 -55q0 -39 -29 -64.5t-61 -25.5q-35 0 -55.5 23t-22.5 53zM995 1434q2 34 28.5 62t63.5 28q32 0 54 -21t22 -55q0 -39 -29 -64.5t-61 -25.5 q-35 0 -55.5 23t-22.5 53z" />
<glyph unicode="&#xd0;" d="M53 57q0 19 6.5 33t14.5 20.5t22 10t22 4t21 0.5h60l108 438h-59q-27 0 -40.5 18.5t-6.5 45.5q6 26 29 44.5t49 18.5h61l109 436q-31 0 -46.5 1t-33.5 6.5t-25.5 17.5t-7.5 33q0 24 8 39t23.5 20.5t25.5 6.5t27 1h438q71 0 128 -26.5t92 -68.5t58.5 -98.5t32.5 -111.5 t9 -112q0 -148 -53 -299.5t-139 -269t-203 -191.5t-236 -74h-410q-84 0 -84 57zM342 125h197q98 0 191 62.5t158 159.5t104.5 217.5t39.5 234.5q0 24 -2.5 50.5t-10 67t-24.5 74.5t-42.5 66t-68 50.5t-96.5 18.5h-196l-109 -436h119q26 0 40 -18.5t7 -44.5 q-6 -27 -28.5 -45.5t-49.5 -18.5h-120z" />
<glyph unicode="&#xd1;" d="M72 57q0 24 8 39t23.5 20.5t25.5 7t27 1.5h65l250 1001h-35q-84 0 -84 58q0 19 6.5 33t14.5 20.5t22 9.5t21.5 3.5t21.5 0.5h82q109 0 133.5 -10t30.5 -65l123 -1018h2l240 968q-26 0 -39 0.5t-31 3.5t-26 9t-14.5 17t-6.5 28q0 19 6.5 33t14.5 20.5t22 9.5t21.5 3.5 t21.5 0.5h217q15 0 25 -1t25.5 -6t23.5 -17.5t8 -32.5q0 -19 -6.5 -33t-14.5 -20.5t-22 -10t-22 -4t-21 -0.5h-64l-264 -1063q-6 -23 -13 -36.5t-19.5 -19t-22.5 -6.5t-31 -1h-20q-30 0 -48.5 4.5t-27 17.5t-11 22t-5.5 32l-123 1018h-2l-242 -969h35q84 0 84 -57 q0 -19 -7 -33t-15 -20.5t-22.5 -10t-22 -4t-19.5 -0.5h-217q-15 0 -25 1t-25.5 6t-23.5 17.5t-8 32.5zM535 1423q0 31 34 54q159 127 256 127q35 0 63 -14.5t42.5 -30t34.5 -43.5q19 -25 34 -25q10 0 22.5 3.5t27 11t27.5 14.5t29 17.5t25 16.5t23 16t16 11q33 23 50 23 q27 0 45 -21.5t18 -44.5q0 -13 -7 -25.5t-28 -29t-31 -23.5t-43 -29q-8 -5 -12 -8q-100 -65 -172 -65q-34 0 -61.5 14t-41.5 28.5t-34 41.5q-22 28 -37 28q-51 0 -162 -86q-24 -17 -33.5 -21.5t-23.5 -4.5q-25 0 -43 19.5t-18 45.5z" />
<glyph unicode="&#xd2;" d="M188 174q0 122 74 420.5t123 417.5q46 113 98.5 167t134.5 74.5t238 20.5q79 0 129.5 -4t95.5 -15.5t68.5 -33t37 -57t13.5 -87.5q0 -119 -75 -422t-130 -432q-34 -80 -69 -127t-90.5 -74.5t-123.5 -36t-180 -8.5q-80 0 -132 4t-95.5 16t-67.5 34t-36.5 57t-12.5 86z M342 244q0 -79 47 -110.5t174 -31.5q57 0 98.5 5t74.5 18.5t55 31t42.5 50t35.5 66.5t34 89q31 95 88.5 323t57.5 325q0 85 -47.5 112t-178.5 27q-67 0 -111.5 -6.5t-79.5 -22t-60 -47t-45 -73.5t-42 -111q-33 -95 -88 -322.5t-55 -322.5zM717 1585q14 31 43 49.5t57 18.5 q9 0 35 -11l244 -122q15 -7 21.5 -12.5t10 -18t-7.5 -29.5q-11 -24 -38.5 -53t-63.5 -29q-5 0 -31 11l-248 120q-49 24 -22 76z" />
<glyph unicode="&#xd3;" d="M188 174q0 122 74 420.5t123 417.5q46 113 98.5 167t134.5 74.5t238 20.5q79 0 129.5 -4t95.5 -15.5t68.5 -33t37 -57t13.5 -87.5q0 -119 -75 -422t-130 -432q-34 -80 -69 -127t-90.5 -74.5t-123.5 -36t-180 -8.5q-80 0 -132 4t-95.5 16t-67.5 34t-36.5 57t-12.5 86z M342 244q0 -79 47 -110.5t174 -31.5q57 0 98.5 5t74.5 18.5t55 31t42.5 50t35.5 66.5t34 89q31 95 88.5 323t57.5 325q0 85 -47.5 112t-178.5 27q-67 0 -111.5 -6.5t-79.5 -22t-60 -47t-45 -73.5t-42 -111q-33 -95 -88 -322.5t-55 -322.5zM684 1460q0 25 13.5 37t41.5 23 l305 122q29 11 39 11q28 0 48 -18.5t20 -49.5q0 -53 -61 -76l-308 -120q-33 -11 -37 -11q-25 0 -40 18t-18 34t-3 30z" />
<glyph unicode="&#xd4;" d="M188 174q0 122 74 420.5t123 417.5q46 113 98.5 167t134.5 74.5t238 20.5q79 0 129.5 -4t95.5 -15.5t68.5 -33t37 -57t13.5 -87.5q0 -119 -75 -422t-130 -432q-34 -80 -69 -127t-90.5 -74.5t-123.5 -36t-180 -8.5q-80 0 -132 4t-95.5 16t-67.5 34t-36.5 57t-12.5 86z M342 244q0 -79 47 -110.5t174 -31.5q57 0 98.5 5t74.5 18.5t55 31t42.5 50t35.5 66.5t34 89q31 95 88.5 323t57.5 325q0 85 -47.5 112t-178.5 27q-67 0 -111.5 -6.5t-79.5 -22t-60 -47t-45 -73.5t-42 -111q-33 -95 -88 -322.5t-55 -322.5zM596 1385q-16 33 7 65q14 19 38 27 l256 88q16 7 39 0l227 -88q32 -17 33.5 -47t-27 -54.5t-61.5 -13.5l-215 68l-234 -68q-46 -13 -63 23z" />
<glyph unicode="&#xd5;" d="M188 174q0 122 74 420.5t123 417.5q46 113 98.5 167t134.5 74.5t238 20.5q79 0 129.5 -4t95.5 -15.5t68.5 -33t37 -57t13.5 -87.5q0 -119 -75 -422t-130 -432q-34 -80 -69 -127t-90.5 -74.5t-123.5 -36t-180 -8.5q-80 0 -132 4t-95.5 16t-67.5 34t-36.5 57t-12.5 86z M342 244q0 -79 47 -110.5t174 -31.5q57 0 98.5 5t74.5 18.5t55 31t42.5 50t35.5 66.5t34 89q31 95 88.5 323t57.5 325q0 85 -47.5 112t-178.5 27q-67 0 -111.5 -6.5t-79.5 -22t-60 -47t-45 -73.5t-42 -111q-33 -95 -88 -322.5t-55 -322.5zM535 1423q0 31 34 54 q159 127 256 127q35 0 63 -14.5t42.5 -30t34.5 -43.5q19 -25 34 -25q10 0 22.5 3.5t27 11t27.5 14.5t29 17.5t25 16.5t23 16t16 11q33 23 50 23q27 0 45 -21.5t18 -44.5q0 -13 -7 -25.5t-28 -29t-31 -23.5t-43 -29q-8 -5 -12 -8q-100 -65 -172 -65q-34 0 -61.5 14 t-41.5 28.5t-34 41.5q-22 28 -37 28q-51 0 -162 -86q-24 -17 -33.5 -21.5t-23.5 -4.5q-25 0 -43 19.5t-18 45.5z" />
<glyph unicode="&#xd6;" d="M188 174q0 122 74 420.5t123 417.5q46 113 98.5 167t134.5 74.5t238 20.5q79 0 129.5 -4t95.5 -15.5t68.5 -33t37 -57t13.5 -87.5q0 -119 -75 -422t-130 -432q-34 -80 -69 -127t-90.5 -74.5t-123.5 -36t-180 -8.5q-80 0 -132 4t-95.5 16t-67.5 34t-36.5 57t-12.5 86z M342 244q0 -79 47 -110.5t174 -31.5q57 0 98.5 5t74.5 18.5t55 31t42.5 50t35.5 66.5t34 89q31 95 88.5 323t57.5 325q0 85 -47.5 112t-178.5 27q-67 0 -111.5 -6.5t-79.5 -22t-60 -47t-45 -73.5t-42 -111q-33 -95 -88 -322.5t-55 -322.5zM629 1434q2 34 28.5 62t63.5 28 q32 0 54 -21t22 -55q0 -39 -29 -64.5t-61 -25.5q-35 0 -55.5 23t-22.5 53zM995 1434q2 34 28.5 62t63.5 28q32 0 54 -21t22 -55q0 -39 -29 -64.5t-61 -25.5q-35 0 -55.5 23t-22.5 53z" />
<glyph unicode="&#xd7;" d="M267.5 331q-3.5 15 9.5 33t19 24t21 20l275 217l-170 227q-38 46 12 88q28 22 63 25t56 -13q7 -5 22 -26l148 -195l240 191q84 67 137 28q50 -35 -25 -100l-4 -4l-272 -217l168 -221q10 -16 14.5 -27.5t0 -31t-25.5 -36.5q-27 -21 -62 -23.5t-56 11.5q-9 6 -23 29 l-147 194l-242 -192q-85 -68 -137 -29q-18 13 -21.5 28z" />
<glyph unicode="&#xd8;" d="M188 174q0 122 74 420.5t123 417.5q46 113 98.5 167t134.5 74.5t238 20.5q88 0 137 -4l68 116q19 39 55 39q20 0 43 -15t23 -46q0 -18 -64 -123q82 -40 82 -164q0 -119 -75 -422t-130 -432q-34 -80 -69 -127t-90.5 -74.5t-123.5 -36t-180 -8.5q-76 0 -137 5l-49 -88 q-16 -26 -20.5 -32.5t-15 -18.5t-18.5 -14.5t-20 -2.5q-18 0 -41.5 14.5t-23.5 46.5q0 17 29 66q4 6 16 29.5t16 29.5q-45 22 -62.5 61t-17.5 101zM317 252q0 -24 1 -37t8.5 -32.5t21.5 -32.5l574 997q-23 2 -97 2q-161 0 -228 -38t-118 -169q-40 -102 -101 -344t-61 -346z M467 104q23 -2 96 -2q160 0 227 38.5t119 166.5q42 110 102 352t60 340q0 72 -31 103z" />
<glyph unicode="&#xd9;" d="M244 309q0 59 16 125l172 692h-45q-82 0 -82 58q0 24 8 39t23.5 20.5t25.5 6.5t27 1h266q84 0 84 -57q0 -19 -7 -33t-15 -20.5t-22.5 -10t-22 -4t-19.5 -0.5h-75l-181 -725q-12 -55 -12 -94q0 -93 45 -149t119 -56q101 0 202.5 95.5t135.5 234.5l172 694h-45 q-82 0 -82 58q0 24 8 39t23.5 20.5t25.5 6.5t27 1h266q84 0 84 -57q0 -19 -7 -33t-15 -20.5t-22.5 -10t-22 -4t-19.5 -0.5h-76l-180 -727q-41 -167 -179.5 -294.5t-297.5 -127.5q-133 0 -218 94.5t-85 237.5zM717 1585q14 31 43 49.5t57 18.5q9 0 35 -11l244 -122 q15 -7 21.5 -12.5t10 -18t-7.5 -29.5q-11 -24 -38.5 -53t-63.5 -29q-5 0 -31 11l-248 120q-49 24 -22 76z" />
<glyph unicode="&#xda;" d="M244 309q0 59 16 125l172 692h-45q-82 0 -82 58q0 24 8 39t23.5 20.5t25.5 6.5t27 1h266q84 0 84 -57q0 -19 -7 -33t-15 -20.5t-22.5 -10t-22 -4t-19.5 -0.5h-75l-181 -725q-12 -55 -12 -94q0 -93 45 -149t119 -56q101 0 202.5 95.5t135.5 234.5l172 694h-45 q-82 0 -82 58q0 24 8 39t23.5 20.5t25.5 6.5t27 1h266q84 0 84 -57q0 -19 -7 -33t-15 -20.5t-22.5 -10t-22 -4t-19.5 -0.5h-76l-180 -727q-41 -167 -179.5 -294.5t-297.5 -127.5q-133 0 -218 94.5t-85 237.5zM684 1460q0 25 13.5 37t41.5 23l305 122q29 11 39 11 q28 0 48 -18.5t20 -49.5q0 -53 -61 -76l-308 -120q-33 -11 -37 -11q-25 0 -40 18t-18 34t-3 30z" />
<glyph unicode="&#xdb;" d="M244 309q0 59 16 125l172 692h-45q-82 0 -82 58q0 24 8 39t23.5 20.5t25.5 6.5t27 1h266q84 0 84 -57q0 -19 -7 -33t-15 -20.5t-22.5 -10t-22 -4t-19.5 -0.5h-75l-181 -725q-12 -55 -12 -94q0 -93 45 -149t119 -56q101 0 202.5 95.5t135.5 234.5l172 694h-45 q-82 0 -82 58q0 24 8 39t23.5 20.5t25.5 6.5t27 1h266q84 0 84 -57q0 -19 -7 -33t-15 -20.5t-22.5 -10t-22 -4t-19.5 -0.5h-76l-180 -727q-41 -167 -179.5 -294.5t-297.5 -127.5q-133 0 -218 94.5t-85 237.5zM596 1385q-16 33 7 65q14 19 38 27l256 88q16 7 39 0l227 -88 q32 -17 33.5 -47t-27 -54.5t-61.5 -13.5l-215 68l-234 -68q-46 -13 -63 23z" />
<glyph unicode="&#xdc;" d="M244 309q0 59 16 125l172 692h-45q-82 0 -82 58q0 24 8 39t23.5 20.5t25.5 6.5t27 1h266q84 0 84 -57q0 -19 -7 -33t-15 -20.5t-22.5 -10t-22 -4t-19.5 -0.5h-75l-181 -725q-12 -55 -12 -94q0 -93 45 -149t119 -56q101 0 202.5 95.5t135.5 234.5l172 694h-45 q-82 0 -82 58q0 24 8 39t23.5 20.5t25.5 6.5t27 1h266q84 0 84 -57q0 -19 -7 -33t-15 -20.5t-22.5 -10t-22 -4t-19.5 -0.5h-76l-180 -727q-41 -167 -179.5 -294.5t-297.5 -127.5q-133 0 -218 94.5t-85 237.5zM629 1434q2 34 28.5 62t63.5 28q32 0 54 -21t22 -55 q0 -39 -29 -64.5t-61 -25.5q-35 0 -55.5 23t-22.5 53zM995 1434q2 34 28.5 62t63.5 28q32 0 54 -21t22 -55q0 -39 -29 -64.5t-61 -25.5q-35 0 -55.5 23t-22.5 53z" />
<glyph unicode="&#xdd;" d="M334 1184q0 19 6.5 33t14.5 20.5t22 9.5t21.5 3.5t21.5 0.5h213q15 0 25 -1t25.5 -6t23.5 -17.5t8 -32.5t-6.5 -33.5t-14.5 -20t-25.5 -10t-29 -4t-35.5 -0.5q66 -312 79.5 -379.5t16.5 -103.5q33 67 129 201l205 282q-80 0 -80 58q0 19 6.5 33t14.5 20.5t22 9.5 t21.5 3.5t21.5 0.5h213q15 0 25 -1t25.5 -6t23.5 -17.5t8 -32.5q0 -19 -6.5 -33t-14.5 -20.5t-22 -10t-22 -4t-21 -0.5h-57l-459 -626l-94 -375h37q84 0 84 -57q0 -19 -7 -33t-15 -20.5t-22.5 -10t-22 -4t-19.5 -0.5h-244q-15 0 -25 1t-25.5 6t-23.5 17.5t-8 32.5q0 24 8 39 t23.5 20.5t25.5 7t27 1.5h66l94 375l-146 626q-24 0 -36.5 0.5t-29.5 3.5t-25.5 9t-14.5 17t-6 28zM684 1460q0 25 13.5 37t41.5 23l305 122q29 11 39 11q28 0 48 -18.5t20 -49.5q0 -53 -61 -76l-308 -120q-33 -11 -37 -11q-25 0 -40 18t-18 34t-3 30z" />
<glyph unicode="&#xde;" d="M59 57q0 24 8 39t23.5 20.5t25.5 7t27 1.5h66l250 1001h-35q-84 0 -84 58q0 19 6.5 33t14.5 20.5t22 9.5t21.5 3.5t21.5 0.5h244q15 0 25 -1t25.5 -6t23.5 -17.5t8 -32.5q0 -19 -6.5 -33t-14.5 -20.5t-22 -10t-22 -4t-21 -0.5h-64l-31 -125h256q79 0 140.5 -26t97 -68 t53 -90.5t17.5 -99.5q0 -81 -39.5 -164.5t-104.5 -150t-158.5 -108.5t-193.5 -42h-256l-31 -127h35q84 0 84 -57q0 -19 -7 -33t-15 -20.5t-22.5 -10t-22 -4t-19.5 -0.5h-244q-15 0 -25 1t-25.5 6t-23.5 17.5t-8 32.5zM418 377h215q149 0 251.5 96t102.5 207q0 83 -57.5 140 t-171.5 57h-217z" />
<glyph unicode="&#xdf;" d="M72 -328q0 65 33 94t69 29q31 0 53.5 -16.5t30.5 -42.5h2q3 11 24.5 91.5t45 174t39.5 174.5l116 582h-67q-84 0 -84 57q0 19 6.5 33t14.5 20.5t22 10t22 4t21 0.5h92q31 168 56 228q41 97 132 130q63 23 160 23q67 0 117.5 -12t78.5 -30t45.5 -42t23 -44.5t5.5 -41.5 q0 -55 -59 -228q-17 -46 -36.5 -79.5t-30.5 -45.5t-33 -32q-57 -51 -72.5 -74.5t-15.5 -48.5q0 -45 55 -109q76 -86 76 -182q0 -64 -32.5 -134t-96 -121.5t-137.5 -51.5q-78 0 -129.5 44.5t-51.5 110.5q0 33 11 57t28 34.5t30 15t23 4.5q30 0 54 -20.5t24 -55.5 q0 -16 -4.5 -29.5t-8.5 -19.5l-5 -6q13 -10 31 -10q48 0 85 66.5t37 109.5q0 41 -47 100q-84 95 -84 193q0 60 26.5 105.5t96.5 111.5q31 28 44 47.5t34 75.5q13 36 29 98t16 72q0 20 -30.5 33.5t-98.5 13.5q-89 0 -125.5 -27t-54.5 -117l-186 -929q-27 -135 -51.5 -225 t-58.5 -164t-77.5 -109t-99.5 -35q-59 0 -96 39.5t-37 99.5z" />
<glyph unicode="&#xe0;" d="M258 303q0 140 62.5 278t165.5 226t210 88q99 0 172 -82q6 17 25.5 34t46.5 17t47.5 -18.5t20.5 -48.5q0 -6 -9 -41l-133 -535q-8 -32 -8 -49q0 -59 43 -59q19 0 37 32t27.5 63t15.5 58q7 28 11.5 40t13 25t21.5 17t34 4q24 0 40.5 -7.5t22.5 -18.5t7.5 -18t1.5 -13 q0 -17 -21 -84.5t-47 -112.5q-65 -110 -166 -110q-39 0 -71 13t-51.5 32.5t-30 34.5t-15.5 28q-19 -19 -43.5 -38.5t-79.5 -44.5t-108 -25q-105 0 -173.5 85.5t-68.5 229.5zM397 295q0 -21 4 -47.5t14 -59t33 -54t54 -21.5q61 0 130 68t117 180t48 225q0 77 -26 130.5 t-79 53.5q-61 0 -130 -69.5t-117 -182t-48 -223.5zM623 1206q14 31 43 49.5t57 18.5q12 0 35 -10l243 -123q15 -7 21.5 -12.5t10.5 -18t-7 -29.5q-11 -24 -38.5 -53t-63.5 -29q-5 0 -31 11l-248 120q-49 24 -22 76z" />
<glyph unicode="&#xe1;" d="M258 303q0 140 62.5 278t165.5 226t210 88q99 0 172 -82q6 17 25.5 34t46.5 17t47.5 -18.5t20.5 -48.5q0 -6 -9 -41l-133 -535q-8 -32 -8 -49q0 -59 43 -59q19 0 37 32t27.5 63t15.5 58q7 28 11.5 40t13 25t21.5 17t34 4q24 0 40.5 -7.5t22.5 -18.5t7.5 -18t1.5 -13 q0 -17 -21 -84.5t-47 -112.5q-65 -110 -166 -110q-39 0 -71 13t-51.5 32.5t-30 34.5t-15.5 28q-19 -19 -43.5 -38.5t-79.5 -44.5t-108 -25q-105 0 -173.5 85.5t-68.5 229.5zM397 295q0 -21 4 -47.5t14 -59t33 -54t54 -21.5q61 0 130 68t117 180t48 225q0 77 -26 130.5 t-79 53.5q-61 0 -130 -69.5t-117 -182t-48 -223.5zM590 1081q0 25 13.5 37t41.5 23l305 123q27 10 39 10q28 0 48 -18.5t20 -49.5q0 -52 -62 -76l-307 -120q-33 -11 -37 -11q-25 0 -40 18t-18 34t-3 30z" />
<glyph unicode="&#xe2;" d="M258 303q0 140 62.5 278t165.5 226t210 88q99 0 172 -82q6 17 25.5 34t46.5 17t47.5 -18.5t20.5 -48.5q0 -6 -9 -41l-133 -535q-8 -32 -8 -49q0 -59 43 -59q19 0 37 32t27.5 63t15.5 58q7 28 11.5 40t13 25t21.5 17t34 4q24 0 40.5 -7.5t22.5 -18.5t7.5 -18t1.5 -13 q0 -17 -21 -84.5t-47 -112.5q-65 -110 -166 -110q-39 0 -71 13t-51.5 32.5t-30 34.5t-15.5 28q-19 -19 -43.5 -38.5t-79.5 -44.5t-108 -25q-105 0 -173.5 85.5t-68.5 229.5zM397 295q0 -21 4 -47.5t14 -59t33 -54t54 -21.5q61 0 130 68t117 180t48 225q0 77 -26 130.5 t-79 53.5q-61 0 -130 -69.5t-117 -182t-48 -223.5zM501 1057.5q2 34.5 38 54.5l268 154q34 20 61 0l215 -154q17 -12 20.5 -31t-5 -35.5t-23 -30t-33.5 -15t-36 9.5l-191 127l-229 -127q-37 -16 -62 -1.5t-23 49z" />
<glyph unicode="&#xe3;" d="M258 303q0 140 62.5 278t165.5 226t210 88q99 0 172 -82q6 17 25.5 34t46.5 17t47.5 -18.5t20.5 -48.5q0 -6 -9 -41l-133 -535q-8 -32 -8 -49q0 -59 43 -59q19 0 37 32t27.5 63t15.5 58q7 28 11.5 40t13 25t21.5 17t34 4q24 0 40.5 -7.5t22.5 -18.5t7.5 -18t1.5 -13 q0 -17 -21 -84.5t-47 -112.5q-65 -110 -166 -110q-39 0 -71 13t-51.5 32.5t-30 34.5t-15.5 28q-19 -19 -43.5 -38.5t-79.5 -44.5t-108 -25q-105 0 -173.5 85.5t-68.5 229.5zM397 295q0 -21 4 -47.5t14 -59t33 -54t54 -21.5q61 0 130 68t117 180t48 225q0 77 -26 130.5 t-79 53.5q-61 0 -130 -69.5t-117 -182t-48 -223.5zM449 1079q0 31 34 54q159 127 256 127q34 0 63 -15t43 -30.5t34 -43.5q18 -24 34 -24q10 0 22.5 3.5t27 11t27.5 14.5t29 17.5t25 16.5t23 16t16 11q33 23 50 23q27 0 45 -21.5t18 -44.5q0 -13 -7 -25.5t-28 -29t-31 -23.5 t-43 -29q-8 -5 -12 -8q-100 -65 -172 -65q-34 0 -61.5 14t-41.5 28.5t-34 41.5q-22 28 -37 28q-51 0 -162 -86q-24 -17 -33.5 -21.5t-23.5 -4.5q-25 0 -43 19.5t-18 45.5z" />
<glyph unicode="&#xe4;" d="M258 303q0 140 62.5 278t165.5 226t210 88q99 0 172 -82q6 17 25.5 34t46.5 17t47.5 -18.5t20.5 -48.5q0 -6 -9 -41l-133 -535q-8 -32 -8 -49q0 -59 43 -59q19 0 37 32t27.5 63t15.5 58q7 28 11.5 40t13 25t21.5 17t34 4q24 0 40.5 -7.5t22.5 -18.5t7.5 -18t1.5 -13 q0 -17 -21 -84.5t-47 -112.5q-65 -110 -166 -110q-39 0 -71 13t-51.5 32.5t-30 34.5t-15.5 28q-19 -19 -43.5 -38.5t-79.5 -44.5t-108 -25q-105 0 -173.5 85.5t-68.5 229.5zM397 295q0 -21 4 -47.5t14 -59t33 -54t54 -21.5q61 0 130 68t117 180t48 225q0 77 -26 130.5 t-79 53.5q-61 0 -130 -69.5t-117 -182t-48 -223.5zM584 1130q0 34 27.5 62.5t64.5 28.5q32 0 53 -21t21 -55q1 -38 -28.5 -64t-62.5 -26q-36 0 -55.5 23t-19.5 52zM893 1130q0 34 27.5 62.5t64.5 28.5q32 0 53 -21t21 -55q1 -39 -28.5 -64.5t-61.5 -25.5q-36 0 -56 23 t-20 52z" />
<glyph unicode="&#xe5;" d="M258 303q0 140 62.5 278t165.5 226t210 88q99 0 172 -82q6 17 25.5 34t46.5 17t47.5 -18.5t20.5 -48.5q0 -6 -9 -41l-133 -535q-8 -32 -8 -49q0 -59 43 -59q19 0 37 32t27.5 63t15.5 58q7 28 11.5 40t13 25t21.5 17t34 4q24 0 40.5 -7.5t22.5 -18.5t7.5 -18t1.5 -13 q0 -17 -21 -84.5t-47 -112.5q-65 -110 -166 -110q-39 0 -71 13t-51.5 32.5t-30 34.5t-15.5 28q-19 -19 -43.5 -38.5t-79.5 -44.5t-108 -25q-105 0 -173.5 85.5t-68.5 229.5zM397 295q0 -21 4 -47.5t14 -59t33 -54t54 -21.5q61 0 130 68t117 180t48 225q0 77 -26 130.5 t-79 53.5q-61 0 -130 -69.5t-117 -182t-48 -223.5zM612 1147q0 75 81 140t186 65q73 0 124.5 -37.5t51.5 -102.5q0 -78 -80.5 -141t-186.5 -63q-78 0 -127 40.5t-49 98.5zM727 1163q0 -27 24.5 -45t63.5 -18q44 0 84.5 28.5t40.5 67.5q0 25 -18 40.5t-35.5 19.5t-34.5 4 q-49 0 -87 -30t-38 -67z" />
<glyph unicode="&#xe6;" d="M121 223q0 90 57.5 205t145.5 203q84 84 186 150.5t161.5 92t73.5 25.5q24 0 43 -17.5t19 -62.5q91 76 186 76q84 0 132.5 -58t48.5 -139q0 -137 -118 -224t-360 -87q-8 -56 -8 -84q0 -25 4 -51.5t15 -60.5t36.5 -56t61.5 -22q21 0 45.5 2.5t80.5 25.5t97 64q20 20 43 20 q24 0 40.5 -15.5t16.5 -41.5q0 -32 -48 -74t-126.5 -74t-152.5 -32q-118 0 -180 104q-7 -30 -10.5 -44t-11.5 -30.5t-19.5 -23t-28.5 -6.5q-22 0 -39 14t-20 47q-69 -61 -150 -61q-90 0 -155.5 63t-65.5 172zM262 221q0 -59 26 -83.5t58 -24.5q37 0 81 39t85 104 q25 42 44 89t28.5 81.5t27.5 108.5l50 192q-101 -53 -181.5 -125.5t-126 -143t-69 -131.5t-23.5 -106zM731 512q39 2 71 5.5t72 10.5t70.5 20t57 31.5t41 47.5t14.5 65q0 78 -68 78q-64 0 -141 -75t-117 -183z" />
<glyph unicode="&#xe7;" d="M266 -367q0 20 6.5 33t15.5 20t30 10.5t36 4t49 0.5q308 0 308 109q0 16 -13 28t-32.5 17.5t-34.5 7.5t-27 2q-18 1 -31 7t-18.5 14t-9 16.5t-3.5 13.5l-1 6q0 8 16 70q-103 16 -168 78q-108 103 -108 264q0 139 75 270t196.5 211t250.5 80q109 0 177.5 -56t68.5 -139 q0 -55 -29.5 -90t-75.5 -35q-35 0 -59.5 21.5t-24.5 60.5q0 51 35 76q-32 37 -96 37q-87 0 -174.5 -62t-145 -165t-57.5 -211q0 -62 19 -106.5t42.5 -65.5t58.5 -32.5t52 -13t39 -1.5q104 0 178 17.5t100.5 34t55.5 42.5q24 18 45 18q25 0 48 -23.5t23 -49.5 q0 -31 -39.5 -62.5t-75 -47.5t-61.5 -24q-90 -26 -205 -30l-4 -11q47 -12 80 -33t48.5 -46t21.5 -46t6 -40q0 -14 -2 -28.5t-12.5 -41t-27.5 -49.5t-52 -47t-82 -39q-109 -33 -346 -33q-34 0 -50 20t-16 39z" />
<glyph unicode="&#xe8;" d="M283 338q0 144 76.5 274t196.5 206.5t247 76.5q112 0 183 -60.5t71 -152.5q0 -17 -2.5 -35.5t-13 -48t-28 -55.5t-52 -54.5t-80.5 -48.5q-118 -53 -349 -53h-67q-29 0 -35 -7.5t-6 -45.5q0 -45 10 -81.5t24 -59t36 -39t39.5 -24t40.5 -12t34 -5t25 -0.5q104 0 178 17.5 t100.5 34t55.5 42.5q24 18 45 18q25 0 48 -23.5t23 -49.5q0 -31 -39.5 -62.5t-75 -47.5t-61.5 -24q-93 -30 -266 -30q-40 0 -63 2t-60.5 9.5t-71.5 28.5t-67 54q-96 93 -96 256zM463 512h61q391 0 391 170q0 40 -32 64t-84 24q-91 0 -187.5 -71t-148.5 -187zM623 1206 q14 31 43 49.5t57 18.5q12 0 35 -10l243 -123q15 -7 21.5 -12.5t10.5 -18t-7 -29.5q-11 -24 -38.5 -53t-63.5 -29q-5 0 -31 11l-248 120q-49 24 -22 76z" />
<glyph unicode="&#xe9;" d="M283 338q0 144 76.5 274t196.5 206.5t247 76.5q112 0 183 -60.5t71 -152.5q0 -17 -2.5 -35.5t-13 -48t-28 -55.5t-52 -54.5t-80.5 -48.5q-118 -53 -349 -53h-67q-29 0 -35 -7.5t-6 -45.5q0 -45 10 -81.5t24 -59t36 -39t39.5 -24t40.5 -12t34 -5t25 -0.5q104 0 178 17.5 t100.5 34t55.5 42.5q24 18 45 18q25 0 48 -23.5t23 -49.5q0 -31 -39.5 -62.5t-75 -47.5t-61.5 -24q-93 -30 -266 -30q-40 0 -63 2t-60.5 9.5t-71.5 28.5t-67 54q-96 93 -96 256zM463 512h61q391 0 391 170q0 40 -32 64t-84 24q-91 0 -187.5 -71t-148.5 -187zM590 1081 q0 25 13.5 37t41.5 23l305 123q27 10 39 10q28 0 48 -18.5t20 -49.5q0 -52 -62 -76l-307 -120q-33 -11 -37 -11q-25 0 -40 18t-18 34t-3 30z" />
<glyph unicode="&#xea;" d="M283 338q0 144 76.5 274t196.5 206.5t247 76.5q112 0 183 -60.5t71 -152.5q0 -17 -2.5 -35.5t-13 -48t-28 -55.5t-52 -54.5t-80.5 -48.5q-118 -53 -349 -53h-67q-29 0 -35 -7.5t-6 -45.5q0 -45 10 -81.5t24 -59t36 -39t39.5 -24t40.5 -12t34 -5t25 -0.5q104 0 178 17.5 t100.5 34t55.5 42.5q24 18 45 18q25 0 48 -23.5t23 -49.5q0 -31 -39.5 -62.5t-75 -47.5t-61.5 -24q-93 -30 -266 -30q-40 0 -63 2t-60.5 9.5t-71.5 28.5t-67 54q-96 93 -96 256zM463 512h61q391 0 391 170q0 40 -32 64t-84 24q-91 0 -187.5 -71t-148.5 -187zM501 1057.5 q2 34.5 38 54.5l268 154q34 20 61 0l215 -154q17 -12 20.5 -31t-5 -35.5t-23 -30t-33.5 -15t-36 9.5l-191 127l-229 -127q-37 -16 -62 -1.5t-23 49z" />
<glyph unicode="&#xeb;" d="M283 338q0 144 76.5 274t196.5 206.5t247 76.5q112 0 183 -60.5t71 -152.5q0 -17 -2.5 -35.5t-13 -48t-28 -55.5t-52 -54.5t-80.5 -48.5q-118 -53 -349 -53h-67q-29 0 -35 -7.5t-6 -45.5q0 -45 10 -81.5t24 -59t36 -39t39.5 -24t40.5 -12t34 -5t25 -0.5q104 0 178 17.5 t100.5 34t55.5 42.5q24 18 45 18q25 0 48 -23.5t23 -49.5q0 -31 -39.5 -62.5t-75 -47.5t-61.5 -24q-93 -30 -266 -30q-40 0 -63 2t-60.5 9.5t-71.5 28.5t-67 54q-96 93 -96 256zM463 512h61q391 0 391 170q0 40 -32 64t-84 24q-91 0 -187.5 -71t-148.5 -187zM584 1130 q0 34 27.5 62.5t64.5 28.5q32 0 53 -21t21 -55q1 -38 -28.5 -64t-62.5 -26q-36 0 -55.5 23t-19.5 52zM893 1130q0 34 27.5 62.5t64.5 28.5q32 0 53 -21t21 -55q1 -39 -28.5 -64.5t-61.5 -25.5q-36 0 -56 23t-20 52z" />
<glyph unicode="&#xec;" d="M293 588q0 28 22.5 77t61 101.5t103.5 90.5t138 38q84 0 141.5 -50.5t57.5 -129.5q0 -26 -6 -46t-31 -83l-49 -123l-65 -164q-45 -121 -45 -131q0 -29 17.5 -42t43.5 -13q49 0 101 50t77 136q5 17 10 26t20.5 18t41.5 9q24 0 40.5 -7.5t22.5 -18.5t7.5 -18t1.5 -13 q0 -21 -13.5 -57t-41.5 -79.5t-65.5 -81.5t-92 -63.5t-113.5 -25.5q-84 0 -141.5 50t-57.5 130q0 36 17 82l170 422q10 30 10 43q0 26 -17 40.5t-45 14.5q-18 0 -39 -8.5t-47 -27.5t-51.5 -58.5t-42.5 -93.5q-9 -27 -23 -39.5t-49 -12.5q-28 0 -44.5 12t-20.5 23.5t-4 22.5z M623 1206q14 31 43 49.5t57 18.5q12 0 35 -10l243 -123q15 -7 21.5 -12.5t10.5 -18t-7 -29.5q-11 -24 -38.5 -53t-63.5 -29q-5 0 -31 11l-248 120q-49 24 -22 76z" />
<glyph unicode="&#xed;" d="M293 588q0 28 22.5 77t61 101.5t103.5 90.5t138 38q84 0 141.5 -50.5t57.5 -129.5q0 -26 -6 -46t-31 -83l-49 -123l-65 -164q-45 -121 -45 -131q0 -29 17.5 -42t43.5 -13q49 0 101 50t77 136q5 17 10 26t20.5 18t41.5 9q24 0 40.5 -7.5t22.5 -18.5t7.5 -18t1.5 -13 q0 -21 -13.5 -57t-41.5 -79.5t-65.5 -81.5t-92 -63.5t-113.5 -25.5q-84 0 -141.5 50t-57.5 130q0 36 17 82l170 422q10 30 10 43q0 26 -17 40.5t-45 14.5q-18 0 -39 -8.5t-47 -27.5t-51.5 -58.5t-42.5 -93.5q-9 -27 -23 -39.5t-49 -12.5q-28 0 -44.5 12t-20.5 23.5t-4 22.5z M590 1081q0 25 13.5 37t41.5 23l305 123q27 10 39 10q28 0 48 -18.5t20 -49.5q0 -52 -62 -76l-307 -120q-33 -11 -37 -11q-25 0 -40 18t-18 34t-3 30z" />
<glyph unicode="&#xee;" d="M293 588q0 28 22.5 77t61 101.5t103.5 90.5t138 38q84 0 141.5 -50.5t57.5 -129.5q0 -26 -6 -46t-31 -83l-49 -123l-65 -164q-45 -121 -45 -131q0 -29 17.5 -42t43.5 -13q49 0 101 50t77 136q5 17 10 26t20.5 18t41.5 9q24 0 40.5 -7.5t22.5 -18.5t7.5 -18t1.5 -13 q0 -21 -13.5 -57t-41.5 -79.5t-65.5 -81.5t-92 -63.5t-113.5 -25.5q-84 0 -141.5 50t-57.5 130q0 36 17 82l170 422q10 30 10 43q0 26 -17 40.5t-45 14.5q-18 0 -39 -8.5t-47 -27.5t-51.5 -58.5t-42.5 -93.5q-9 -27 -23 -39.5t-49 -12.5q-28 0 -44.5 12t-20.5 23.5t-4 22.5z M501 1057.5q2 34.5 38 54.5l268 154q34 20 61 0l215 -154q17 -12 20.5 -31t-5 -35.5t-23 -30t-33.5 -15t-36 9.5l-191 127l-229 -127q-37 -16 -62 -1.5t-23 49z" />
<glyph unicode="&#xef;" d="M293 588q0 28 22.5 77t61 101.5t103.5 90.5t138 38q84 0 141.5 -50.5t57.5 -129.5q0 -26 -6 -46t-31 -83l-49 -123l-65 -164q-45 -121 -45 -131q0 -29 17.5 -42t43.5 -13q49 0 101 50t77 136q5 17 10 26t20.5 18t41.5 9q24 0 40.5 -7.5t22.5 -18.5t7.5 -18t1.5 -13 q0 -21 -13.5 -57t-41.5 -79.5t-65.5 -81.5t-92 -63.5t-113.5 -25.5q-84 0 -141.5 50t-57.5 130q0 36 17 82l170 422q10 30 10 43q0 26 -17 40.5t-45 14.5q-18 0 -39 -8.5t-47 -27.5t-51.5 -58.5t-42.5 -93.5q-9 -27 -23 -39.5t-49 -12.5q-28 0 -44.5 12t-20.5 23.5t-4 22.5z M584 1130q0 34 27.5 62.5t64.5 28.5q32 0 53 -21t21 -55q1 -38 -28.5 -64t-62.5 -26q-36 0 -55.5 23t-19.5 52zM893 1130q0 34 27.5 62.5t64.5 28.5q32 0 53 -21t21 -55q1 -39 -28.5 -64.5t-61.5 -25.5q-36 0 -56 23t-20 52z" />
<glyph unicode="&#xf0;" d="M260 322q0 104 42 209t109 184.5t156 129.5t178 50q127 0 207 -92q17 139 -8 217l-51 -37q-17 -14 -45 -14q-27 0 -40.5 18t-6.5 45q6 27 33 47l45 31q-47 29 -111 29q-26 0 -39.5 18.5t-7.5 44.5t30 45t50 19q120 0 192 -72l60 43q21 14 45 14q26 0 39.5 -18.5 t7.5 -44.5q-6 -27 -33 -47l-61 -43q34 -83 34 -217q0 -189 -67 -457q-41 -152 -137 -262q-71 -80 -158 -127t-174 -47q-128 0 -208.5 95t-80.5 239zM401 317q0 -86 39 -145t113 -59q46 0 95.5 25t92.5 70t78 101t55.5 123.5t20.5 132.5q0 49 -13.5 93t-49.5 78t-89 34 q-57 0 -118.5 -39t-110.5 -101t-81 -146t-32 -167z" />
<glyph unicode="&#xf1;" d="M164 588q0 18 19.5 86t41.5 110q60 111 162 111q46 0 90.5 -26t65.5 -87q113 113 248 113q94 0 148 -57.5t54 -155.5q0 -103 -106 -414q-35 -103 -35 -123q0 -32 18 -32q33 0 63.5 48t53.5 126q6 23 11.5 34.5t21 21t41.5 9.5q24 0 40.5 -7.5t22.5 -18.5t7.5 -18t1.5 -13 q0 -12 -9 -44.5t-30.5 -78t-51 -86t-76.5 -69.5t-100 -29q-68 0 -110.5 46.5t-42.5 119.5q0 42 22 110q117 325 117 420q0 48 -16.5 67t-49.5 19q-118 0 -217 -184q-74 -144 -153 -461q-21 -84 -36.5 -110.5t-55.5 -26.5q-27 0 -47.5 18.5t-20.5 48.5q0 12 8 41l144 572 q6 24 6 49q0 51 -27 51q-23 0 -44.5 -56.5t-29.5 -99.5q-12 -49 -25.5 -65.5t-54.5 -16.5q-28 0 -44.5 12t-20.5 23.5t-4 22.5zM449 1079q0 31 34 54q159 127 256 127q34 0 63 -15t43 -30.5t34 -43.5q18 -24 34 -24q10 0 22.5 3.5t27 11t27.5 14.5t29 17.5t25 16.5t23 16 t16 11q33 23 50 23q27 0 45 -21.5t18 -44.5q0 -13 -7 -25.5t-28 -29t-31 -23.5t-43 -29q-8 -5 -12 -8q-100 -65 -172 -65q-34 0 -61.5 14t-41.5 28.5t-34 41.5q-22 28 -37 28q-51 0 -162 -86q-24 -17 -33.5 -21.5t-23.5 -4.5q-25 0 -43 19.5t-18 45.5z" />
<glyph unicode="&#xf2;" d="M260 322q0 104 42 209t109 184.5t156 129.5t178 50q122 0 205.5 -89t83.5 -245q0 -109 -42.5 -215t-110.5 -184t-156 -126t-176 -48q-128 0 -208.5 95t-80.5 239zM401 317q0 -86 39 -145t113 -59q46 0 95.5 25t92.5 70t78 101t55.5 123.5t20.5 132.5q0 49 -13.5 93 t-49.5 78t-89 34q-57 0 -118.5 -39t-110.5 -101t-81 -146t-32 -167zM623 1206q14 31 43 49.5t57 18.5q12 0 35 -10l243 -123q15 -7 21.5 -12.5t10.5 -18t-7 -29.5q-11 -24 -38.5 -53t-63.5 -29q-5 0 -31 11l-248 120q-49 24 -22 76z" />
<glyph unicode="&#xf3;" d="M260 322q0 104 42 209t109 184.5t156 129.5t178 50q122 0 205.5 -89t83.5 -245q0 -109 -42.5 -215t-110.5 -184t-156 -126t-176 -48q-128 0 -208.5 95t-80.5 239zM401 317q0 -86 39 -145t113 -59q46 0 95.5 25t92.5 70t78 101t55.5 123.5t20.5 132.5q0 49 -13.5 93 t-49.5 78t-89 34q-57 0 -118.5 -39t-110.5 -101t-81 -146t-32 -167zM590 1081q0 25 13.5 37t41.5 23l305 123q27 10 39 10q28 0 48 -18.5t20 -49.5q0 -52 -62 -76l-307 -120q-33 -11 -37 -11q-25 0 -40 18t-18 34t-3 30z" />
<glyph unicode="&#xf4;" d="M260 322q0 104 42 209t109 184.5t156 129.5t178 50q122 0 205.5 -89t83.5 -245q0 -109 -42.5 -215t-110.5 -184t-156 -126t-176 -48q-128 0 -208.5 95t-80.5 239zM401 317q0 -86 39 -145t113 -59q46 0 95.5 25t92.5 70t78 101t55.5 123.5t20.5 132.5q0 49 -13.5 93 t-49.5 78t-89 34q-57 0 -118.5 -39t-110.5 -101t-81 -146t-32 -167zM501 1057.5q2 34.5 38 54.5l268 154q34 20 61 0l215 -154q17 -12 20.5 -31t-5 -35.5t-23 -30t-33.5 -15t-36 9.5l-191 127l-229 -127q-37 -16 -62 -1.5t-23 49z" />
<glyph unicode="&#xf5;" d="M260 322q0 104 42 209t109 184.5t156 129.5t178 50q122 0 205.5 -89t83.5 -245q0 -109 -42.5 -215t-110.5 -184t-156 -126t-176 -48q-128 0 -208.5 95t-80.5 239zM401 317q0 -86 39 -145t113 -59q46 0 95.5 25t92.5 70t78 101t55.5 123.5t20.5 132.5q0 49 -13.5 93 t-49.5 78t-89 34q-57 0 -118.5 -39t-110.5 -101t-81 -146t-32 -167zM449 1079q0 31 34 54q159 127 256 127q34 0 63 -15t43 -30.5t34 -43.5q18 -24 34 -24q10 0 22.5 3.5t27 11t27.5 14.5t29 17.5t25 16.5t23 16t16 11q33 23 50 23q27 0 45 -21.5t18 -44.5q0 -13 -7 -25.5 t-28 -29t-31 -23.5t-43 -29q-8 -5 -12 -8q-100 -65 -172 -65q-34 0 -61.5 14t-41.5 28.5t-34 41.5q-22 28 -37 28q-51 0 -162 -86q-24 -17 -33.5 -21.5t-23.5 -4.5q-25 0 -43 19.5t-18 45.5z" />
<glyph unicode="&#xf6;" d="M260 322q0 104 42 209t109 184.5t156 129.5t178 50q122 0 205.5 -89t83.5 -245q0 -109 -42.5 -215t-110.5 -184t-156 -126t-176 -48q-128 0 -208.5 95t-80.5 239zM401 317q0 -86 39 -145t113 -59q46 0 95.5 25t92.5 70t78 101t55.5 123.5t20.5 132.5q0 49 -13.5 93 t-49.5 78t-89 34q-57 0 -118.5 -39t-110.5 -101t-81 -146t-32 -167zM584 1130q0 34 27.5 62.5t64.5 28.5q32 0 53 -21t21 -55q1 -38 -28.5 -64t-62.5 -26q-36 0 -55.5 23t-19.5 52zM893 1130q0 34 27.5 62.5t64.5 28.5q32 0 53 -21t21 -55q1 -39 -28.5 -64.5t-61.5 -25.5 q-36 0 -56 23t-20 52z" />
<glyph unicode="&#xf7;" d="M233 627q0 71 105 71h711q20 0 31.5 -1.5t31.5 -7t30.5 -21.5t10.5 -41q0 -72 -90 -72h-737q-93 0 -93 72zM455 174q0 62 46 103.5t99 41.5q54 0 84.5 -34t30.5 -76q0 -55 -44.5 -100.5t-103.5 -45.5q-45 0 -78.5 29.5t-33.5 81.5zM672 1042q0 63 46 104.5t99 41.5 q54 0 84.5 -34.5t30.5 -76.5q0 -55 -44.5 -100t-103.5 -45q-45 0 -78.5 29t-33.5 81z" />
<glyph unicode="&#xf8;" d="M119 -225q0 13 5.5 23.5t31.5 45.5l176 254q-58 96 -58 215q0 110 42 218.5t108 189t152.5 130.5t171.5 50q54 0 104 -22l16 -7q8 0 19 19l170 246q22 32 55 32q21 0 43.5 -16.5t22.5 -44.5q0 -16 -19 -43l-196 -283q59 -82 59 -213q0 -143 -68 -279.5t-179 -222 t-228 -85.5q-64 0 -121 30q-45 -60 -81.5 -112t-62 -90.5t-36.5 -53.5q-15 -19 -21 -25.5t-16.5 -12t-24.5 -5.5q-20 0 -42.5 16.5t-22.5 45.5zM389 319q0 -57 21 -110l389 557q-21 8 -56 8q-82 0 -165 -66.5t-136 -173.5t-53 -215zM498 117q18 -8 53 -8q63 0 128 40.5 t115 104t81.5 146.5t31.5 163q0 65 -20 111z" />
<glyph unicode="&#xf9;" d="M164 588q0 15 10 48.5t32.5 78t52.5 84.5t77.5 68t101.5 28q66 0 112 -44.5t46 -125.5q0 -43 -25 -113q-62 -168 -83 -250t-21 -133q0 -116 86 -116q37 0 70 21t58.5 59t44.5 73t34.5 82t21 66t11.5 43l88 354q21 72 75 72q25 0 46.5 -16.5t21.5 -51.5q0 -12 -8 -43 l-137 -555q-9 -35 -9 -47q0 -57 35 -57q40 0 80 163q6 23 9.5 32.5t11.5 22t21 17t34 4.5q24 0 40.5 -7.5t22.5 -18.5t7.5 -18t1.5 -13q0 -8 -7.5 -39.5t-24.5 -79.5t-36 -82q-60 -106 -162 -106q-54 0 -92.5 26t-58.5 62q-91 -88 -203 -88q-95 0 -159 61.5t-64 181.5 q0 68 24.5 160.5t85.5 261.5q21 61 21 80q0 37 -23 37q-34 0 -68 -45.5t-59 -134.5q-7 -31 -21 -45.5t-53 -14.5q-28 0 -44.5 12t-20.5 23.5t-4 22.5zM623 1206q14 31 43 49.5t57 18.5q12 0 35 -10l243 -123q15 -7 21.5 -12.5t10.5 -18t-7 -29.5q-11 -24 -38.5 -53 t-63.5 -29q-5 0 -31 11l-248 120q-49 24 -22 76z" />
<glyph unicode="&#xfa;" d="M164 588q0 15 10 48.5t32.5 78t52.5 84.5t77.5 68t101.5 28q66 0 112 -44.5t46 -125.5q0 -43 -25 -113q-62 -168 -83 -250t-21 -133q0 -116 86 -116q37 0 70 21t58.5 59t44.5 73t34.5 82t21 66t11.5 43l88 354q21 72 75 72q25 0 46.5 -16.5t21.5 -51.5q0 -12 -8 -43 l-137 -555q-9 -35 -9 -47q0 -57 35 -57q40 0 80 163q6 23 9.5 32.5t11.5 22t21 17t34 4.5q24 0 40.5 -7.5t22.5 -18.5t7.5 -18t1.5 -13q0 -8 -7.5 -39.5t-24.5 -79.5t-36 -82q-60 -106 -162 -106q-54 0 -92.5 26t-58.5 62q-91 -88 -203 -88q-95 0 -159 61.5t-64 181.5 q0 68 24.5 160.5t85.5 261.5q21 61 21 80q0 37 -23 37q-34 0 -68 -45.5t-59 -134.5q-7 -31 -21 -45.5t-53 -14.5q-28 0 -44.5 12t-20.5 23.5t-4 22.5zM590 1081q0 25 13.5 37t41.5 23l305 123q27 10 39 10q28 0 48 -18.5t20 -49.5q0 -52 -62 -76l-307 -120q-33 -11 -37 -11 q-25 0 -40 18t-18 34t-3 30z" />
<glyph unicode="&#xfb;" d="M164 588q0 15 10 48.5t32.5 78t52.5 84.5t77.5 68t101.5 28q66 0 112 -44.5t46 -125.5q0 -43 -25 -113q-62 -168 -83 -250t-21 -133q0 -116 86 -116q37 0 70 21t58.5 59t44.5 73t34.5 82t21 66t11.5 43l88 354q21 72 75 72q25 0 46.5 -16.5t21.5 -51.5q0 -12 -8 -43 l-137 -555q-9 -35 -9 -47q0 -57 35 -57q40 0 80 163q6 23 9.5 32.5t11.5 22t21 17t34 4.5q24 0 40.5 -7.5t22.5 -18.5t7.5 -18t1.5 -13q0 -8 -7.5 -39.5t-24.5 -79.5t-36 -82q-60 -106 -162 -106q-54 0 -92.5 26t-58.5 62q-91 -88 -203 -88q-95 0 -159 61.5t-64 181.5 q0 68 24.5 160.5t85.5 261.5q21 61 21 80q0 37 -23 37q-34 0 -68 -45.5t-59 -134.5q-7 -31 -21 -45.5t-53 -14.5q-28 0 -44.5 12t-20.5 23.5t-4 22.5zM501 1057.5q2 34.5 38 54.5l268 154q34 20 61 0l215 -154q17 -12 20.5 -31t-5 -35.5t-23 -30t-33.5 -15t-36 9.5l-191 127 l-229 -127q-37 -16 -62 -1.5t-23 49z" />
<glyph unicode="&#xfc;" d="M164 588q0 15 10 48.5t32.5 78t52.5 84.5t77.5 68t101.5 28q66 0 112 -44.5t46 -125.5q0 -43 -25 -113q-62 -168 -83 -250t-21 -133q0 -116 86 -116q37 0 70 21t58.5 59t44.5 73t34.5 82t21 66t11.5 43l88 354q21 72 75 72q25 0 46.5 -16.5t21.5 -51.5q0 -12 -8 -43 l-137 -555q-9 -35 -9 -47q0 -57 35 -57q40 0 80 163q6 23 9.5 32.5t11.5 22t21 17t34 4.5q24 0 40.5 -7.5t22.5 -18.5t7.5 -18t1.5 -13q0 -8 -7.5 -39.5t-24.5 -79.5t-36 -82q-60 -106 -162 -106q-54 0 -92.5 26t-58.5 62q-91 -88 -203 -88q-95 0 -159 61.5t-64 181.5 q0 68 24.5 160.5t85.5 261.5q21 61 21 80q0 37 -23 37q-34 0 -68 -45.5t-59 -134.5q-7 -31 -21 -45.5t-53 -14.5q-28 0 -44.5 12t-20.5 23.5t-4 22.5zM584 1130q0 34 27.5 62.5t64.5 28.5q32 0 53 -21t21 -55q1 -38 -28.5 -64t-62.5 -26q-36 0 -55.5 23t-19.5 52zM893 1130 q0 34 27.5 62.5t64.5 28.5q32 0 53 -21t21 -55q1 -39 -28.5 -64.5t-61.5 -25.5q-36 0 -56 23t-20 52z" />
<glyph unicode="&#xfd;" d="M164 588q0 17 11 51.5t35 78.5t57 83.5t82.5 66.5t105.5 27q69 0 119.5 -46t50.5 -128q0 -43 -45 -162q-48 -130 -66 -199t-18 -120q0 -127 108 -127q38 0 72 18t60 44.5t50.5 73t41.5 86.5t35.5 102.5t29.5 105t27 108.5l38 150q4 17 8 27t12.5 25t23 22.5t34.5 7.5 q25 0 46.5 -16.5t21.5 -51.5q0 -12 -8 -43l-199 -799q-18 -71 -58 -145.5t-97.5 -141.5t-137.5 -110t-166 -43q-93 0 -153 55t-60 144q0 35 9.5 61.5t22 39t29 20t26 9t18.5 1.5q35 0 59.5 -22.5t24.5 -59.5q0 -5 -1 -14t-12 -30.5t-30 -35.5q17 -43 69 -43 q104 0 198.5 111.5t127.5 267.5l-6 -4q-7 -4 -15 -7.5t-19.5 -9t-25 -10.5t-29.5 -9t-34.5 -6.5t-36.5 -2.5q-46 0 -88 14t-78.5 42t-58 79.5t-21.5 118.5t23 151t82 244q26 66 26 88q0 45 -34 45q-42 0 -81 -50t-63 -130q-5 -17 -8 -24t-11 -17.5t-21.5 -14.5t-33.5 -4 q-28 0 -44.5 12t-20.5 23.5t-4 22.5zM590 1081q0 25 13.5 37t41.5 23l305 123q27 10 39 10q28 0 48 -18.5t20 -49.5q0 -52 -62 -76l-307 -120q-33 -11 -37 -11q-25 0 -40 18t-18 34t-3 30z" />
<glyph unicode="&#xfe;" d="M23 -397q0 19 7 33t15 20t22.5 9.5t21.5 4t20 0.5h73l365 1456h-117q-84 0 -84 58q0 19 7 33t15 20t22.5 9.5t21.5 4t20 0.5h191q84 0 84 -57l-7 -35l-86 -342q108 78 213 78q120 0 196.5 -91.5t76.5 -236.5q0 -106 -41 -211.5t-108.5 -186t-160.5 -131t-190 -50.5 q-47 0 -90.5 20.5t-62 38t-21.5 23.5l-98 -400h92q15 0 25 -1t25.5 -6t23.5 -17.5t8 -32.5q0 -19 -6.5 -33t-14.5 -20.5t-22 -10t-22 -4t-21 -0.5h-310q-83 0 -83 58zM500 309q0 -45 11 -86.5t43.5 -75.5t80.5 -34q70 0 145 65t126.5 173t51.5 220q0 91 -36.5 145t-96.5 54 q-71 0 -146.5 -66t-127 -175t-51.5 -220z" />
<glyph unicode="&#xff;" d="M164 588q0 17 11 51.5t35 78.5t57 83.5t82.5 66.5t105.5 27q69 0 119.5 -46t50.5 -128q0 -43 -45 -162q-48 -130 -66 -199t-18 -120q0 -127 108 -127q38 0 72 18t60 44.5t50.5 73t41.5 86.5t35.5 102.5t29.5 105t27 108.5l38 150q4 17 8 27t12.5 25t23 22.5t34.5 7.5 q25 0 46.5 -16.5t21.5 -51.5q0 -12 -8 -43l-199 -799q-18 -71 -58 -145.5t-97.5 -141.5t-137.5 -110t-166 -43q-93 0 -153 55t-60 144q0 35 9.5 61.5t22 39t29 20t26 9t18.5 1.5q35 0 59.5 -22.5t24.5 -59.5q0 -5 -1 -14t-12 -30.5t-30 -35.5q17 -43 69 -43 q104 0 198.5 111.5t127.5 267.5l-6 -4q-7 -4 -15 -7.5t-19.5 -9t-25 -10.5t-29.5 -9t-34.5 -6.5t-36.5 -2.5q-46 0 -88 14t-78.5 42t-58 79.5t-21.5 118.5t23 151t82 244q26 66 26 88q0 45 -34 45q-42 0 -81 -50t-63 -130q-5 -17 -8 -24t-11 -17.5t-21.5 -14.5t-33.5 -4 q-28 0 -44.5 12t-20.5 23.5t-4 22.5zM584 1130q0 34 27.5 62.5t64.5 28.5q32 0 53 -21t21 -55q1 -38 -28.5 -64t-62.5 -26q-36 0 -55.5 23t-19.5 52zM893 1130q0 34 27.5 62.5t64.5 28.5q32 0 53 -21t21 -55q1 -39 -28.5 -64.5t-61.5 -25.5q-36 0 -56 23t-20 52z" />
<glyph unicode="&#x152;" d="M129 156q0 128 71 410t105 382q23 66 40.5 108t42 82.5t51.5 63t67 40.5t90 25t119 7q55 0 112 -12q54 -11 97 -11h307q84 0 84 -57q0 -7 -6 -31l-43 -172q-14 -57 -60 -57q-24 0 -40.5 16.5t-16.5 40.5q0 3 5.5 26t13.5 57.5t12 51.5h-244l-102 -415h231q84 0 84 -58 q0 -19 -6.5 -33t-14.5 -20.5t-22 -9.5t-21.5 -3.5t-21.5 -0.5h-262l-115 -461h258l35 137q12 50 24.5 69t43.5 19q24 0 40.5 -17.5t16.5 -39.5q0 -10 -30.5 -132t-35.5 -130q-11 -21 -27 -26t-48 -5h-328q-72 0 -115 -8q-79 -15 -129 -15q-85 0 -139 11.5t-80 37t-34.5 54.5 t-8.5 76zM258 233q0 -21 1 -33t10.5 -33.5t26.5 -33.5t52.5 -21.5t85.5 -9.5q32 0 53.5 6.5t47 28t46.5 69.5t40 124l151 612q19 78 19 127q0 40 -21 60t-78 20q-55 0 -95 -9.5t-67.5 -25t-49 -45.5t-35.5 -60t-31 -79q-37 -112 -96.5 -354t-59.5 -343z" />
<glyph unicode="&#x153;" d="M145 276q0 138 56.5 283t150 242.5t191.5 97.5q45 0 80 -20.5t54 -53t28 -55t14 -43.5q61 76 131.5 122t142.5 46q84 0 132.5 -58t48.5 -139q0 -137 -118 -224t-360 -87q-8 -56 -8 -84q0 -25 4 -51.5t15 -60.5t36.5 -56t61.5 -22q21 0 45.5 2.5t80.5 25.5t97 64 q20 20 43 20q24 0 40.5 -15.5t16.5 -41.5q0 -32 -48 -74t-126.5 -74t-152.5 -32q-47 0 -85 16.5t-62.5 44.5t-38.5 55.5t-23 57.5q-117 -178 -248 -178q-89 0 -144 76.5t-55 215.5zM285 266q0 -6 0.5 -17t4 -38t9 -47.5t18.5 -37.5t31 -17q38 0 85 45.5t87 115t67 161.5 t27 177q0 14 -1.5 31t-7 53t-22.5 59t-42 23q-49 0 -109.5 -77.5t-103.5 -199t-43 -231.5zM731 512q39 2 71 5.5t72 10.5t70.5 20t57 31.5t41 47.5t14.5 65q0 78 -68 78q-64 0 -141 -75t-117 -183z" />
<glyph unicode="&#x178;" d="M334 1184q0 19 6.5 33t14.5 20.5t22 9.5t21.5 3.5t21.5 0.5h213q15 0 25 -1t25.5 -6t23.5 -17.5t8 -32.5t-6.5 -33.5t-14.5 -20t-25.5 -10t-29 -4t-35.5 -0.5q66 -312 79.5 -379.5t16.5 -103.5q33 67 129 201l205 282q-80 0 -80 58q0 19 6.5 33t14.5 20.5t22 9.5 t21.5 3.5t21.5 0.5h213q15 0 25 -1t25.5 -6t23.5 -17.5t8 -32.5q0 -19 -6.5 -33t-14.5 -20.5t-22 -10t-22 -4t-21 -0.5h-57l-459 -626l-94 -375h37q84 0 84 -57q0 -19 -7 -33t-15 -20.5t-22.5 -10t-22 -4t-19.5 -0.5h-244q-15 0 -25 1t-25.5 6t-23.5 17.5t-8 32.5q0 24 8 39 t23.5 20.5t25.5 7t27 1.5h66l94 375l-146 626q-24 0 -36.5 0.5t-29.5 3.5t-25.5 9t-14.5 17t-6 28zM629 1434q2 34 28.5 62t63.5 28q32 0 54 -21t22 -55q0 -39 -29 -64.5t-61 -25.5q-35 0 -55.5 23t-22.5 53zM995 1434q2 34 28.5 62t63.5 28q32 0 54 -21t22 -55 q0 -39 -29 -64.5t-61 -25.5q-35 0 -55.5 23t-22.5 53z" />
<glyph unicode="&#x2c6;" d="M501 1057.5q2 34.5 38 54.5l268 154q34 20 61 0l215 -154q17 -12 20.5 -31t-5 -35.5t-23 -30t-33.5 -15t-36 9.5l-191 127l-229 -127q-37 -16 -62 -1.5t-23 49z" />
<glyph unicode="&#x2dc;" d="M449 1079q0 31 34 54q159 127 256 127q34 0 63 -15t43 -30.5t34 -43.5q18 -24 34 -24q10 0 22.5 3.5t27 11t27.5 14.5t29 17.5t25 16.5t23 16t16 11q33 23 50 23q27 0 45 -21.5t18 -44.5q0 -13 -7 -25.5t-28 -29t-31 -23.5t-43 -29q-8 -5 -12 -8q-100 -65 -172 -65 q-34 0 -61.5 14t-41.5 28.5t-34 41.5q-22 28 -37 28q-51 0 -162 -86q-24 -17 -33.5 -21.5t-23.5 -4.5q-25 0 -43 19.5t-18 45.5z" />
<glyph unicode="&#x2000;" horiz-adv-x="826" />
<glyph unicode="&#x2001;" horiz-adv-x="1653" />
<glyph unicode="&#x2002;" horiz-adv-x="826" />
<glyph unicode="&#x2003;" horiz-adv-x="1653" />
<glyph unicode="&#x2004;" horiz-adv-x="551" />
<glyph unicode="&#x2005;" horiz-adv-x="413" />
<glyph unicode="&#x2006;" horiz-adv-x="275" />
<glyph unicode="&#x2007;" horiz-adv-x="275" />
<glyph unicode="&#x2008;" horiz-adv-x="206" />
<glyph unicode="&#x2009;" horiz-adv-x="330" />
<glyph unicode="&#x200a;" horiz-adv-x="91" />
<glyph unicode="&#x2010;" d="M272 627q0 71 95 71h655q94 0 94 -71q0 -72 -94 -72h-655q-95 0 -95 72z" />
<glyph unicode="&#x2011;" d="M272 627q0 71 95 71h655q94 0 94 -71q0 -72 -94 -72h-655q-95 0 -95 72z" />
<glyph unicode="&#x2012;" d="M272 627q0 71 95 71h655q94 0 94 -71q0 -72 -94 -72h-655q-95 0 -95 72z" />
<glyph unicode="&#x2013;" d="M272 627q0 71 95 71h655q94 0 94 -71q0 -72 -94 -72h-655q-95 0 -95 72z" />
<glyph unicode="&#x2014;" d="M272 627q0 71 95 71h655q94 0 94 -71q0 -72 -94 -72h-655q-95 0 -95 72z" />
<glyph unicode="&#x2018;" d="M614 918q0 76 31 152t77 132.5t97 101.5t93.5 68t64.5 23q28 0 45.5 -22.5t17.5 -41.5q0 -34 -41 -57q-69 -36 -120 -81t-77.5 -90.5t-38.5 -76.5t-18 -61q113 0 113 -88q0 -46 -33 -80.5t-84 -34.5q-50 0 -88.5 38.5t-38.5 117.5z" />
<glyph unicode="&#x2019;" d="M541 682q0 16 8 28t14.5 16.5t18.5 10.5q209 111 254 312q-19 0 -23 -2q-5 -3 -26.5 3t-43.5 28.5t-22 58.5q0 42 33 78t84 36q62 0 95.5 -44t33.5 -109q0 -77 -31 -153.5t-77 -133.5t-97 -102t-93.5 -68t-64.5 -23q-27 0 -45 21.5t-18 42.5z" />
<glyph unicode="&#x201a;" d="M379 -377q0 11 4 27l78 413q17 105 102 105q42 0 64 -26t22 -56q0 -10 -10 -45l-133 -420q-6 -19 -11 -29t-18.5 -18t-34.5 -8q-18 0 -31 6t-18.5 14t-9 16.5t-3.5 14.5z" />
<glyph unicode="&#x201c;" d="M475 729q0 11 4 27l78 413q17 105 102 105q42 0 64 -26t22 -56q0 -10 -10 -45l-133 -420q-5 -15 -8 -22.5t-10 -16.5t-18 -12.5t-27 -3.5q-28 0 -44 14t-18 28zM838 729q0 11 4 27l78 415q21 103 102 103q42 0 64 -26t22 -56q0 -10 -10 -41l-133 -424q-5 -16 -8 -22.5 t-10 -16t-18 -13t-28 -3.5q-28 0 -43.5 14t-17.5 28z" />
<glyph unicode="&#x201d;" d="M475 729q0 11 4 27l78 413q17 105 102 105q42 0 64 -26t22 -56q0 -10 -10 -45l-133 -420q-5 -15 -8 -22.5t-10 -16.5t-18 -12.5t-27 -3.5q-28 0 -44 14t-18 28zM838 729q0 11 4 27l78 415q21 103 102 103q42 0 64 -26t22 -56q0 -10 -10 -41l-133 -424q-5 -16 -8 -22.5 t-10 -16t-18 -13t-28 -3.5q-28 0 -43.5 14t-17.5 28z" />
<glyph unicode="&#x201e;" d="M352 -377q0 11 4 27l78 413q2 14 6.5 27.5t15 33.5t31.5 32t50 12q42 0 64 -26t22 -56q0 -6 -11 -45l-133 -420q-5 -15 -8 -22.5t-10 -16.5t-18 -12.5t-27 -3.5q-28 0 -44 14t-18 28zM715 -377q0 11 4 27l78 416q21 102 102 102q42 0 64 -26t22 -56q0 -10 -10 -41 l-133 -424q-5 -16 -8 -22.5t-10 -16t-18 -13t-28 -3.5q-18 0 -31 6t-18.5 14t-9 16.5t-3.5 14.5z" />
<glyph unicode="&#x2022;" d="M373 440q0 93 50.5 169t123 114.5t145.5 38.5q81 0 141 -39t86.5 -93t26.5 -112q0 -122 -97.5 -221.5t-227.5 -99.5q-100 0 -174 64t-74 179z" />
<glyph unicode="&#x2026;" d="M82 111q0 62 46 103.5t99 41.5q54 0 84.5 -34.5t30.5 -76.5q0 -55 -44 -100t-103 -45q-45 0 -79 29.5t-34 81.5zM440 111q0 62 46 103.5t100 41.5t84 -34.5t30 -76.5q0 -55 -44 -100t-103 -45q-45 0 -79 29.5t-34 81.5zM799 111q0 62 46 103.5t99 41.5q54 0 84.5 -34.5 t30.5 -76.5q0 -55 -44.5 -100t-103.5 -45q-45 0 -78.5 29.5t-33.5 81.5z" />
<glyph unicode="&#x202f;" horiz-adv-x="330" />
<glyph unicode="&#x2039;" d="M412 627q2 7 4 13.5t5.5 12t6 9.5t7.5 8.5t7 6.5t7 6t6 5l522 381q26 18 39 18q19 0 29 -17t4 -48q-8 -37 -45 -61l-457 -334l315 -334q20 -24 19 -47q0 -7 -2 -15q-6 -30 -23.5 -47.5t-36.5 -17.5q-13 0 -33 18l-364 385q-16 23 -10 58z" />
<glyph unicode="&#x203a;" d="M342 231q9 38 45 62l455 334l-314 334q-8 10 -10.5 13.5t-7 18.5t1.5 29q6 31 22 48t35 17q15 0 35 -18l359 -381q22 -26 14 -61q-6 -36 -35 -58l-528 -385q-26 -18 -41 -18q-18 0 -27.5 17t-3.5 48z" />
<glyph unicode="&#x205f;" horiz-adv-x="413" />
<glyph unicode="&#x20ac;" d="M249.5 449.5q-10.5 17.5 0.5 39.5l16 33q8 15 23.5 26t32.5 11h57q2 12 7 34.5t7 33.5q7 27 21 67h-66q-23 0 -33.5 18t0.5 40l17 32q8 16 23 26.5t32 10.5h74q64 145 155 252q76 90 167.5 145.5t183.5 55.5q96 0 161 -47l29 26q25 21 51 21h9q25 0 37 -17.5t6 -42.5 l-48 -194q-8 -25 -29 -42t-46 -17h-25q-23 0 -35.5 14.5t-9.5 36.5q7 58 -28.5 96.5t-94.5 38.5q-107 0 -221 -139q-61 -74 -117 -187h365q23 0 32 -18t-2 -41l-16 -33q-7 -15 -22.5 -25t-30.5 -10h-375q-10 -29 -20 -67q-2 -11 -7.5 -33.5t-7.5 -34.5h320q23 0 32 -18 t-2 -41l-16 -33q-7 -15 -22.5 -25t-30.5 -10h-295q-3 -100 24 -186q48 -142 150 -142q60 0 114 38.5t76 97.5q9 22 30 36.5t44 14.5h25q25 0 37 -17.5t6 -42.5l-47 -194q-8 -25 -29.5 -42.5t-46.5 -17.5h-6q-28 0 -41 23l-15 25q-91 -48 -188 -48q-90 0 -153 55.5t-95 145.5 q-37 111 -31 254h-79q-23 0 -33.5 17.5z" />
<glyph unicode="&#x25fc;" horiz-adv-x="890" d="M0 0v891h891v-891h-891z" />
</font>
</defs>
</svg>
